<svg xmlns="http://www.w3.org/2000/svg" xmlns:xlink="http://www.w3.org/1999/xlink" width="500" zoomAndPan="magnify" viewBox="0 0 375 262.499992" height="350" preserveAspectRatio="xMidYMid meet" version="1.0"><defs><filter x="0%" y="0%" width="100%" height="100%" id="4c5e7b30d0"><feColorMatrix values="0 0 0 0 1 0 0 0 0 1 0 0 0 0 1 0 0 0 1 0" color-interpolation-filters="sRGB"/></filter><g/><clipPath id="386b0602a5"><path d="M 0.355469 0 L 374.640625 0 L 374.640625 262 L 0.355469 262 Z M 0.355469 0 " clip-rule="nonzero"/></clipPath><mask id="b6960bd432"><g filter="url(#4c5e7b30d0)"><rect x="-37.5" width="450" fill="#000000" y="-26.249999" height="314.999991" fill-opacity="0.55"/></g></mask><clipPath id="a5da3060fb"><path d="M 0.554688 38 L 10 38 L 10 44 L 0.554688 44 Z M 0.554688 38 " clip-rule="nonzero"/></clipPath><clipPath id="81480f6303"><path d="M 37 1.078125 L 44 1.078125 L 44 10 L 37 10 Z M 37 1.078125 " clip-rule="nonzero"/></clipPath><clipPath id="0a06e20050"><path d="M 18 92 L 151 92 L 151 184.480469 L 18 184.480469 Z M 18 92 " clip-rule="nonzero"/></clipPath><clipPath id="1693761b4a"><path d="M 88 18 L 183.957031 18 L 183.957031 151 L 88 151 Z M 88 18 " clip-rule="nonzero"/></clipPath><clipPath id="77c1f2ec61"><rect x="0" width="185" y="0" height="185"/></clipPath></defs><g clip-path="url(#386b0602a5)"><path fill="#ffffff" d="M 0.355469 0 L 374.644531 0 L 374.644531 262 L 0.355469 262 Z M 0.355469 0 " fill-opacity="1" fill-rule="nonzero"/><path fill="#ffffff" d="M 0.355469 0 L 374.644531 0 L 374.644531 262 L 0.355469 262 Z M 0.355469 0 " fill-opacity="1" fill-rule="nonzero"/></g><g mask="url(#b6960bd432)"><g transform="matrix(1, 0, 0, 1, 26, 23)"><g clip-path="url(#77c1f2ec61)"><path fill="#f4b324" d="M 68.601562 92.789062 L 68.601562 128.292969 C 68.601562 134.828125 73.898438 140.125 80.433594 140.125 L 127.769531 140.125 C 134.308594 140.125 139.605469 134.828125 139.605469 128.292969 L 139.605469 92.789062 C 139.605469 86.25 134.308594 80.957031 127.769531 80.957031 L 80.433594 80.957031 C 73.898438 80.957031 68.601562 86.25 68.601562 92.789062 Z M 133.6875 92.789062 L 133.6875 128.292969 C 133.6875 131.546875 131.023438 134.207031 127.769531 134.207031 L 80.433594 134.207031 C 77.179688 134.207031 74.519531 131.546875 74.519531 128.292969 L 74.519531 92.789062 C 74.519531 89.535156 77.179688 86.875 80.433594 86.875 L 127.769531 86.875 C 131.023438 86.875 133.6875 89.535156 133.6875 92.789062 Z M 133.6875 92.789062 " fill-opacity="1" fill-rule="nonzero"/><path fill="#f4b324" d="M 125.699219 117.9375 L 121.261719 117.9375 L 121.261719 103.144531 L 125.699219 103.144531 L 125.699219 97.226562 L 110.90625 97.226562 L 110.90625 103.144531 L 115.34375 103.144531 L 115.34375 117.9375 L 110.90625 117.9375 L 110.90625 123.855469 L 125.699219 123.855469 Z M 125.699219 117.9375 " fill-opacity="1" fill-rule="nonzero"/><path fill="#f4b324" d="M 89.871094 117.9375 L 97.625 117.9375 L 98.925781 123.855469 L 104.988281 123.855469 L 99.574219 99.535156 C 99.28125 98.175781 98.066406 97.226562 96.675781 97.226562 L 90.761719 97.226562 C 89.371094 97.226562 88.1875 98.203125 87.859375 99.535156 L 82.445312 123.855469 L 88.511719 123.855469 L 89.8125 117.9375 Z M 93.15625 103.144531 L 94.339844 103.144531 L 96.320312 112.019531 L 91.203125 112.019531 L 93.1875 103.144531 Z M 93.15625 103.144531 " fill-opacity="1" fill-rule="nonzero"/><g clip-path="url(#a5da3060fb)"><path fill="#f4b324" d="M 0.554688 38.058594 L 9.433594 38.058594 L 9.433594 43.976562 L 0.554688 43.976562 Z M 0.554688 38.058594 " fill-opacity="1" fill-rule="nonzero"/></g><path fill="#f4b324" d="M 71.558594 38.058594 L 80.433594 38.058594 L 80.433594 43.976562 L 71.558594 43.976562 Z M 71.558594 38.058594 " fill-opacity="1" fill-rule="nonzero"/><g clip-path="url(#81480f6303)"><path fill="#f4b324" d="M 37.539062 1.078125 L 43.453125 1.078125 L 43.453125 9.953125 L 37.539062 9.953125 Z M 37.539062 1.078125 " fill-opacity="1" fill-rule="nonzero"/></g><path fill="#f4b324" d="M 10.148438 14.855469 L 14.332031 10.671875 L 20.609375 16.945312 L 16.425781 21.128906 Z M 10.148438 14.855469 " fill-opacity="1" fill-rule="nonzero"/><path fill="#f4b324" d="M 63.339844 65.066406 L 67.523438 60.882812 L 73.800781 67.160156 L 69.617188 71.34375 Z M 63.339844 65.066406 " fill-opacity="1" fill-rule="nonzero"/><path fill="#f4b324" d="M 60.371094 16.925781 L 66.648438 10.648438 L 70.832031 14.832031 L 64.554688 21.109375 Z M 60.371094 16.925781 " fill-opacity="1" fill-rule="nonzero"/><path fill="#f4b324" d="M 10.167969 67.199219 L 16.441406 60.925781 L 20.625 65.109375 L 14.351562 71.382812 Z M 10.167969 67.199219 " fill-opacity="1" fill-rule="nonzero"/><path fill="#f4b324" d="M 28.660156 63.207031 L 28.660156 73.558594 C 28.660156 80.097656 33.957031 85.394531 40.496094 85.394531 C 47.035156 85.394531 52.328125 80.097656 52.328125 73.558594 L 52.328125 63.207031 C 60.464844 58.855469 65.640625 50.367188 65.640625 41.015625 C 65.640625 33.886719 62.59375 27.054688 57.269531 22.289062 C 51.945312 17.527344 44.785156 15.25 37.65625 16.046875 C 26.296875 17.320312 17.003906 26.460938 15.554688 37.792969 C 14.226562 48.355469 19.460938 58.324219 28.660156 63.207031 Z M 40.496094 79.476562 C 38.304688 79.476562 36.414062 78.265625 35.40625 76.519531 L 45.585938 76.519531 C 44.546875 78.265625 42.683594 79.476562 40.496094 79.476562 Z M 46.414062 70.601562 L 34.578125 70.601562 L 34.578125 67.644531 L 46.414062 67.644531 Z M 21.414062 38.503906 C 22.507812 29.835938 29.609375 22.851562 38.277344 21.90625 C 39.015625 21.816406 39.757812 21.789062 40.496094 21.789062 C 45.230469 21.789062 49.726562 23.503906 53.304688 26.699219 C 57.386719 30.335938 59.726562 35.574219 59.726562 41.015625 C 59.726562 48.648438 55.199219 55.574219 48.1875 58.648438 C 47.121094 59.121094 46.414062 60.1875 46.414062 61.371094 L 46.414062 61.753906 L 34.578125 61.753906 L 34.578125 61.371094 C 34.578125 60.1875 33.867188 59.121094 32.804688 58.648438 C 24.90625 55.1875 20.347656 47.113281 21.414062 38.53125 Z M 21.414062 38.503906 " fill-opacity="1" fill-rule="nonzero"/><g clip-path="url(#0a06e20050)"><path fill="#f4b324" d="M 18.808594 92.464844 C 18.484375 95.511719 18.308594 98.589844 18.308594 101.664062 C 18.308594 147.34375 55.464844 184.503906 101.144531 184.503906 C 119.070312 184.503906 136.082031 178.882812 150.402344 168.230469 L 146.882812 163.496094 C 133.597656 173.378906 117.800781 178.585938 101.171875 178.585938 C 58.75 178.585938 24.253906 144.089844 24.253906 101.664062 C 24.253906 98.824219 24.402344 95.957031 24.726562 93.117188 L 18.839844 92.464844 Z M 18.808594 92.464844 " fill-opacity="1" fill-rule="nonzero"/></g><g clip-path="url(#1693761b4a)"><path fill="#f4b324" d="M 101.144531 18.828125 C 97.03125 18.828125 92.917969 19.125 88.867188 19.714844 L 89.722656 25.574219 C 93.480469 25.011719 97.296875 24.746094 101.113281 24.746094 C 143.539062 24.746094 178.035156 59.242188 178.035156 101.664062 C 178.035156 118.292969 172.828125 134.121094 162.945312 147.375 L 167.679688 150.894531 C 178.328125 136.605469 183.949219 119.5625 183.949219 101.636719 C 183.949219 55.957031 146.792969 18.800781 101.113281 18.800781 Z M 101.144531 18.828125 " fill-opacity="1" fill-rule="nonzero"/></g><path fill="#f4b324" d="M 153.480469 157.996094 L 157.472656 162.34375 C 158.980469 160.953125 160.429688 159.503906 161.820312 157.996094 L 157.472656 154 C 156.199219 155.390625 154.871094 156.722656 153.480469 157.996094 Z M 153.480469 157.996094 " fill-opacity="1" fill-rule="nonzero"/><path fill="#f4b324" d="M 141.703125 54.332031 L 131.585938 54.332031 C 129.960938 54.332031 128.628906 55.660156 128.628906 57.289062 L 128.628906 59.417969 C 127.386719 59.832031 126.203125 60.304688 125.019531 60.898438 L 123.511719 59.390625 C 122.355469 58.234375 120.492188 58.234375 119.339844 59.390625 L 112.148438 66.578125 C 110.996094 67.730469 110.996094 69.597656 112.148438 70.75 L 113.65625 72.257812 C 112.828125 73.886719 112.207031 75.511719 111.765625 77.199219 L 117.472656 78.738281 C 117.859375 77.347656 118.363281 76.015625 119.070312 74.683594 C 120.109375 72.761719 119.8125 70.363281 118.421875 68.679688 L 121.46875 65.632812 C 123.15625 67.023438 125.550781 67.316406 127.472656 66.3125 C 128.835938 65.601562 130.226562 65.070312 131.824219 64.65625 C 133.480469 64.152344 134.605469 62.671875 134.605469 60.957031 L 134.605469 60.21875 L 138.804688 60.21875 L 138.804688 60.898438 C 138.804688 62.730469 140.105469 64.328125 141.761719 64.683594 C 143.214844 65.070312 144.632812 65.601562 145.933594 66.3125 C 147.859375 67.347656 150.285156 67.050781 151.941406 65.660156 L 154.988281 68.707031 C 153.597656 70.394531 153.300781 72.789062 154.308594 74.683594 C 154.871094 75.777344 155.34375 76.902344 155.699219 78.027344 C 156.378906 80.15625 158.210938 81.605469 160.402344 81.8125 L 160.402344 86.042969 C 158.242188 86.222656 156.378906 87.671875 155.667969 89.859375 C 155.371094 90.835938 154.957031 91.871094 154.335938 93.144531 C 153.300781 95.066406 153.597656 97.464844 154.988281 99.152344 L 151.941406 102.199219 C 150.253906 100.808594 147.859375 100.511719 145.964844 101.515625 C 144.871094 102.078125 143.746094 102.554688 142.621094 102.90625 L 144.398438 108.558594 C 145.699219 108.144531 147 107.613281 148.332031 106.960938 L 149.839844 108.46875 C 150.433594 109.0625 151.171875 109.328125 151.941406 109.328125 C 152.710938 109.328125 153.449219 109.03125 154.042969 108.46875 L 161.230469 101.28125 C 162.382812 100.128906 162.382812 98.261719 161.230469 97.109375 L 159.722656 95.601562 C 160.402344 94.238281 160.875 93.054688 161.199219 91.992188 L 163.359375 91.992188 C 164.988281 91.992188 166.320312 90.660156 166.320312 89.03125 L 166.320312 78.914062 C 166.320312 77.289062 164.988281 75.957031 163.359375 75.957031 L 161.230469 75.957031 C 160.84375 74.773438 160.34375 73.558594 159.75 72.347656 L 161.257812 70.839844 C 162.414062 69.683594 162.414062 67.820312 161.257812 66.667969 L 154.070312 59.476562 C 152.917969 58.324219 151.054688 58.324219 149.898438 59.476562 L 148.390625 60.988281 C 147.238281 60.394531 146.054688 59.921875 144.78125 59.507812 L 144.78125 57.378906 C 144.78125 55.75 143.449219 54.417969 141.824219 54.417969 Z M 141.703125 54.332031 " fill-opacity="1" fill-rule="nonzero"/><path fill="#f4b324" d="M 146.4375 95.007812 C 149.632812 92.199219 151.4375 88.144531 151.4375 83.914062 C 151.4375 75.75 144.8125 69.121094 136.644531 69.121094 C 132.414062 69.121094 128.363281 70.957031 125.550781 74.121094 L 129.988281 78.027344 C 131.675781 76.105469 134.101562 75.007812 136.644531 75.007812 C 141.527344 75.007812 145.519531 79.003906 145.519531 83.886719 C 145.519531 86.429688 144.425781 88.855469 142.503906 90.542969 L 146.410156 94.980469 Z M 146.4375 95.007812 " fill-opacity="1" fill-rule="nonzero"/><path fill="#f4b324" d="M 50.851562 130.273438 C 49.222656 130.273438 47.890625 131.605469 47.890625 133.230469 L 47.890625 141.101562 C 47.890625 142.730469 49.222656 144.058594 50.851562 144.058594 L 52.035156 144.058594 C 52.269531 144.769531 52.566406 145.449219 52.863281 146.101562 L 52.035156 146.929688 C 50.878906 148.082031 50.878906 149.949219 52.035156 151.101562 L 57.59375 156.664062 C 58.75 157.816406 60.613281 157.816406 61.765625 156.664062 L 62.59375 155.835938 C 63.246094 156.160156 63.957031 156.457031 64.636719 156.691406 L 64.636719 157.875 C 64.636719 159.503906 65.96875 160.835938 67.59375 160.835938 L 75.464844 160.835938 C 77.089844 160.835938 78.421875 159.503906 78.421875 157.875 L 78.421875 156.691406 C 79.132812 156.457031 79.8125 156.160156 80.464844 155.863281 L 81.292969 156.691406 C 82.445312 157.847656 84.308594 157.847656 85.464844 156.691406 L 91.027344 151.128906 C 92.179688 149.976562 92.179688 148.113281 91.027344 146.960938 L 90.167969 146.101562 C 90.433594 145.539062 90.671875 144.949219 90.878906 144.355469 L 85.285156 142.402344 C 85.109375 142.9375 84.871094 143.46875 84.578125 144.03125 C 83.75 145.597656 83.894531 147.492188 84.8125 148.941406 L 83.273438 150.480469 C 81.824219 149.53125 79.902344 149.445312 78.304688 150.273438 C 77.59375 150.65625 76.765625 151.011719 75.910156 151.25 C 74.191406 151.78125 72.949219 153.203125 72.59375 154.886719 L 70.433594 154.886719 C 70.082031 153.203125 68.835938 151.78125 67.0625 151.21875 C 66.265625 150.984375 65.433594 150.65625 64.667969 150.214844 C 63.097656 149.386719 61.203125 149.503906 59.753906 150.449219 L 58.21875 148.910156 C 59.132812 147.460938 59.253906 145.539062 58.425781 143.941406 C 58.039062 143.230469 57.683594 142.402344 57.449219 141.546875 C 56.914062 139.828125 55.496094 138.585938 53.808594 138.230469 L 53.808594 136.160156 C 55.40625 136.101562 56.828125 135.007812 57.269531 133.410156 C 57.566406 132.253906 57.980469 131.25 58.484375 130.273438 C 59.3125 128.707031 59.164062 126.8125 58.246094 125.363281 L 59.785156 123.824219 C 61.234375 124.769531 63.128906 124.890625 64.695312 124.0625 C 65.433594 123.675781 66.027344 123.410156 66.558594 123.234375 L 64.695312 117.613281 C 64.046875 117.820312 63.363281 118.113281 62.625 118.46875 L 61.765625 117.613281 C 60.613281 116.457031 58.75 116.457031 57.59375 117.613281 L 52.035156 123.171875 C 50.878906 124.328125 50.878906 126.191406 52.035156 127.34375 L 52.890625 128.203125 C 52.566406 128.855469 52.300781 129.535156 52.0625 130.242188 L 50.878906 130.242188 Z M 50.851562 130.273438 " fill-opacity="1" fill-rule="nonzero"/><path fill="#f4b324" d="M 63.277344 130.953125 C 61.914062 132.757812 61.203125 134.917969 61.203125 137.167969 C 61.203125 142.875 65.847656 147.519531 71.558594 147.519531 C 73.808594 147.519531 75.96875 146.8125 77.773438 145.449219 L 74.222656 140.71875 C 73.453125 141.308594 72.535156 141.605469 71.558594 141.605469 C 69.105469 141.605469 67.121094 139.621094 67.121094 137.167969 C 67.121094 136.191406 67.417969 135.273438 68.007812 134.503906 Z M 63.277344 130.953125 " fill-opacity="1" fill-rule="nonzero"/></g></g></g><g fill="#07a5c3" fill-opacity="1"><g transform="translate(159.384558, 169.770697)"><g><path d="M 6.578125 0 L 0.828125 0 L 9.59375 -25.390625 L 16.515625 -25.390625 L 25.28125 0 L 19.515625 0 L 17.640625 -5.796875 L 8.46875 -5.796875 Z M 9.828125 -9.984375 L 16.28125 -9.984375 L 13.15625 -19.59375 L 12.953125 -19.59375 Z M 9.828125 -9.984375 "/></g></g></g><g fill="#07a5c3" fill-opacity="1"><g transform="translate(183.757575, 169.770697)"><g><path d="M 2.109375 0 L 2.109375 -19.046875 L 7.234375 -19.046875 L 7.234375 -15.71875 L 7.421875 -15.71875 C 7.773438 -16.90625 8.359375 -17.800781 9.171875 -18.40625 C 9.984375 -19.019531 10.925781 -19.328125 12 -19.328125 C 12.507812 -19.328125 12.984375 -19.265625 13.421875 -19.140625 C 13.867188 -19.015625 14.265625 -18.84375 14.609375 -18.625 L 13.015625 -14.265625 C 12.773438 -14.390625 12.503906 -14.492188 12.203125 -14.578125 C 11.910156 -14.660156 11.582031 -14.703125 11.21875 -14.703125 C 10.15625 -14.703125 9.253906 -14.335938 8.515625 -13.609375 C 7.773438 -12.890625 7.398438 -11.945312 7.390625 -10.78125 L 7.390625 0 Z M 2.109375 0 "/></g></g></g><g fill="#07a5c3" fill-opacity="1"><g transform="translate(196.980737, 169.770697)"><g><path d="M 12.234375 -19.046875 L 12.234375 -15.078125 L 8.65625 -15.078125 L 8.65625 -5.859375 C 8.65625 -5.128906 8.816406 -4.632812 9.140625 -4.375 C 9.472656 -4.125 9.90625 -4 10.4375 -4 C 10.6875 -4 10.9375 -4.019531 11.1875 -4.0625 C 11.4375 -4.101562 11.625 -4.140625 11.75 -4.171875 L 12.59375 -0.234375 C 12.320312 -0.148438 11.945312 -0.0546875 11.46875 0.046875 C 10.988281 0.160156 10.40625 0.234375 9.71875 0.265625 C 7.800781 0.347656 6.257812 -0.0664062 5.09375 -0.984375 C 3.9375 -1.898438 3.363281 -3.289062 3.375 -5.15625 L 3.375 -15.078125 L 0.765625 -15.078125 L 0.765625 -19.046875 L 3.375 -19.046875 L 3.375 -23.609375 L 8.65625 -23.609375 L 8.65625 -19.046875 Z M 12.234375 -19.046875 "/></g></g></g><g fill="#07a5c3" fill-opacity="1"><g transform="translate(208.802413, 169.770697)"><g><path d="M 2.109375 0 L 2.109375 -19.046875 L 7.390625 -19.046875 L 7.390625 0 Z M 4.75 -21.5 C 3.976562 -21.5 3.3125 -21.757812 2.75 -22.28125 C 2.1875 -22.8125 1.90625 -23.445312 1.90625 -24.1875 C 1.90625 -24.914062 2.1875 -25.539062 2.75 -26.0625 C 3.3125 -26.582031 3.976562 -26.84375 4.75 -26.84375 C 5.539062 -26.84375 6.21875 -26.582031 6.78125 -26.0625 C 7.34375 -25.539062 7.625 -24.914062 7.625 -24.1875 C 7.625 -23.445312 7.34375 -22.8125 6.78125 -22.28125 C 6.21875 -21.757812 5.539062 -21.5 4.75 -21.5 Z M 4.75 -21.5 "/></g></g></g><g fill="#07a5c3" fill-opacity="1"><g transform="translate(216.556059, 169.770697)"><g><path d="M 12.53125 -19.046875 L 12.53125 -15.078125 L 8.75 -15.078125 L 8.75 0 L 3.453125 0 L 3.453125 -15.078125 L 0.765625 -15.078125 L 0.765625 -19.046875 L 3.453125 -19.046875 L 3.453125 -20.421875 C 3.453125 -22.492188 4.046875 -24.039062 5.234375 -25.0625 C 6.421875 -26.082031 7.910156 -26.59375 9.703125 -26.59375 C 10.515625 -26.59375 11.257812 -26.53125 11.9375 -26.40625 C 12.613281 -26.28125 13.113281 -26.164062 13.4375 -26.0625 L 12.515625 -22.09375 C 12.304688 -22.164062 12.046875 -22.226562 11.734375 -22.28125 C 11.429688 -22.34375 11.125 -22.375 10.8125 -22.375 C 10.03125 -22.375 9.488281 -22.191406 9.1875 -21.828125 C 8.894531 -21.472656 8.75 -20.972656 8.75 -20.328125 L 8.75 -19.046875 Z M 12.53125 -19.046875 "/></g></g></g><g fill="#07a5c3" fill-opacity="1"><g transform="translate(228.452152, 169.770697)"><g><path d="M 2.109375 0 L 2.109375 -19.046875 L 7.390625 -19.046875 L 7.390625 0 Z M 4.75 -21.5 C 3.976562 -21.5 3.3125 -21.757812 2.75 -22.28125 C 2.1875 -22.8125 1.90625 -23.445312 1.90625 -24.1875 C 1.90625 -24.914062 2.1875 -25.539062 2.75 -26.0625 C 3.3125 -26.582031 3.976562 -26.84375 4.75 -26.84375 C 5.539062 -26.84375 6.21875 -26.582031 6.78125 -26.0625 C 7.34375 -25.539062 7.625 -24.914062 7.625 -24.1875 C 7.625 -23.445312 7.34375 -22.8125 6.78125 -22.28125 C 6.21875 -21.757812 5.539062 -21.5 4.75 -21.5 Z M 4.75 -21.5 "/></g></g></g><g fill="#07a5c3" fill-opacity="1"><g transform="translate(236.205798, 169.770697)"><g><path d="M 10.71875 0.375 C 8.757812 0.375 7.078125 -0.0390625 5.671875 -0.875 C 4.273438 -1.707031 3.203125 -2.863281 2.453125 -4.34375 C 1.710938 -5.820312 1.34375 -7.523438 1.34375 -9.453125 C 1.34375 -11.398438 1.71875 -13.109375 2.46875 -14.578125 C 3.226562 -16.054688 4.304688 -17.210938 5.703125 -18.046875 C 7.097656 -18.878906 8.757812 -19.296875 10.6875 -19.296875 C 12.351562 -19.296875 13.8125 -18.992188 15.0625 -18.390625 C 16.3125 -17.785156 17.296875 -16.9375 18.015625 -15.84375 C 18.742188 -14.757812 19.144531 -13.476562 19.21875 -12 L 14.234375 -12 C 14.097656 -12.957031 13.726562 -13.722656 13.125 -14.296875 C 12.53125 -14.878906 11.75 -15.171875 10.78125 -15.171875 C 9.550781 -15.171875 8.5625 -14.679688 7.8125 -13.703125 C 7.070312 -12.722656 6.703125 -11.332031 6.703125 -9.53125 C 6.703125 -7.707031 7.070312 -6.296875 7.8125 -5.296875 C 8.550781 -4.304688 9.539062 -3.8125 10.78125 -3.8125 C 11.6875 -3.8125 12.445312 -4.082031 13.0625 -4.625 C 13.6875 -5.175781 14.078125 -5.960938 14.234375 -6.984375 L 19.21875 -6.984375 C 19.132812 -5.523438 18.738281 -4.238281 18.03125 -3.125 C 17.332031 -2.019531 16.359375 -1.160156 15.109375 -0.546875 C 13.867188 0.0664062 12.40625 0.375 10.71875 0.375 Z M 10.71875 0.375 "/></g></g></g><g fill="#07a5c3" fill-opacity="1"><g transform="translate(254.972881, 169.770697)"><g><path d="M 2.109375 0 L 2.109375 -19.046875 L 7.390625 -19.046875 L 7.390625 0 Z M 4.75 -21.5 C 3.976562 -21.5 3.3125 -21.757812 2.75 -22.28125 C 2.1875 -22.8125 1.90625 -23.445312 1.90625 -24.1875 C 1.90625 -24.914062 2.1875 -25.539062 2.75 -26.0625 C 3.3125 -26.582031 3.976562 -26.84375 4.75 -26.84375 C 5.539062 -26.84375 6.21875 -26.582031 6.78125 -26.0625 C 7.34375 -25.539062 7.625 -24.914062 7.625 -24.1875 C 7.625 -23.445312 7.34375 -22.8125 6.78125 -22.28125 C 6.21875 -21.757812 5.539062 -21.5 4.75 -21.5 Z M 4.75 -21.5 "/></g></g></g><g fill="#07a5c3" fill-opacity="1"><g transform="translate(262.726527, 169.770697)"><g><path d="M 7.546875 0.359375 C 5.722656 0.359375 4.210938 -0.113281 3.015625 -1.0625 C 1.816406 -2.019531 1.21875 -3.4375 1.21875 -5.3125 C 1.21875 -6.738281 1.550781 -7.859375 2.21875 -8.671875 C 2.882812 -9.484375 3.757812 -10.078125 4.84375 -10.453125 C 5.9375 -10.828125 7.113281 -11.070312 8.375 -11.1875 C 10.019531 -11.351562 11.195312 -11.523438 11.90625 -11.703125 C 12.625 -11.890625 12.984375 -12.285156 12.984375 -12.890625 L 12.984375 -12.96875 C 12.984375 -13.757812 12.738281 -14.367188 12.25 -14.796875 C 11.757812 -15.222656 11.0625 -15.4375 10.15625 -15.4375 C 9.207031 -15.4375 8.453125 -15.226562 7.890625 -14.8125 C 7.328125 -14.40625 6.953125 -13.882812 6.765625 -13.25 L 1.890625 -13.640625 C 2.253906 -15.378906 3.15625 -16.753906 4.59375 -17.765625 C 6.039062 -18.785156 7.90625 -19.296875 10.1875 -19.296875 C 11.59375 -19.296875 12.910156 -19.070312 14.140625 -18.625 C 15.378906 -18.175781 16.375 -17.476562 17.125 -16.53125 C 17.882812 -15.59375 18.265625 -14.363281 18.265625 -12.84375 L 18.265625 0 L 13.25 0 L 13.25 -2.640625 L 13.109375 -2.640625 C 12.640625 -1.753906 11.941406 -1.03125 11.015625 -0.46875 C 10.097656 0.0820312 8.941406 0.359375 7.546875 0.359375 Z M 9.046875 -3.28125 C 10.210938 -3.28125 11.164062 -3.617188 11.90625 -4.296875 C 12.644531 -4.972656 13.015625 -5.8125 13.015625 -6.8125 L 13.015625 -8.828125 C 12.816406 -8.691406 12.5 -8.566406 12.0625 -8.453125 C 11.625 -8.347656 11.160156 -8.253906 10.671875 -8.171875 C 10.179688 -8.097656 9.738281 -8.03125 9.34375 -7.96875 C 8.425781 -7.84375 7.679688 -7.582031 7.109375 -7.1875 C 6.546875 -6.800781 6.265625 -6.238281 6.265625 -5.5 C 6.265625 -4.769531 6.523438 -4.21875 7.046875 -3.84375 C 7.578125 -3.46875 8.242188 -3.28125 9.046875 -3.28125 Z M 9.046875 -3.28125 "/></g></g></g><g fill="#07a5c3" fill-opacity="1"><g transform="translate(281.245558, 169.770697)"><g><path d="M 7.390625 -25.390625 L 7.390625 0 L 2.109375 0 L 2.109375 -25.390625 Z M 7.390625 -25.390625 "/></g></g></g><g fill="#07a5c3" fill-opacity="1"><g transform="translate(159.384558, 204.205105)"><g><path d="M 7.578125 -25.390625 L 7.578125 0 L 2.203125 0 L 2.203125 -25.390625 Z M 7.578125 -25.390625 "/></g></g></g><g fill="#07a5c3" fill-opacity="1"><g transform="translate(167.435871, 204.205105)"><g><path d="M 7.390625 -11.015625 L 7.390625 0 L 2.109375 0 L 2.109375 -19.046875 L 7.140625 -19.046875 L 7.140625 -15.6875 L 7.359375 -15.6875 C 7.796875 -16.789062 8.503906 -17.664062 9.484375 -18.3125 C 10.472656 -18.96875 11.675781 -19.296875 13.09375 -19.296875 C 15.082031 -19.296875 16.675781 -18.65625 17.875 -17.375 C 19.070312 -16.101562 19.671875 -14.351562 19.671875 -12.125 L 19.671875 0 L 14.390625 0 L 14.390625 -11.1875 C 14.390625 -12.351562 14.085938 -13.265625 13.484375 -13.921875 C 12.890625 -14.578125 12.0625 -14.90625 11 -14.90625 C 9.9375 -14.90625 9.070312 -14.5625 8.40625 -13.875 C 7.738281 -13.195312 7.398438 -12.242188 7.390625 -11.015625 Z M 7.390625 -11.015625 "/></g></g></g><g fill="#07a5c3" fill-opacity="1"><g transform="translate(187.406, 204.205105)"><g><path d="M 12.234375 -19.046875 L 12.234375 -15.078125 L 8.65625 -15.078125 L 8.65625 -5.859375 C 8.65625 -5.128906 8.816406 -4.632812 9.140625 -4.375 C 9.472656 -4.125 9.90625 -4 10.4375 -4 C 10.6875 -4 10.9375 -4.019531 11.1875 -4.0625 C 11.4375 -4.101562 11.625 -4.140625 11.75 -4.171875 L 12.59375 -0.234375 C 12.320312 -0.148438 11.945312 -0.0546875 11.46875 0.046875 C 10.988281 0.160156 10.40625 0.234375 9.71875 0.265625 C 7.800781 0.347656 6.257812 -0.0664062 5.09375 -0.984375 C 3.9375 -1.898438 3.363281 -3.289062 3.375 -5.15625 L 3.375 -15.078125 L 0.765625 -15.078125 L 0.765625 -19.046875 L 3.375 -19.046875 L 3.375 -23.609375 L 8.65625 -23.609375 L 8.65625 -19.046875 Z M 12.234375 -19.046875 "/></g></g></g><g fill="#07a5c3" fill-opacity="1"><g transform="translate(199.227676, 204.205105)"><g><path d="M 10.796875 0.375 C 8.835938 0.375 7.148438 -0.0195312 5.734375 -0.8125 C 4.328125 -1.613281 3.242188 -2.75 2.484375 -4.21875 C 1.722656 -5.6875 1.34375 -7.425781 1.34375 -9.4375 C 1.34375 -11.394531 1.722656 -13.113281 2.484375 -14.59375 C 3.242188 -16.070312 4.316406 -17.222656 5.703125 -18.046875 C 7.085938 -18.878906 8.710938 -19.296875 10.578125 -19.296875 C 12.253906 -19.296875 13.769531 -18.9375 15.125 -18.21875 C 16.476562 -17.507812 17.550781 -16.4375 18.34375 -15 C 19.132812 -13.570312 19.53125 -11.78125 19.53125 -9.625 L 19.53125 -8.171875 L 6.5625 -8.171875 L 6.5625 -8.15625 C 6.5625 -6.738281 6.945312 -5.617188 7.71875 -4.796875 C 8.5 -3.984375 9.550781 -3.578125 10.875 -3.578125 C 11.757812 -3.578125 12.523438 -3.757812 13.171875 -4.125 C 13.816406 -4.5 14.269531 -5.050781 14.53125 -5.78125 L 19.421875 -5.453125 C 19.046875 -3.679688 18.101562 -2.265625 16.59375 -1.203125 C 15.082031 -0.148438 13.148438 0.375 10.796875 0.375 Z M 6.5625 -11.453125 L 14.5625 -11.453125 C 14.550781 -12.578125 14.1875 -13.507812 13.46875 -14.25 C 12.75 -14.988281 11.816406 -15.359375 10.671875 -15.359375 C 9.492188 -15.359375 8.523438 -14.976562 7.765625 -14.21875 C 7.015625 -13.457031 6.613281 -12.535156 6.5625 -11.453125 Z M 6.5625 -11.453125 "/></g></g></g><g fill="#07a5c3" fill-opacity="1"><g transform="translate(218.354426, 204.205105)"><g><path d="M 7.390625 -25.390625 L 7.390625 0 L 2.109375 0 L 2.109375 -25.390625 Z M 7.390625 -25.390625 "/></g></g></g><g fill="#07a5c3" fill-opacity="1"><g transform="translate(226.108072, 204.205105)"><g><path d="M 7.390625 -25.390625 L 7.390625 0 L 2.109375 0 L 2.109375 -25.390625 Z M 7.390625 -25.390625 "/></g></g></g><g fill="#07a5c3" fill-opacity="1"><g transform="translate(233.861718, 204.205105)"><g><path d="M 2.109375 0 L 2.109375 -19.046875 L 7.390625 -19.046875 L 7.390625 0 Z M 4.75 -21.5 C 3.976562 -21.5 3.3125 -21.757812 2.75 -22.28125 C 2.1875 -22.8125 1.90625 -23.445312 1.90625 -24.1875 C 1.90625 -24.914062 2.1875 -25.539062 2.75 -26.0625 C 3.3125 -26.582031 3.976562 -26.84375 4.75 -26.84375 C 5.539062 -26.84375 6.21875 -26.582031 6.78125 -26.0625 C 7.34375 -25.539062 7.625 -24.914062 7.625 -24.1875 C 7.625 -23.445312 7.34375 -22.8125 6.78125 -22.28125 C 6.21875 -21.757812 5.539062 -21.5 4.75 -21.5 Z M 4.75 -21.5 "/></g></g></g><g fill="#07a5c3" fill-opacity="1"><g transform="translate(241.615364, 204.205105)"><g><path d="M 10.6875 7.421875 C 8.125 7.421875 6.109375 6.914062 4.640625 5.90625 C 3.179688 4.894531 2.296875 3.671875 1.984375 2.234375 L 6.875 1.578125 C 7.082031 2.085938 7.5 2.554688 8.125 2.984375 C 8.75 3.410156 9.644531 3.625 10.8125 3.625 C 11.957031 3.625 12.90625 3.347656 13.65625 2.796875 C 14.40625 2.253906 14.78125 1.359375 14.78125 0.109375 L 14.78125 -3.375 L 14.5625 -3.375 C 14.207031 -2.582031 13.59375 -1.863281 12.71875 -1.21875 C 11.84375 -0.582031 10.644531 -0.265625 9.125 -0.265625 C 7.695312 -0.265625 6.394531 -0.597656 5.21875 -1.265625 C 4.050781 -1.941406 3.125 -2.96875 2.4375 -4.34375 C 1.75 -5.71875 1.40625 -7.457031 1.40625 -9.5625 C 1.40625 -11.726562 1.753906 -13.53125 2.453125 -14.96875 C 3.160156 -16.40625 4.097656 -17.484375 5.265625 -18.203125 C 6.441406 -18.929688 7.722656 -19.296875 9.109375 -19.296875 C 10.179688 -19.296875 11.078125 -19.113281 11.796875 -18.75 C 12.515625 -18.394531 13.097656 -17.953125 13.546875 -17.421875 C 13.992188 -16.890625 14.332031 -16.363281 14.5625 -15.84375 L 14.75 -15.84375 L 14.75 -19.046875 L 20 -19.046875 L 20 0.1875 C 20 1.757812 19.597656 3.082031 18.796875 4.15625 C 18.003906 5.238281 16.910156 6.050781 15.515625 6.59375 C 14.117188 7.144531 12.507812 7.421875 10.6875 7.421875 Z M 10.796875 -4.234375 C 12.078125 -4.234375 13.066406 -4.703125 13.765625 -5.640625 C 14.460938 -6.585938 14.8125 -7.90625 14.8125 -9.59375 C 14.8125 -11.257812 14.460938 -12.59375 13.765625 -13.59375 C 13.066406 -14.59375 12.078125 -15.09375 10.796875 -15.09375 C 9.492188 -15.09375 8.5 -14.578125 7.8125 -13.546875 C 7.132812 -12.523438 6.796875 -11.207031 6.796875 -9.59375 C 6.796875 -7.945312 7.140625 -6.640625 7.828125 -5.671875 C 8.515625 -4.710938 9.503906 -4.234375 10.796875 -4.234375 Z M 10.796875 -4.234375 "/></g></g></g><g fill="#07a5c3" fill-opacity="1"><g transform="translate(261.982374, 204.205105)"><g><path d="M 10.796875 0.375 C 8.835938 0.375 7.148438 -0.0195312 5.734375 -0.8125 C 4.328125 -1.613281 3.242188 -2.75 2.484375 -4.21875 C 1.722656 -5.6875 1.34375 -7.425781 1.34375 -9.4375 C 1.34375 -11.394531 1.722656 -13.113281 2.484375 -14.59375 C 3.242188 -16.070312 4.316406 -17.222656 5.703125 -18.046875 C 7.085938 -18.878906 8.710938 -19.296875 10.578125 -19.296875 C 12.253906 -19.296875 13.769531 -18.9375 15.125 -18.21875 C 16.476562 -17.507812 17.550781 -16.4375 18.34375 -15 C 19.132812 -13.570312 19.53125 -11.78125 19.53125 -9.625 L 19.53125 -8.171875 L 6.5625 -8.171875 L 6.5625 -8.15625 C 6.5625 -6.738281 6.945312 -5.617188 7.71875 -4.796875 C 8.5 -3.984375 9.550781 -3.578125 10.875 -3.578125 C 11.757812 -3.578125 12.523438 -3.757812 13.171875 -4.125 C 13.816406 -4.5 14.269531 -5.050781 14.53125 -5.78125 L 19.421875 -5.453125 C 19.046875 -3.679688 18.101562 -2.265625 16.59375 -1.203125 C 15.082031 -0.148438 13.148438 0.375 10.796875 0.375 Z M 6.5625 -11.453125 L 14.5625 -11.453125 C 14.550781 -12.578125 14.1875 -13.507812 13.46875 -14.25 C 12.75 -14.988281 11.816406 -15.359375 10.671875 -15.359375 C 9.492188 -15.359375 8.523438 -14.976562 7.765625 -14.21875 C 7.015625 -13.457031 6.613281 -12.535156 6.5625 -11.453125 Z M 6.5625 -11.453125 "/></g></g></g><g fill="#07a5c3" fill-opacity="1"><g transform="translate(281.10913, 204.205105)"><g><path d="M 7.390625 -11.015625 L 7.390625 0 L 2.109375 0 L 2.109375 -19.046875 L 7.140625 -19.046875 L 7.140625 -15.6875 L 7.359375 -15.6875 C 7.796875 -16.789062 8.503906 -17.664062 9.484375 -18.3125 C 10.472656 -18.96875 11.675781 -19.296875 13.09375 -19.296875 C 15.082031 -19.296875 16.675781 -18.65625 17.875 -17.375 C 19.070312 -16.101562 19.671875 -14.351562 19.671875 -12.125 L 19.671875 0 L 14.390625 0 L 14.390625 -11.1875 C 14.390625 -12.351562 14.085938 -13.265625 13.484375 -13.921875 C 12.890625 -14.578125 12.0625 -14.90625 11 -14.90625 C 9.9375 -14.90625 9.070312 -14.5625 8.40625 -13.875 C 7.738281 -13.195312 7.398438 -12.242188 7.390625 -11.015625 Z M 7.390625 -11.015625 "/></g></g></g><g fill="#07a5c3" fill-opacity="1"><g transform="translate(301.079254, 204.205105)"><g><path d="M 10.71875 0.375 C 8.757812 0.375 7.078125 -0.0390625 5.671875 -0.875 C 4.273438 -1.707031 3.203125 -2.863281 2.453125 -4.34375 C 1.710938 -5.820312 1.34375 -7.523438 1.34375 -9.453125 C 1.34375 -11.398438 1.71875 -13.109375 2.46875 -14.578125 C 3.226562 -16.054688 4.304688 -17.210938 5.703125 -18.046875 C 7.097656 -18.878906 8.757812 -19.296875 10.6875 -19.296875 C 12.351562 -19.296875 13.8125 -18.992188 15.0625 -18.390625 C 16.3125 -17.785156 17.296875 -16.9375 18.015625 -15.84375 C 18.742188 -14.757812 19.144531 -13.476562 19.21875 -12 L 14.234375 -12 C 14.097656 -12.957031 13.726562 -13.722656 13.125 -14.296875 C 12.53125 -14.878906 11.75 -15.171875 10.78125 -15.171875 C 9.550781 -15.171875 8.5625 -14.679688 7.8125 -13.703125 C 7.070312 -12.722656 6.703125 -11.332031 6.703125 -9.53125 C 6.703125 -7.707031 7.070312 -6.296875 7.8125 -5.296875 C 8.550781 -4.304688 9.539062 -3.8125 10.78125 -3.8125 C 11.6875 -3.8125 12.445312 -4.082031 13.0625 -4.625 C 13.6875 -5.175781 14.078125 -5.960938 14.234375 -6.984375 L 19.21875 -6.984375 C 19.132812 -5.523438 18.738281 -4.238281 18.03125 -3.125 C 17.332031 -2.019531 16.359375 -1.160156 15.109375 -0.546875 C 13.867188 0.0664062 12.40625 0.375 10.71875 0.375 Z M 10.71875 0.375 "/></g></g></g><g fill="#07a5c3" fill-opacity="1"><g transform="translate(319.846332, 204.205105)"><g><path d="M 10.796875 0.375 C 8.835938 0.375 7.148438 -0.0195312 5.734375 -0.8125 C 4.328125 -1.613281 3.242188 -2.75 2.484375 -4.21875 C 1.722656 -5.6875 1.34375 -7.425781 1.34375 -9.4375 C 1.34375 -11.394531 1.722656 -13.113281 2.484375 -14.59375 C 3.242188 -16.070312 4.316406 -17.222656 5.703125 -18.046875 C 7.085938 -18.878906 8.710938 -19.296875 10.578125 -19.296875 C 12.253906 -19.296875 13.769531 -18.9375 15.125 -18.21875 C 16.476562 -17.507812 17.550781 -16.4375 18.34375 -15 C 19.132812 -13.570312 19.53125 -11.78125 19.53125 -9.625 L 19.53125 -8.171875 L 6.5625 -8.171875 L 6.5625 -8.15625 C 6.5625 -6.738281 6.945312 -5.617188 7.71875 -4.796875 C 8.5 -3.984375 9.550781 -3.578125 10.875 -3.578125 C 11.757812 -3.578125 12.523438 -3.757812 13.171875 -4.125 C 13.816406 -4.5 14.269531 -5.050781 14.53125 -5.78125 L 19.421875 -5.453125 C 19.046875 -3.679688 18.101562 -2.265625 16.59375 -1.203125 C 15.082031 -0.148438 13.148438 0.375 10.796875 0.375 Z M 6.5625 -11.453125 L 14.5625 -11.453125 C 14.550781 -12.578125 14.1875 -13.507812 13.46875 -14.25 C 12.75 -14.988281 11.816406 -15.359375 10.671875 -15.359375 C 9.492188 -15.359375 8.523438 -14.976562 7.765625 -14.21875 C 7.015625 -13.457031 6.613281 -12.535156 6.5625 -11.453125 Z M 6.5625 -11.453125 "/></g></g></g></svg>