<svg xmlns="http://www.w3.org/2000/svg" xmlns:xlink="http://www.w3.org/1999/xlink" width="500" zoomAndPan="magnify" viewBox="0 0 375 262.499992" height="350" preserveAspectRatio="xMidYMid meet" version="1.0"><defs><filter x="0%" y="0%" width="100%" height="100%" id="ee48a1b2b0"><feColorMatrix values="0 0 0 0 1 0 0 0 0 1 0 0 0 0 1 0 0 0 1 0" color-interpolation-filters="sRGB"/></filter><g/><clipPath id="d8d8860d0a"><path d="M 0.355469 0 L 374.640625 0 L 374.640625 262 L 0.355469 262 Z M 0.355469 0 " clip-rule="nonzero"/></clipPath><mask id="b88aae0637"><g filter="url(#ee48a1b2b0)"><rect x="-37.5" width="450" fill="#000000" y="-26.249999" height="314.999991" fill-opacity="0.55"/></g></mask><clipPath id="f5a8588987"><rect x="0" width="173" y="0" height="179"/></clipPath></defs><g clip-path="url(#d8d8860d0a)"><path fill="#ffffff" d="M 0.355469 0 L 374.644531 0 L 374.644531 262 L 0.355469 262 Z M 0.355469 0 " fill-opacity="1" fill-rule="nonzero"/><path fill="#ffffff" d="M 0.355469 0 L 374.644531 0 L 374.644531 262 L 0.355469 262 Z M 0.355469 0 " fill-opacity="1" fill-rule="nonzero"/></g><g mask="url(#b88aae0637)"><g transform="matrix(1, 0, 0, 1, 26, 30)"><g clip-path="url(#f5a8588987)"><path fill="#f4b324" d="M 152.980469 57.253906 C 153.855469 53.769531 154.292969 50.230469 154.296875 46.636719 C 154.296875 45.449219 154.25 44.261719 154.15625 43.074219 C 154.058594 41.890625 153.917969 40.710938 153.726562 39.539062 C 153.539062 38.363281 153.300781 37.199219 153.019531 36.046875 C 152.734375 34.890625 152.40625 33.75 152.03125 32.621094 C 151.65625 31.492188 151.234375 30.382812 150.769531 29.285156 C 150.304688 28.191406 149.796875 27.117188 149.246094 26.066406 C 148.695312 25.011719 148.105469 23.980469 147.46875 22.976562 C 146.835938 21.96875 146.164062 20.992188 145.453125 20.039062 C 144.738281 19.085938 143.988281 18.164062 143.203125 17.273438 C 142.417969 16.382812 141.59375 15.523438 140.738281 14.699219 C 139.882812 13.871094 138.996094 13.082031 138.078125 12.328125 C 137.160156 11.574219 136.210938 10.859375 135.234375 10.179688 C 134.257812 9.5 133.253906 8.863281 132.226562 8.265625 C 131.199219 7.667969 130.148438 7.113281 129.074219 6.601562 C 128.003906 6.089844 126.910156 5.621094 125.800781 5.195312 C 124.691406 4.769531 123.566406 4.390625 122.425781 4.054688 C 121.285156 3.71875 120.132812 3.429688 118.96875 3.191406 C 117.804688 2.949219 116.632812 2.753906 115.453125 2.605469 C 114.273438 2.457031 113.085938 2.355469 111.898438 2.304688 C 110.710938 2.253906 109.523438 2.246094 108.335938 2.289062 C 107.148438 2.332031 105.964844 2.425781 104.78125 2.5625 C 103.601562 2.699219 102.429688 2.886719 101.261719 3.117188 C 100.097656 3.351562 98.941406 3.628906 97.796875 3.957031 C 96.65625 4.28125 95.527344 4.652344 94.410156 5.070312 C 93.296875 5.484375 92.203125 5.945312 91.125 6.449219 C 90.050781 6.953125 88.996094 7.5 87.960938 8.089844 C 86.929688 8.679688 85.921875 9.308594 84.941406 9.980469 C 83.957031 10.648438 83.003906 11.359375 82.078125 12.105469 C 81.152344 12.851562 80.261719 13.632812 79.398438 14.453125 C 78.535156 15.273438 77.707031 16.125 76.914062 17.007812 C 76.121094 17.894531 75.363281 18.808594 74.644531 19.757812 C 73.925781 20.703125 73.242188 21.675781 72.601562 22.675781 C 71.976562 22.378906 71.34375 22.097656 70.703125 21.839844 C 70.0625 21.578125 69.414062 21.339844 68.753906 21.121094 C 68.097656 20.902344 67.4375 20.707031 66.765625 20.527344 C 66.097656 20.351562 65.421875 20.195312 64.742188 20.0625 C 64.066406 19.929688 63.382812 19.816406 62.695312 19.726562 C 62.011719 19.632812 61.320312 19.566406 60.632812 19.515625 C 59.941406 19.46875 59.25 19.445312 58.558594 19.441406 C 57.863281 19.4375 57.171875 19.453125 56.484375 19.492188 C 55.792969 19.53125 55.101562 19.59375 54.414062 19.675781 C 53.726562 19.761719 53.042969 19.867188 52.363281 19.992188 C 51.683594 20.117188 51.007812 20.265625 50.335938 20.433594 C 49.664062 20.605469 49 20.792969 48.339844 21.003906 C 47.679688 21.214844 47.03125 21.445312 46.386719 21.699219 C 45.738281 21.953125 45.105469 22.222656 44.476562 22.515625 C 43.847656 22.808594 43.230469 23.121094 42.625 23.449219 C 42.015625 23.78125 41.417969 24.132812 40.832031 24.5 C 40.25 24.871094 39.675781 25.257812 39.113281 25.660156 C 38.550781 26.066406 38.003906 26.488281 37.46875 26.929688 C 36.933594 27.367188 36.414062 27.824219 35.910156 28.296875 C 35.402344 28.769531 34.914062 29.257812 34.4375 29.761719 C 33.960938 30.265625 33.503906 30.78125 33.0625 31.3125 C 32.617188 31.847656 32.195312 32.390625 31.785156 32.953125 C 31.378906 33.511719 30.988281 34.082031 30.617188 34.664062 C 30.246094 35.25 29.890625 35.84375 29.558594 36.449219 C 29.222656 37.054688 28.90625 37.671875 28.613281 38.296875 C 28.316406 38.925781 28.042969 39.558594 27.785156 40.203125 C 27.53125 40.847656 27.296875 41.496094 27.082031 42.15625 C 26.867188 42.8125 26.671875 43.476562 26.5 44.148438 C 26.328125 44.816406 26.179688 45.492188 26.046875 46.171875 C 25.917969 46.851562 25.808594 47.535156 25.722656 48.222656 C 25.636719 48.910156 25.570312 49.597656 25.527344 50.289062 C 25.484375 50.980469 25.464844 51.671875 25.464844 52.363281 C 25.464844 53.351562 25.515625 54.355469 25.617188 55.367188 C 24.6875 55.65625 23.773438 55.988281 22.875 56.359375 C 21.972656 56.734375 21.09375 57.144531 20.230469 57.59375 C 19.367188 58.042969 18.527344 58.53125 17.707031 59.058594 C 16.886719 59.582031 16.09375 60.144531 15.324219 60.738281 C 14.550781 61.335938 13.8125 61.960938 13.097656 62.625 C 12.382812 63.285156 11.699219 63.976562 11.046875 64.699219 C 10.394531 65.421875 9.773438 66.171875 9.1875 66.949219 C 8.601562 67.726562 8.050781 68.527344 7.539062 69.351562 C 7.023438 70.179688 6.546875 71.027344 6.105469 71.894531 C 5.667969 72.761719 5.265625 73.648438 4.90625 74.554688 C 4.542969 75.457031 4.222656 76.375 3.945312 77.308594 C 3.664062 78.238281 3.425781 79.183594 3.230469 80.136719 C 3.035156 81.089844 2.882812 82.050781 2.773438 83.015625 C 2.660156 83.984375 2.59375 84.953125 2.570312 85.925781 C 2.546875 86.898438 2.5625 87.871094 2.625 88.84375 C 2.6875 89.8125 2.792969 90.78125 2.941406 91.742188 C 3.089844 92.707031 3.277344 93.660156 3.511719 94.605469 C 3.742188 95.550781 4.015625 96.480469 4.332031 97.402344 C 4.648438 98.324219 5.003906 99.230469 5.398438 100.117188 C 5.792969 101.007812 6.226562 101.878906 6.699219 102.726562 C 7.171875 103.578125 7.683594 104.40625 8.230469 105.210938 C 8.773438 106.019531 9.355469 106.796875 9.972656 107.550781 C 10.585938 108.304688 11.234375 109.03125 11.914062 109.726562 C 12.59375 110.425781 13.304688 111.089844 14.042969 111.722656 C 14.78125 112.355469 15.546875 112.957031 16.339844 113.519531 C 17.132812 114.085938 17.949219 114.617188 18.785156 115.109375 C 19.625 115.601562 20.484375 116.058594 21.363281 116.472656 C 22.246094 116.890625 23.140625 117.265625 24.054688 117.605469 C 24.964844 117.941406 25.894531 118.238281 26.832031 118.492188 C 27.769531 118.746094 28.71875 118.960938 29.679688 119.132812 C 30.636719 119.300781 31.601562 119.429688 32.570312 119.515625 C 33.539062 119.601562 34.511719 119.644531 35.484375 119.640625 L 71.269531 119.640625 L 71.269531 156.515625 L 61.421875 146.667969 L 55.351562 152.738281 L 75.566406 172.949219 L 95.777344 152.738281 L 89.707031 146.667969 L 79.859375 156.515625 L 79.859375 111.054688 L 35.484375 111.054688 C 34.730469 111.054688 33.980469 111.019531 33.234375 110.953125 C 32.484375 110.882812 31.742188 110.78125 31 110.640625 C 30.261719 110.503906 29.53125 110.332031 28.808594 110.128906 C 28.082031 109.921875 27.371094 109.683594 26.671875 109.410156 C 25.96875 109.140625 25.28125 108.835938 24.609375 108.5 C 23.9375 108.164062 23.28125 107.796875 22.640625 107.402344 C 22.003906 107.007812 21.382812 106.582031 20.785156 106.125 C 20.183594 105.671875 19.605469 105.191406 19.050781 104.683594 C 18.496094 104.175781 17.964844 103.644531 17.460938 103.089844 C 16.957031 102.53125 16.476562 101.953125 16.023438 101.351562 C 15.574219 100.75 15.148438 100.128906 14.757812 99.488281 C 14.363281 98.847656 14 98.191406 13.664062 97.515625 C 13.332031 96.84375 13.03125 96.15625 12.761719 95.453125 C 12.492188 94.75 12.257812 94.039062 12.054688 93.3125 C 11.851562 92.589844 11.679688 91.859375 11.546875 91.117188 C 11.410156 90.378906 11.308594 89.632812 11.246094 88.886719 C 11.179688 88.136719 11.148438 87.386719 11.152344 86.632812 C 11.15625 85.882812 11.191406 85.132812 11.265625 84.382812 C 11.339844 83.632812 11.449219 82.890625 11.589844 82.152344 C 11.730469 81.414062 11.910156 80.683594 12.117188 79.960938 C 12.328125 79.238281 12.570312 78.527344 12.847656 77.828125 C 13.125 77.128906 13.433594 76.445312 13.773438 75.773438 C 14.109375 75.101562 14.480469 74.449219 14.882812 73.8125 C 15.28125 73.175781 15.710938 72.558594 16.167969 71.964844 C 16.625 71.367188 17.109375 70.792969 17.621094 70.242188 C 18.132812 69.6875 18.667969 69.160156 19.226562 68.660156 C 19.789062 68.15625 20.371094 67.683594 20.972656 67.234375 C 21.578125 66.785156 22.199219 66.367188 22.84375 65.976562 C 23.488281 65.585938 24.144531 65.226562 24.820312 64.898438 C 25.5 64.570312 26.1875 64.273438 26.890625 64.007812 C 27.597656 63.742188 28.308594 63.511719 29.035156 63.3125 C 29.761719 63.113281 30.492188 62.949219 31.234375 62.820312 L 35.652344 62.035156 C 34.765625 58.871094 34.234375 55.644531 34.054688 52.363281 C 34.054688 51.566406 34.09375 50.769531 34.171875 49.980469 C 34.25 49.1875 34.367188 48.398438 34.523438 47.617188 C 34.679688 46.835938 34.875 46.0625 35.105469 45.300781 C 35.339844 44.539062 35.605469 43.789062 35.910156 43.054688 C 36.21875 42.320312 36.558594 41.597656 36.933594 40.898438 C 37.308594 40.195312 37.71875 39.511719 38.160156 38.847656 C 38.605469 38.1875 39.078125 37.546875 39.585938 36.933594 C 40.089844 36.316406 40.625 35.726562 41.1875 35.164062 C 41.75 34.601562 42.339844 34.066406 42.957031 33.558594 C 43.574219 33.054688 44.210938 32.578125 44.875 32.136719 C 45.535156 31.695312 46.21875 31.285156 46.921875 30.910156 C 47.625 30.53125 48.34375 30.191406 49.078125 29.886719 C 49.816406 29.582031 50.5625 29.3125 51.328125 29.082031 C 52.089844 28.851562 52.859375 28.65625 53.640625 28.5 C 54.421875 28.34375 55.210938 28.226562 56.003906 28.148438 C 56.796875 28.070312 57.589844 28.027344 58.386719 28.027344 C 61.570312 28.246094 64.648438 28.925781 67.625 30.074219 C 70.601562 31.222656 73.34375 32.789062 75.84375 34.765625 L 78.03125 30.464844 C 78.480469 29.578125 78.96875 28.707031 79.492188 27.859375 C 80.011719 27.011719 80.570312 26.183594 81.160156 25.382812 C 81.753906 24.582031 82.378906 23.804688 83.035156 23.054688 C 83.691406 22.304688 84.378906 21.585938 85.09375 20.890625 C 85.8125 20.199219 86.554688 19.539062 87.328125 18.90625 C 88.101562 18.277344 88.898438 17.679688 89.71875 17.117188 C 90.542969 16.554688 91.386719 16.023438 92.25 15.53125 C 93.117188 15.039062 94.003906 14.582031 94.90625 14.164062 C 95.8125 13.746094 96.730469 13.363281 97.667969 13.023438 C 98.605469 12.679688 99.554688 12.378906 100.515625 12.113281 C 101.476562 11.851562 102.445312 11.628906 103.425781 11.449219 C 104.40625 11.265625 105.390625 11.125 106.382812 11.027344 C 107.375 10.929688 108.371094 10.871094 109.367188 10.855469 C 110.363281 10.839844 111.359375 10.863281 112.351562 10.929688 C 113.347656 11 114.335938 11.105469 115.324219 11.257812 C 116.308594 11.40625 117.285156 11.597656 118.253906 11.828125 C 119.222656 12.058594 120.183594 12.332031 121.128906 12.644531 C 122.074219 12.957031 123.007812 13.304688 123.925781 13.695312 C 124.84375 14.085938 125.742188 14.511719 126.625 14.976562 C 127.503906 15.441406 128.367188 15.945312 129.207031 16.480469 C 130.046875 17.015625 130.859375 17.589844 131.652344 18.191406 C 132.445312 18.796875 133.210938 19.433594 133.949219 20.105469 C 134.6875 20.773438 135.398438 21.472656 136.078125 22.199219 C 136.757812 22.929688 137.40625 23.683594 138.023438 24.464844 C 138.640625 25.25 139.226562 26.054688 139.773438 26.886719 C 140.324219 27.71875 140.839844 28.570312 141.316406 29.445312 C 141.796875 30.320312 142.238281 31.214844 142.640625 32.125 C 143.042969 33.035156 143.410156 33.960938 143.734375 34.902344 C 144.0625 35.84375 144.347656 36.800781 144.59375 37.765625 C 144.84375 38.730469 145.046875 39.707031 145.214844 40.6875 C 145.378906 41.671875 145.5 42.660156 145.585938 43.652344 C 145.667969 44.644531 145.707031 45.640625 145.707031 46.636719 C 145.453125 52.085938 144.316406 57.339844 142.296875 62.40625 L 146.371094 63.804688 C 147.726562 64.257812 149.03125 64.832031 150.28125 65.519531 C 151.535156 66.203125 152.71875 66.996094 153.832031 67.890625 C 154.945312 68.789062 155.972656 69.773438 156.910156 70.851562 C 157.847656 71.925781 158.6875 73.078125 159.421875 74.304688 C 160.15625 75.527344 160.78125 76.808594 161.289062 78.144531 C 161.796875 79.476562 162.1875 80.847656 162.453125 82.25 C 162.722656 83.652344 162.863281 85.070312 162.882812 86.5 C 162.898438 87.925781 162.792969 89.347656 162.558594 90.753906 C 162.324219 92.164062 161.96875 93.542969 161.492188 94.890625 C 161.015625 96.238281 160.425781 97.53125 159.71875 98.773438 C 159.011719 100.015625 158.203125 101.1875 157.292969 102.285156 C 156.378906 103.386719 155.378906 104.398438 154.285156 105.320312 C 153.195312 106.242188 152.03125 107.0625 150.796875 107.777344 C 149.558594 108.496094 148.269531 109.097656 146.929688 109.585938 C 145.585938 110.078125 144.210938 110.445312 142.804688 110.691406 C 141.398438 110.9375 139.980469 111.058594 138.550781 111.054688 L 102.761719 111.054688 L 102.761719 74.179688 L 112.613281 84.03125 L 118.679688 77.957031 L 98.46875 57.746094 L 78.257812 77.957031 L 84.324219 84.027344 L 94.175781 74.179688 L 94.175781 119.640625 L 138.550781 119.640625 C 139.472656 119.644531 140.390625 119.609375 141.308594 119.53125 C 142.226562 119.457031 143.140625 119.34375 144.050781 119.191406 C 144.960938 119.039062 145.859375 118.847656 146.753906 118.621094 C 147.644531 118.394531 148.527344 118.128906 149.398438 117.824219 C 150.269531 117.523438 151.125 117.183594 151.964844 116.8125 C 152.808594 116.4375 153.632812 116.027344 154.441406 115.585938 C 155.25 115.140625 156.035156 114.664062 156.804688 114.152344 C 157.570312 113.644531 158.316406 113.101562 159.039062 112.53125 C 159.757812 111.957031 160.457031 111.355469 161.128906 110.722656 C 161.796875 110.09375 162.441406 109.433594 163.058594 108.75 C 163.671875 108.0625 164.257812 107.355469 164.816406 106.617188 C 165.371094 105.882812 165.894531 105.128906 166.386719 104.347656 C 166.878906 103.570312 167.339844 102.773438 167.765625 101.953125 C 168.191406 101.136719 168.578125 100.300781 168.933594 99.453125 C 169.289062 98.601562 169.609375 97.738281 169.890625 96.859375 C 170.171875 95.984375 170.417969 95.097656 170.625 94.199219 C 170.832031 93.300781 171.003906 92.394531 171.132812 91.484375 C 171.265625 90.574219 171.359375 89.65625 171.414062 88.738281 C 171.46875 87.816406 171.484375 86.894531 171.460938 85.976562 C 171.4375 85.054688 171.375 84.136719 171.273438 83.21875 C 171.175781 82.304688 171.035156 81.394531 170.859375 80.488281 C 170.683594 79.585938 170.46875 78.691406 170.214844 77.804688 C 169.960938 76.917969 169.671875 76.042969 169.347656 75.179688 C 169.023438 74.320312 168.660156 73.472656 168.261719 72.640625 C 167.867188 71.808594 167.433594 70.996094 166.96875 70.203125 C 166.503906 69.40625 166.003906 68.632812 165.472656 67.878906 C 164.945312 67.125 164.382812 66.394531 163.789062 65.691406 C 163.199219 64.984375 162.578125 64.304688 161.925781 63.652344 C 161.277344 62.996094 160.601562 62.371094 159.902344 61.773438 C 159.199219 61.179688 158.472656 60.613281 157.722656 60.074219 C 156.972656 59.539062 156.203125 59.035156 155.410156 58.566406 C 154.617188 58.09375 153.808594 57.660156 152.980469 57.253906 Z M 152.980469 57.253906 " fill-opacity="1" fill-rule="nonzero"/></g></g></g><g fill="#07a5c3" fill-opacity="1"><g transform="translate(155.224869, 164.436784)"><g><path d="M 24.609375 -16.5 L 19.1875 -16.5 C 18.976562 -17.90625 18.378906 -19.003906 17.390625 -19.796875 C 16.410156 -20.597656 15.1875 -21 13.71875 -21 C 11.75 -21 10.171875 -20.273438 8.984375 -18.828125 C 7.796875 -17.390625 7.203125 -15.347656 7.203125 -12.703125 C 7.203125 -9.984375 7.800781 -7.921875 9 -6.515625 C 10.195312 -5.109375 11.753906 -4.40625 13.671875 -4.40625 C 15.109375 -4.40625 16.320312 -4.773438 17.3125 -5.515625 C 18.300781 -6.265625 18.925781 -7.320312 19.1875 -8.6875 L 24.609375 -8.65625 C 24.421875 -7.101562 23.867188 -5.640625 22.953125 -4.265625 C 22.035156 -2.890625 20.789062 -1.773438 19.21875 -0.921875 C 17.644531 -0.078125 15.769531 0.34375 13.59375 0.34375 C 11.320312 0.34375 9.296875 -0.164062 7.515625 -1.1875 C 5.734375 -2.21875 4.328125 -3.703125 3.296875 -5.640625 C 2.273438 -7.585938 1.765625 -9.941406 1.765625 -12.703125 C 1.765625 -15.472656 2.285156 -17.828125 3.328125 -19.765625 C 4.367188 -21.710938 5.78125 -23.195312 7.5625 -24.21875 C 9.351562 -25.238281 11.363281 -25.75 13.59375 -25.75 C 15.550781 -25.75 17.316406 -25.382812 18.890625 -24.65625 C 20.460938 -23.9375 21.75 -22.882812 22.75 -21.5 C 23.757812 -20.125 24.378906 -18.457031 24.609375 -16.5 Z M 24.609375 -16.5 "/></g></g></g><g fill="#07a5c3" fill-opacity="1"><g transform="translate(179.746725, 164.436784)"><g><path d="M 7.390625 -25.390625 L 7.390625 0 L 2.109375 0 L 2.109375 -25.390625 Z M 7.390625 -25.390625 "/></g></g></g><g fill="#07a5c3" fill-opacity="1"><g transform="translate(187.500376, 164.436784)"><g><path d="M 10.71875 0.375 C 8.789062 0.375 7.125 -0.0351562 5.71875 -0.859375 C 4.320312 -1.679688 3.242188 -2.828125 2.484375 -4.296875 C 1.722656 -5.773438 1.34375 -7.492188 1.34375 -9.453125 C 1.34375 -11.421875 1.722656 -13.140625 2.484375 -14.609375 C 3.242188 -16.085938 4.320312 -17.238281 5.71875 -18.0625 C 7.125 -18.882812 8.789062 -19.296875 10.71875 -19.296875 C 12.644531 -19.296875 14.304688 -18.882812 15.703125 -18.0625 C 17.109375 -17.238281 18.191406 -16.085938 18.953125 -14.609375 C 19.710938 -13.140625 20.09375 -11.421875 20.09375 -9.453125 C 20.09375 -7.492188 19.710938 -5.773438 18.953125 -4.296875 C 18.191406 -2.828125 17.109375 -1.679688 15.703125 -0.859375 C 14.304688 -0.0351562 12.644531 0.375 10.71875 0.375 Z M 10.734375 -3.71875 C 12.046875 -3.71875 13.035156 -4.265625 13.703125 -5.359375 C 14.378906 -6.453125 14.71875 -7.828125 14.71875 -9.484375 C 14.71875 -11.148438 14.378906 -12.53125 13.703125 -13.625 C 13.035156 -14.71875 12.046875 -15.265625 10.734375 -15.265625 C 9.410156 -15.265625 8.40625 -14.71875 7.71875 -13.625 C 7.039062 -12.53125 6.703125 -11.148438 6.703125 -9.484375 C 6.703125 -7.828125 7.039062 -6.453125 7.71875 -5.359375 C 8.40625 -4.265625 9.410156 -3.71875 10.734375 -3.71875 Z M 10.734375 -3.71875 "/></g></g></g><g fill="#07a5c3" fill-opacity="1"><g transform="translate(207.18525, 164.436784)"><g><path d="M 14.328125 -8.109375 L 14.328125 -19.046875 L 19.609375 -19.046875 L 19.609375 0 L 14.53125 0 L 14.53125 -3.453125 L 14.34375 -3.453125 C 13.90625 -2.335938 13.1875 -1.441406 12.1875 -0.765625 C 11.195312 -0.0859375 9.988281 0.25 8.5625 0.25 C 6.644531 0.25 5.09375 -0.382812 3.90625 -1.65625 C 2.71875 -2.9375 2.117188 -4.691406 2.109375 -6.921875 L 2.109375 -19.046875 L 7.390625 -19.046875 L 7.390625 -7.859375 C 7.398438 -6.734375 7.703125 -5.84375 8.296875 -5.1875 C 8.890625 -4.539062 9.6875 -4.21875 10.6875 -4.21875 C 11.632812 -4.21875 12.476562 -4.546875 13.21875 -5.203125 C 13.96875 -5.867188 14.335938 -6.835938 14.328125 -8.109375 Z M 14.328125 -8.109375 "/></g></g></g><g fill="#07a5c3" fill-opacity="1"><g transform="translate(227.155386, 164.436784)"><g><path d="M 9.125 0.3125 C 7.675781 0.3125 6.367188 -0.0625 5.203125 -0.8125 C 4.035156 -1.5625 3.109375 -2.664062 2.421875 -4.125 C 1.742188 -5.582031 1.40625 -7.375 1.40625 -9.5 C 1.40625 -11.675781 1.753906 -13.488281 2.453125 -14.9375 C 3.160156 -16.394531 4.097656 -17.484375 5.265625 -18.203125 C 6.441406 -18.929688 7.722656 -19.296875 9.109375 -19.296875 C 10.179688 -19.296875 11.070312 -19.113281 11.78125 -18.75 C 12.5 -18.394531 13.078125 -17.953125 13.515625 -17.421875 C 13.960938 -16.890625 14.300781 -16.363281 14.53125 -15.84375 L 14.703125 -15.84375 L 14.703125 -25.390625 L 19.96875 -25.390625 L 19.96875 0 L 14.75 0 L 14.75 -3.046875 L 14.53125 -3.046875 C 14.289062 -2.515625 13.941406 -1.988281 13.484375 -1.46875 C 13.035156 -0.957031 12.453125 -0.53125 11.734375 -0.1875 C 11.023438 0.144531 10.15625 0.3125 9.125 0.3125 Z M 10.796875 -3.890625 C 12.078125 -3.890625 13.066406 -4.40625 13.765625 -5.4375 C 14.460938 -6.46875 14.8125 -7.832031 14.8125 -9.53125 C 14.8125 -11.226562 14.460938 -12.578125 13.765625 -13.578125 C 13.066406 -14.585938 12.078125 -15.09375 10.796875 -15.09375 C 9.492188 -15.09375 8.5 -14.578125 7.8125 -13.546875 C 7.132812 -12.515625 6.796875 -11.175781 6.796875 -9.53125 C 6.796875 -7.863281 7.140625 -6.503906 7.828125 -5.453125 C 8.515625 -4.410156 9.503906 -3.890625 10.796875 -3.890625 Z M 10.796875 -3.890625 "/></g></g></g><g fill="#07a5c3" fill-opacity="1"><g transform="translate(155.224869, 198.871192)"><g><path d="M 24.609375 -16.5 L 19.1875 -16.5 C 18.976562 -17.90625 18.378906 -19.003906 17.390625 -19.796875 C 16.410156 -20.597656 15.1875 -21 13.71875 -21 C 11.75 -21 10.171875 -20.273438 8.984375 -18.828125 C 7.796875 -17.390625 7.203125 -15.347656 7.203125 -12.703125 C 7.203125 -9.984375 7.800781 -7.921875 9 -6.515625 C 10.195312 -5.109375 11.753906 -4.40625 13.671875 -4.40625 C 15.109375 -4.40625 16.320312 -4.773438 17.3125 -5.515625 C 18.300781 -6.265625 18.925781 -7.320312 19.1875 -8.6875 L 24.609375 -8.65625 C 24.421875 -7.101562 23.867188 -5.640625 22.953125 -4.265625 C 22.035156 -2.890625 20.789062 -1.773438 19.21875 -0.921875 C 17.644531 -0.078125 15.769531 0.34375 13.59375 0.34375 C 11.320312 0.34375 9.296875 -0.164062 7.515625 -1.1875 C 5.734375 -2.21875 4.328125 -3.703125 3.296875 -5.640625 C 2.273438 -7.585938 1.765625 -9.941406 1.765625 -12.703125 C 1.765625 -15.472656 2.285156 -17.828125 3.328125 -19.765625 C 4.367188 -21.710938 5.78125 -23.195312 7.5625 -24.21875 C 9.351562 -25.238281 11.363281 -25.75 13.59375 -25.75 C 15.550781 -25.75 17.316406 -25.382812 18.890625 -24.65625 C 20.460938 -23.9375 21.75 -22.882812 22.75 -21.5 C 23.757812 -20.125 24.378906 -18.457031 24.609375 -16.5 Z M 24.609375 -16.5 "/></g></g></g><g fill="#07a5c3" fill-opacity="1"><g transform="translate(179.746725, 198.871192)"><g><path d="M 10.71875 0.375 C 8.789062 0.375 7.125 -0.0351562 5.71875 -0.859375 C 4.320312 -1.679688 3.242188 -2.828125 2.484375 -4.296875 C 1.722656 -5.773438 1.34375 -7.492188 1.34375 -9.453125 C 1.34375 -11.421875 1.722656 -13.140625 2.484375 -14.609375 C 3.242188 -16.085938 4.320312 -17.238281 5.71875 -18.0625 C 7.125 -18.882812 8.789062 -19.296875 10.71875 -19.296875 C 12.644531 -19.296875 14.304688 -18.882812 15.703125 -18.0625 C 17.109375 -17.238281 18.191406 -16.085938 18.953125 -14.609375 C 19.710938 -13.140625 20.09375 -11.421875 20.09375 -9.453125 C 20.09375 -7.492188 19.710938 -5.773438 18.953125 -4.296875 C 18.191406 -2.828125 17.109375 -1.679688 15.703125 -0.859375 C 14.304688 -0.0351562 12.644531 0.375 10.71875 0.375 Z M 10.734375 -3.71875 C 12.046875 -3.71875 13.035156 -4.265625 13.703125 -5.359375 C 14.378906 -6.453125 14.71875 -7.828125 14.71875 -9.484375 C 14.71875 -11.148438 14.378906 -12.53125 13.703125 -13.625 C 13.035156 -14.71875 12.046875 -15.265625 10.734375 -15.265625 C 9.410156 -15.265625 8.40625 -14.71875 7.71875 -13.625 C 7.039062 -12.53125 6.703125 -11.148438 6.703125 -9.484375 C 6.703125 -7.828125 7.039062 -6.453125 7.71875 -5.359375 C 8.40625 -4.265625 9.410156 -3.71875 10.734375 -3.71875 Z M 10.734375 -3.71875 "/></g></g></g><g fill="#07a5c3" fill-opacity="1"><g transform="translate(199.431599, 198.871192)"><g><path d="M 2.109375 0 L 2.109375 -19.046875 L 7.140625 -19.046875 L 7.140625 -15.6875 L 7.359375 -15.6875 C 7.765625 -16.8125 8.429688 -17.691406 9.359375 -18.328125 C 10.285156 -18.972656 11.390625 -19.296875 12.671875 -19.296875 C 13.984375 -19.296875 15.097656 -18.96875 16.015625 -18.3125 C 16.929688 -17.664062 17.539062 -16.789062 17.84375 -15.6875 L 18.046875 -15.6875 C 18.429688 -16.78125 19.132812 -17.65625 20.15625 -18.3125 C 21.175781 -18.96875 22.382812 -19.296875 23.78125 -19.296875 C 25.5625 -19.296875 27.003906 -18.726562 28.109375 -17.59375 C 29.222656 -16.46875 29.78125 -14.875 29.78125 -12.8125 L 29.78125 0 L 24.515625 0 L 24.515625 -11.765625 C 24.515625 -12.828125 24.234375 -13.617188 23.671875 -14.140625 C 23.109375 -14.671875 22.40625 -14.9375 21.5625 -14.9375 C 20.601562 -14.9375 19.851562 -14.628906 19.3125 -14.015625 C 18.78125 -13.410156 18.515625 -12.613281 18.515625 -11.625 L 18.515625 0 L 13.390625 0 L 13.390625 -11.875 C 13.390625 -12.8125 13.125 -13.554688 12.59375 -14.109375 C 12.0625 -14.660156 11.359375 -14.9375 10.484375 -14.9375 C 9.609375 -14.9375 8.875 -14.613281 8.28125 -13.96875 C 7.6875 -13.332031 7.390625 -12.488281 7.390625 -11.4375 L 7.390625 0 Z M 2.109375 0 "/></g></g></g><g fill="#07a5c3" fill-opacity="1"><g transform="translate(229.534589, 198.871192)"><g><path d="M 2.109375 7.140625 L 2.109375 -19.046875 L 7.3125 -19.046875 L 7.3125 -15.84375 L 7.546875 -15.84375 C 7.785156 -16.363281 8.125 -16.890625 8.5625 -17.421875 C 9.007812 -17.953125 9.59375 -18.394531 10.3125 -18.75 C 11.03125 -19.113281 11.914062 -19.296875 12.96875 -19.296875 C 14.363281 -19.296875 15.644531 -18.929688 16.8125 -18.203125 C 17.976562 -17.484375 18.914062 -16.394531 19.625 -14.9375 C 20.332031 -13.488281 20.6875 -11.675781 20.6875 -9.5 C 20.6875 -7.375 20.34375 -5.582031 19.65625 -4.125 C 18.96875 -2.664062 18.039062 -1.5625 16.875 -0.8125 C 15.707031 -0.0625 14.398438 0.3125 12.953125 0.3125 C 11.929688 0.3125 11.0625 0.144531 10.34375 -0.1875 C 9.632812 -0.53125 9.050781 -0.957031 8.59375 -1.46875 C 8.144531 -1.988281 7.796875 -2.515625 7.546875 -3.046875 L 7.390625 -3.046875 L 7.390625 7.140625 Z M 7.28125 -9.53125 C 7.28125 -7.832031 7.628906 -6.46875 8.328125 -5.4375 C 9.023438 -4.40625 10.007812 -3.890625 11.28125 -3.890625 C 12.582031 -3.890625 13.578125 -4.410156 14.265625 -5.453125 C 14.953125 -6.503906 15.296875 -7.863281 15.296875 -9.53125 C 15.296875 -11.175781 14.953125 -12.515625 14.265625 -13.546875 C 13.585938 -14.578125 12.59375 -15.09375 11.28125 -15.09375 C 10 -15.09375 9.007812 -14.585938 8.3125 -13.578125 C 7.625 -12.578125 7.28125 -11.226562 7.28125 -9.53125 Z M 7.28125 -9.53125 "/></g></g></g><g fill="#07a5c3" fill-opacity="1"><g transform="translate(249.876795, 198.871192)"><g><path d="M 14.328125 -8.109375 L 14.328125 -19.046875 L 19.609375 -19.046875 L 19.609375 0 L 14.53125 0 L 14.53125 -3.453125 L 14.34375 -3.453125 C 13.90625 -2.335938 13.1875 -1.441406 12.1875 -0.765625 C 11.195312 -0.0859375 9.988281 0.25 8.5625 0.25 C 6.644531 0.25 5.09375 -0.382812 3.90625 -1.65625 C 2.71875 -2.9375 2.117188 -4.691406 2.109375 -6.921875 L 2.109375 -19.046875 L 7.390625 -19.046875 L 7.390625 -7.859375 C 7.398438 -6.734375 7.703125 -5.84375 8.296875 -5.1875 C 8.890625 -4.539062 9.6875 -4.21875 10.6875 -4.21875 C 11.632812 -4.21875 12.476562 -4.546875 13.21875 -5.203125 C 13.96875 -5.867188 14.335938 -6.835938 14.328125 -8.109375 Z M 14.328125 -8.109375 "/></g></g></g><g fill="#07a5c3" fill-opacity="1"><g transform="translate(269.846931, 198.871192)"><g><path d="M 12.234375 -19.046875 L 12.234375 -15.078125 L 8.65625 -15.078125 L 8.65625 -5.859375 C 8.65625 -5.128906 8.816406 -4.632812 9.140625 -4.375 C 9.472656 -4.125 9.90625 -4 10.4375 -4 C 10.6875 -4 10.9375 -4.019531 11.1875 -4.0625 C 11.4375 -4.101562 11.625 -4.140625 11.75 -4.171875 L 12.59375 -0.234375 C 12.320312 -0.148438 11.945312 -0.0546875 11.46875 0.046875 C 10.988281 0.160156 10.40625 0.234375 9.71875 0.265625 C 7.800781 0.347656 6.257812 -0.0664062 5.09375 -0.984375 C 3.9375 -1.898438 3.363281 -3.289062 3.375 -5.15625 L 3.375 -15.078125 L 0.765625 -15.078125 L 0.765625 -19.046875 L 3.375 -19.046875 L 3.375 -23.609375 L 8.65625 -23.609375 L 8.65625 -19.046875 Z M 12.234375 -19.046875 "/></g></g></g><g fill="#07a5c3" fill-opacity="1"><g transform="translate(281.668613, 198.871192)"><g><path d="M 2.109375 0 L 2.109375 -19.046875 L 7.390625 -19.046875 L 7.390625 0 Z M 4.75 -21.5 C 3.976562 -21.5 3.3125 -21.757812 2.75 -22.28125 C 2.1875 -22.8125 1.90625 -23.445312 1.90625 -24.1875 C 1.90625 -24.914062 2.1875 -25.539062 2.75 -26.0625 C 3.3125 -26.582031 3.976562 -26.84375 4.75 -26.84375 C 5.539062 -26.84375 6.21875 -26.582031 6.78125 -26.0625 C 7.34375 -25.539062 7.625 -24.914062 7.625 -24.1875 C 7.625 -23.445312 7.34375 -22.8125 6.78125 -22.28125 C 6.21875 -21.757812 5.539062 -21.5 4.75 -21.5 Z M 4.75 -21.5 "/></g></g></g><g fill="#07a5c3" fill-opacity="1"><g transform="translate(289.422265, 198.871192)"><g><path d="M 7.390625 -11.015625 L 7.390625 0 L 2.109375 0 L 2.109375 -19.046875 L 7.140625 -19.046875 L 7.140625 -15.6875 L 7.359375 -15.6875 C 7.796875 -16.789062 8.503906 -17.664062 9.484375 -18.3125 C 10.472656 -18.96875 11.675781 -19.296875 13.09375 -19.296875 C 15.082031 -19.296875 16.675781 -18.65625 17.875 -17.375 C 19.070312 -16.101562 19.671875 -14.351562 19.671875 -12.125 L 19.671875 0 L 14.390625 0 L 14.390625 -11.1875 C 14.390625 -12.351562 14.085938 -13.265625 13.484375 -13.921875 C 12.890625 -14.578125 12.0625 -14.90625 11 -14.90625 C 9.9375 -14.90625 9.070312 -14.5625 8.40625 -13.875 C 7.738281 -13.195312 7.398438 -12.242188 7.390625 -11.015625 Z M 7.390625 -11.015625 "/></g></g></g><g fill="#07a5c3" fill-opacity="1"><g transform="translate(309.3924, 198.871192)"><g><path d="M 10.6875 7.421875 C 8.125 7.421875 6.109375 6.914062 4.640625 5.90625 C 3.179688 4.894531 2.296875 3.671875 1.984375 2.234375 L 6.875 1.578125 C 7.082031 2.085938 7.5 2.554688 8.125 2.984375 C 8.75 3.410156 9.644531 3.625 10.8125 3.625 C 11.957031 3.625 12.90625 3.347656 13.65625 2.796875 C 14.40625 2.253906 14.78125 1.359375 14.78125 0.109375 L 14.78125 -3.375 L 14.5625 -3.375 C 14.207031 -2.582031 13.59375 -1.863281 12.71875 -1.21875 C 11.84375 -0.582031 10.644531 -0.265625 9.125 -0.265625 C 7.695312 -0.265625 6.394531 -0.597656 5.21875 -1.265625 C 4.050781 -1.941406 3.125 -2.96875 2.4375 -4.34375 C 1.75 -5.71875 1.40625 -7.457031 1.40625 -9.5625 C 1.40625 -11.726562 1.753906 -13.53125 2.453125 -14.96875 C 3.160156 -16.40625 4.097656 -17.484375 5.265625 -18.203125 C 6.441406 -18.929688 7.722656 -19.296875 9.109375 -19.296875 C 10.179688 -19.296875 11.078125 -19.113281 11.796875 -18.75 C 12.515625 -18.394531 13.097656 -17.953125 13.546875 -17.421875 C 13.992188 -16.890625 14.332031 -16.363281 14.5625 -15.84375 L 14.75 -15.84375 L 14.75 -19.046875 L 20 -19.046875 L 20 0.1875 C 20 1.757812 19.597656 3.082031 18.796875 4.15625 C 18.003906 5.238281 16.910156 6.050781 15.515625 6.59375 C 14.117188 7.144531 12.507812 7.421875 10.6875 7.421875 Z M 10.796875 -4.234375 C 12.078125 -4.234375 13.066406 -4.703125 13.765625 -5.640625 C 14.460938 -6.585938 14.8125 -7.90625 14.8125 -9.59375 C 14.8125 -11.257812 14.460938 -12.59375 13.765625 -13.59375 C 13.066406 -14.59375 12.078125 -15.09375 10.796875 -15.09375 C 9.492188 -15.09375 8.5 -14.578125 7.8125 -13.546875 C 7.132812 -12.523438 6.796875 -11.207031 6.796875 -9.59375 C 6.796875 -7.945312 7.140625 -6.640625 7.828125 -5.671875 C 8.515625 -4.710938 9.503906 -4.234375 10.796875 -4.234375 Z M 10.796875 -4.234375 "/></g></g></g></svg>