<svg xmlns="http://www.w3.org/2000/svg" xmlns:xlink="http://www.w3.org/1999/xlink" width="500" zoomAndPan="magnify" viewBox="0 0 375 262.499992" height="350" preserveAspectRatio="xMidYMid meet" version="1.0"><defs><filter x="0%" y="0%" width="100%" height="100%" id="b42751e582"><feColorMatrix values="0 0 0 0 1 0 0 0 0 1 0 0 0 0 1 0 0 0 1 0" color-interpolation-filters="sRGB"/></filter><g/><clipPath id="6681482168"><path d="M 0.355469 0 L 374.640625 0 L 374.640625 262 L 0.355469 262 Z M 0.355469 0 " clip-rule="nonzero"/></clipPath><mask id="a3684a3ff5"><g filter="url(#b42751e582)"><rect x="-37.5" width="450" fill="#000000" y="-26.249999" height="314.999991" fill-opacity="0.55"/></g></mask><clipPath id="7dea71b70e"><path d="M 113 119 L 178.214844 119 L 178.214844 179 L 113 179 Z M 113 119 " clip-rule="nonzero"/></clipPath><clipPath id="fff96245dc"><path d="M 80 0.0703125 L 173 0.0703125 L 173 93 L 80 93 Z M 80 0.0703125 " clip-rule="nonzero"/></clipPath><clipPath id="d375cb428b"><path d="M 0.144531 1 L 54 1 L 54 54 L 0.144531 54 Z M 0.144531 1 " clip-rule="nonzero"/></clipPath><clipPath id="09ffa195ac"><rect x="0" width="179" y="0" height="180"/></clipPath></defs><g clip-path="url(#6681482168)"><path fill="#ffffff" d="M 0.355469 0 L 374.644531 0 L 374.644531 262 L 0.355469 262 Z M 0.355469 0 " fill-opacity="1" fill-rule="nonzero"/><path fill="#ffffff" d="M 0.355469 0 L 374.644531 0 L 374.644531 262 L 0.355469 262 Z M 0.355469 0 " fill-opacity="1" fill-rule="nonzero"/></g><g mask="url(#a3684a3ff5)"><g transform="matrix(1, 0, 0, 1, 28, 27)"><g clip-path="url(#09ffa195ac)"><g clip-path="url(#7dea71b70e)"><path fill="#f4b324" d="M 175.578125 119.320312 L 163.675781 119.320312 C 163.28125 119.320312 162.898438 119.394531 162.535156 119.546875 C 162.171875 119.699219 161.847656 119.914062 161.570312 120.191406 C 161.292969 120.472656 161.074219 120.792969 160.925781 121.15625 C 160.773438 121.523438 160.699219 121.902344 160.699219 122.296875 L 160.699219 172.890625 L 154.746094 172.890625 L 154.746094 138.367188 C 154.746094 137.972656 154.671875 137.59375 154.519531 137.226562 C 154.367188 136.863281 154.152344 136.542969 153.875 136.261719 C 153.59375 135.984375 153.273438 135.769531 152.910156 135.617188 C 152.542969 135.464844 152.164062 135.390625 151.769531 135.390625 L 139.867188 135.390625 C 139.472656 135.390625 139.09375 135.464844 138.726562 135.617188 C 138.363281 135.769531 138.039062 135.984375 137.761719 136.261719 C 137.484375 136.542969 137.269531 136.863281 137.117188 137.226562 C 136.964844 137.59375 136.890625 137.972656 136.890625 138.367188 L 136.890625 172.890625 L 130.9375 172.890625 L 130.9375 149.082031 C 130.9375 148.6875 130.863281 148.304688 130.710938 147.941406 C 130.558594 147.578125 130.34375 147.253906 130.066406 146.976562 C 129.789062 146.699219 129.464844 146.480469 129.101562 146.332031 C 128.734375 146.179688 128.355469 146.105469 127.960938 146.105469 L 116.058594 146.105469 C 115.664062 146.105469 115.285156 146.179688 114.917969 146.332031 C 114.554688 146.480469 114.234375 146.699219 113.953125 146.976562 C 113.675781 147.253906 113.460938 147.578125 113.308594 147.941406 C 113.15625 148.304688 113.082031 148.6875 113.082031 149.082031 L 113.082031 175.863281 C 113.082031 176.257812 113.15625 176.640625 113.308594 177.003906 C 113.460938 177.367188 113.675781 177.691406 113.953125 177.96875 C 114.234375 178.25 114.554688 178.464844 114.917969 178.613281 C 115.285156 178.765625 115.664062 178.839844 116.058594 178.839844 L 175.578125 178.839844 C 175.972656 178.839844 176.351562 178.765625 176.71875 178.613281 C 177.082031 178.464844 177.402344 178.25 177.683594 177.96875 C 177.960938 177.691406 178.175781 177.367188 178.328125 177.003906 C 178.480469 176.640625 178.554688 176.257812 178.554688 175.863281 L 178.554688 122.296875 C 178.554688 121.902344 178.480469 121.523438 178.328125 121.15625 C 178.175781 120.792969 177.960938 120.472656 177.683594 120.191406 C 177.402344 119.914062 177.082031 119.699219 176.71875 119.546875 C 176.351562 119.394531 175.972656 119.320312 175.578125 119.320312 Z M 124.984375 172.890625 L 119.035156 172.890625 L 119.035156 152.058594 L 124.984375 152.058594 Z M 148.792969 172.890625 L 142.84375 172.890625 L 142.84375 141.34375 L 148.792969 141.34375 Z M 172.601562 172.890625 L 166.652344 172.890625 L 166.652344 125.273438 L 172.601562 125.273438 Z M 172.601562 172.890625 " fill-opacity="1" fill-rule="nonzero"/></g><path fill="#f4b324" d="M 11.898438 89.558594 C 11.898438 89.953125 11.820312 90.335938 11.671875 90.699219 C 11.519531 91.0625 11.304688 91.386719 11.023438 91.664062 C 10.746094 91.945312 10.425781 92.160156 10.058594 92.308594 C 9.695312 92.460938 9.316406 92.535156 8.921875 92.535156 C 8.527344 92.535156 8.144531 92.460938 7.78125 92.308594 C 7.417969 92.160156 7.09375 91.945312 6.816406 91.664062 C 6.535156 91.386719 6.320312 91.0625 6.171875 90.699219 C 6.019531 90.335938 5.945312 89.953125 5.945312 89.558594 C 5.945312 89.164062 6.019531 88.785156 6.171875 88.421875 C 6.320312 88.054688 6.535156 87.734375 6.816406 87.457031 C 7.09375 87.175781 7.417969 86.960938 7.78125 86.808594 C 8.144531 86.660156 8.527344 86.585938 8.921875 86.585938 C 9.316406 86.585938 9.695312 86.660156 10.058594 86.808594 C 10.425781 86.960938 10.746094 87.175781 11.023438 87.457031 C 11.304688 87.734375 11.519531 88.054688 11.671875 88.421875 C 11.820312 88.785156 11.898438 89.164062 11.898438 89.558594 Z M 11.898438 89.558594 " fill-opacity="1" fill-rule="nonzero"/><g clip-path="url(#fff96245dc)"><path fill="#f4b324" d="M 97.507812 12.65625 C 136.472656 16.777344 166.652344 50.070312 166.652344 89.558594 C 166.652344 89.953125 166.726562 90.335938 166.878906 90.699219 C 167.027344 91.0625 167.242188 91.386719 167.523438 91.664062 C 167.800781 91.945312 168.125 92.160156 168.488281 92.308594 C 168.851562 92.460938 169.230469 92.535156 169.625 92.535156 C 170.019531 92.535156 170.402344 92.460938 170.765625 92.308594 C 171.128906 92.160156 171.453125 91.945312 171.730469 91.664062 C 172.011719 91.386719 172.226562 91.0625 172.375 90.699219 C 172.527344 90.335938 172.601562 89.953125 172.601562 89.558594 C 172.601562 46.921875 139.933594 10.992188 97.800781 6.707031 C 97.699219 6.375 97.582031 6.054688 97.445312 5.738281 C 97.304688 5.421875 97.152344 5.113281 96.976562 4.816406 C 96.804688 4.515625 96.613281 4.230469 96.40625 3.953125 C 96.199219 3.679688 95.976562 3.414062 95.738281 3.164062 C 95.503906 2.914062 95.25 2.679688 94.984375 2.457031 C 94.722656 2.238281 94.445312 2.035156 94.15625 1.84375 C 93.867188 1.65625 93.566406 1.484375 93.257812 1.332031 C 92.949219 1.179688 92.632812 1.042969 92.308594 0.925781 C 91.980469 0.8125 91.652344 0.714844 91.316406 0.636719 C 90.980469 0.558594 90.640625 0.5 90.296875 0.460938 C 89.953125 0.421875 89.609375 0.40625 89.265625 0.40625 C 88.921875 0.410156 88.578125 0.429688 88.234375 0.472656 C 87.890625 0.515625 87.554688 0.578125 87.21875 0.65625 C 86.882812 0.738281 86.554688 0.839844 86.230469 0.960938 C 85.90625 1.082031 85.589844 1.21875 85.285156 1.375 C 84.976562 1.53125 84.679688 1.707031 84.394531 1.898438 C 84.105469 2.089844 83.832031 2.296875 83.566406 2.519531 C 83.304688 2.746094 83.058594 2.984375 82.820312 3.234375 C 82.585938 3.488281 82.367188 3.753906 82.164062 4.03125 C 81.960938 4.308594 81.773438 4.597656 81.601562 4.898438 C 81.433594 5.199219 81.28125 5.507812 81.144531 5.824219 C 81.011719 6.144531 80.898438 6.46875 80.800781 6.800781 C 80.703125 7.132812 80.628906 7.46875 80.570312 7.808594 C 80.515625 8.148438 80.476562 8.488281 80.460938 8.835938 C 80.441406 9.179688 80.445312 9.523438 80.46875 9.867188 C 80.492188 10.210938 80.535156 10.554688 80.597656 10.890625 C 80.660156 11.230469 80.746094 11.566406 80.847656 11.894531 C 80.949219 12.226562 81.070312 12.546875 81.210938 12.863281 C 81.347656 13.179688 81.507812 13.484375 81.683594 13.78125 C 81.859375 14.078125 82.050781 14.363281 82.257812 14.640625 C 82.46875 14.914062 82.691406 15.175781 82.929688 15.421875 C 83.171875 15.671875 83.421875 15.90625 83.691406 16.125 C 83.957031 16.34375 84.234375 16.546875 84.527344 16.730469 C 84.816406 16.917969 85.117188 17.085938 85.425781 17.238281 C 85.738281 17.390625 86.054688 17.523438 86.378906 17.636719 C 86.707031 17.75 87.035156 17.84375 87.375 17.921875 C 87.710938 17.996094 88.050781 18.050781 88.394531 18.089844 C 88.734375 18.125 89.078125 18.140625 89.425781 18.136719 C 89.769531 18.132812 90.113281 18.105469 90.457031 18.0625 C 90.796875 18.019531 91.136719 17.953125 91.46875 17.871094 C 91.804688 17.785156 92.132812 17.683594 92.457031 17.5625 C 92.777344 17.4375 93.09375 17.296875 93.398438 17.140625 C 93.707031 16.980469 94 16.804688 94.289062 16.609375 C 94.574219 16.417969 94.847656 16.207031 95.105469 15.980469 C 95.367188 15.757812 95.617188 15.515625 95.847656 15.261719 C 96.082031 15.007812 96.300781 14.742188 96.5 14.460938 C 96.703125 14.179688 96.886719 13.890625 97.054688 13.589844 C 97.222656 13.289062 97.375 12.976562 97.507812 12.660156 Z M 86.296875 9.207031 C 86.296875 8.8125 86.371094 8.433594 86.523438 8.066406 C 86.675781 7.703125 86.890625 7.382812 87.167969 7.101562 C 87.449219 6.824219 87.769531 6.609375 88.132812 6.457031 C 88.5 6.304688 88.878906 6.230469 89.273438 6.230469 C 89.667969 6.230469 90.046875 6.304688 90.414062 6.457031 C 90.777344 6.609375 91.097656 6.824219 91.378906 7.101562 C 91.65625 7.382812 91.871094 7.703125 92.023438 8.066406 C 92.175781 8.433594 92.25 8.8125 92.25 9.207031 C 92.25 9.601562 92.175781 9.980469 92.023438 10.347656 C 91.871094 10.710938 91.65625 11.03125 91.378906 11.3125 C 91.097656 11.589844 90.777344 11.804688 90.414062 11.957031 C 90.046875 12.109375 89.667969 12.183594 89.273438 12.183594 C 88.878906 12.183594 88.5 12.109375 88.132812 11.957031 C 87.769531 11.804688 87.449219 11.589844 87.167969 11.3125 C 86.890625 11.03125 86.675781 10.710938 86.523438 10.347656 C 86.371094 9.980469 86.296875 9.601562 86.296875 9.207031 Z M 86.296875 9.207031 " fill-opacity="1" fill-rule="nonzero"/></g><path fill="#f4b324" d="M 89.273438 160.984375 C 88.398438 160.984375 87.542969 161.109375 86.703125 161.363281 C 85.863281 161.617188 85.082031 161.984375 84.351562 162.464844 C 83.621094 162.949219 82.976562 163.527344 82.414062 164.199219 C 81.855469 164.871094 81.402344 165.609375 81.058594 166.417969 C 46.515625 162.746094 17.988281 135.742188 12.769531 101.238281 C 12.710938 100.847656 12.574219 100.488281 12.371094 100.152344 C 12.167969 99.816406 11.90625 99.535156 11.589844 99.300781 C 11.273438 99.070312 10.921875 98.90625 10.542969 98.816406 C 10.160156 98.722656 9.773438 98.703125 9.386719 98.761719 C 9 98.820312 8.636719 98.949219 8.300781 99.152344 C 7.964844 99.355469 7.675781 99.613281 7.445312 99.929688 C 7.210938 100.242188 7.042969 100.59375 6.945312 100.972656 C 6.851562 101.351562 6.828125 101.738281 6.886719 102.125 C 12.523438 139.410156 43.390625 168.53125 80.71875 172.363281 C 80.867188 172.894531 81.066406 173.40625 81.316406 173.902344 C 81.5625 174.394531 81.851562 174.863281 82.183594 175.300781 C 82.515625 175.742188 82.886719 176.148438 83.296875 176.519531 C 83.703125 176.890625 84.144531 177.21875 84.613281 177.511719 C 85.082031 177.800781 85.574219 178.042969 86.089844 178.242188 C 86.605469 178.441406 87.132812 178.589844 87.675781 178.691406 C 88.21875 178.792969 88.765625 178.84375 89.316406 178.839844 C 89.867188 178.839844 90.414062 178.789062 90.957031 178.6875 C 91.5 178.582031 92.027344 178.433594 92.542969 178.230469 C 93.058594 178.03125 93.546875 177.785156 94.015625 177.496094 C 94.484375 177.203125 94.921875 176.871094 95.332031 176.5 C 95.738281 176.125 96.105469 175.71875 96.4375 175.277344 C 96.769531 174.835938 97.058594 174.371094 97.304688 173.875 C 97.546875 173.378906 97.746094 172.867188 97.894531 172.335938 C 98.046875 171.804688 98.144531 171.265625 98.195312 170.714844 C 98.242188 170.167969 98.242188 169.617188 98.191406 169.066406 C 98.136719 168.519531 98.035156 167.976562 97.882812 167.449219 C 97.730469 166.917969 97.53125 166.40625 97.285156 165.914062 C 97.035156 165.417969 96.746094 164.953125 96.414062 164.511719 C 96.078125 164.074219 95.707031 163.667969 95.296875 163.296875 C 94.890625 162.925781 94.449219 162.597656 93.980469 162.308594 C 93.511719 162.019531 93.015625 161.777344 92.503906 161.578125 C 91.988281 161.378906 91.457031 161.230469 90.914062 161.132812 C 90.371094 161.03125 89.824219 160.984375 89.273438 160.984375 Z M 89.273438 172.890625 C 88.878906 172.890625 88.5 172.8125 88.132812 172.664062 C 87.769531 172.511719 87.449219 172.296875 87.167969 172.015625 C 86.890625 171.738281 86.675781 171.417969 86.523438 171.050781 C 86.371094 170.6875 86.296875 170.308594 86.296875 169.914062 C 86.296875 169.519531 86.371094 169.140625 86.523438 168.773438 C 86.675781 168.410156 86.890625 168.085938 87.167969 167.808594 C 87.449219 167.53125 87.769531 167.316406 88.132812 167.164062 C 88.5 167.011719 88.878906 166.9375 89.273438 166.9375 C 89.667969 166.9375 90.046875 167.011719 90.414062 167.164062 C 90.777344 167.316406 91.097656 167.53125 91.378906 167.808594 C 91.65625 168.085938 91.871094 168.410156 92.023438 168.773438 C 92.175781 169.140625 92.25 169.519531 92.25 169.914062 C 92.25 170.308594 92.175781 170.6875 92.023438 171.050781 C 91.871094 171.417969 91.65625 171.738281 91.378906 172.015625 C 91.097656 172.296875 90.777344 172.511719 90.414062 172.664062 C 90.046875 172.8125 89.667969 172.890625 89.273438 172.890625 Z M 89.273438 172.890625 " fill-opacity="1" fill-rule="nonzero"/><path fill="#f4b324" d="M 131.59375 101.492188 C 131.820312 101.210938 132.019531 100.90625 132.191406 100.585938 C 132.363281 100.265625 132.503906 99.929688 132.613281 99.582031 C 132.722656 99.238281 132.800781 98.882812 132.847656 98.523438 C 132.894531 98.160156 132.90625 97.800781 132.886719 97.4375 C 132.863281 97.074219 132.8125 96.714844 132.726562 96.359375 C 132.640625 96.007812 132.523438 95.664062 132.375 95.332031 C 132.226562 95 132.046875 94.683594 131.839844 94.382812 C 131.636719 94.082031 131.402344 93.804688 131.144531 93.546875 L 126.949219 89.351562 C 126.695312 89.09375 126.414062 88.859375 126.117188 88.652344 C 125.816406 88.445312 125.5 88.269531 125.167969 88.117188 C 124.835938 87.96875 124.492188 87.851562 124.140625 87.765625 C 123.785156 87.679688 123.425781 87.625 123.0625 87.605469 C 122.699219 87.585938 122.335938 87.597656 121.976562 87.644531 C 121.613281 87.691406 121.261719 87.769531 120.914062 87.878906 C 120.566406 87.992188 120.230469 88.132812 119.910156 88.304688 C 119.589844 88.476562 119.289062 88.675781 119.003906 88.90625 C 118.964844 88.542969 118.890625 88.1875 118.785156 87.839844 C 118.683594 87.492188 118.546875 87.15625 118.378906 86.835938 C 118.214844 86.511719 118.019531 86.207031 117.796875 85.917969 C 117.574219 85.632812 117.328125 85.367188 117.054688 85.125 C 116.785156 84.882812 116.496094 84.664062 116.183594 84.476562 C 115.875 84.289062 115.546875 84.128906 115.210938 84 C 114.871094 83.867188 114.519531 83.773438 114.164062 83.707031 C 113.804688 83.640625 113.445312 83.609375 113.082031 83.609375 L 113.082031 50.871094 C 113.082031 50.476562 113.007812 50.097656 112.855469 49.734375 C 112.703125 49.367188 112.488281 49.046875 112.210938 48.765625 C 111.929688 48.488281 111.609375 48.273438 111.246094 48.121094 C 110.878906 47.972656 110.5 47.894531 110.105469 47.894531 L 62.488281 47.894531 C 62.09375 47.894531 61.714844 47.972656 61.351562 48.121094 C 60.984375 48.273438 60.664062 48.488281 60.386719 48.765625 C 60.105469 49.046875 59.890625 49.367188 59.738281 49.734375 C 59.589844 50.097656 59.511719 50.476562 59.511719 50.871094 L 59.511719 122.296875 C 59.511719 122.691406 59.589844 123.070312 59.738281 123.433594 C 59.890625 123.800781 60.105469 124.121094 60.386719 124.402344 C 60.664062 124.679688 60.984375 124.894531 61.351562 125.046875 C 61.714844 125.195312 62.09375 125.273438 62.488281 125.273438 L 87.753906 125.273438 C 88.070312 126.007812 88.507812 126.664062 89.066406 127.238281 L 93.261719 131.433594 C 93.519531 131.691406 93.796875 131.925781 94.097656 132.132812 C 94.394531 132.339844 94.710938 132.515625 95.042969 132.664062 C 95.375 132.816406 95.71875 132.933594 96.074219 133.019531 C 96.425781 133.105469 96.785156 133.160156 97.148438 133.179688 C 97.511719 133.199219 97.875 133.1875 98.234375 133.140625 C 98.597656 133.09375 98.953125 133.015625 99.296875 132.90625 C 99.644531 132.792969 99.980469 132.652344 100.300781 132.480469 C 100.621094 132.308594 100.921875 132.105469 101.207031 131.878906 C 101.246094 132.242188 101.320312 132.59375 101.425781 132.941406 C 101.53125 133.292969 101.664062 133.625 101.832031 133.949219 C 102 134.273438 102.191406 134.578125 102.414062 134.867188 C 102.636719 135.152344 102.882812 135.417969 103.15625 135.660156 C 103.425781 135.902344 103.71875 136.117188 104.027344 136.308594 C 104.335938 136.496094 104.664062 136.65625 105.003906 136.785156 C 105.34375 136.914062 105.691406 137.011719 106.046875 137.078125 C 106.40625 137.144531 106.765625 137.175781 107.128906 137.175781 L 113.082031 137.175781 C 113.445312 137.175781 113.804688 137.144531 114.164062 137.078125 C 114.519531 137.011719 114.871094 136.914062 115.210938 136.785156 C 115.546875 136.65625 115.875 136.496094 116.183594 136.308594 C 116.496094 136.117188 116.785156 135.902344 117.054688 135.660156 C 117.328125 135.417969 117.574219 135.152344 117.796875 134.867188 C 118.019531 134.578125 118.214844 134.273438 118.378906 133.949219 C 118.546875 133.625 118.683594 133.292969 118.785156 132.941406 C 118.890625 132.59375 118.964844 132.242188 119.003906 131.878906 C 119.289062 132.105469 119.589844 132.308594 119.910156 132.480469 C 120.230469 132.652344 120.566406 132.792969 120.914062 132.90625 C 121.261719 133.015625 121.613281 133.09375 121.976562 133.140625 C 122.335938 133.1875 122.699219 133.199219 123.0625 133.179688 C 123.425781 133.160156 123.785156 133.105469 124.140625 133.019531 C 124.492188 132.933594 124.835938 132.816406 125.167969 132.664062 C 125.5 132.515625 125.816406 132.339844 126.117188 132.132812 C 126.414062 131.925781 126.695312 131.691406 126.949219 131.433594 L 131.144531 127.238281 C 131.402344 126.980469 131.636719 126.699219 131.839844 126.402344 C 132.046875 126.101562 132.226562 125.785156 132.375 125.453125 C 132.523438 125.121094 132.640625 124.777344 132.726562 124.425781 C 132.8125 124.070312 132.863281 123.710938 132.886719 123.347656 C 132.90625 122.984375 132.894531 122.625 132.847656 122.261719 C 132.800781 121.902344 132.722656 121.546875 132.613281 121.199219 C 132.503906 120.855469 132.363281 120.519531 132.191406 120.199219 C 132.019531 119.878906 131.820312 119.574219 131.59375 119.289062 C 131.953125 119.25 132.308594 119.179688 132.65625 119.074219 C 133.003906 118.96875 133.339844 118.832031 133.664062 118.667969 C 133.988281 118.5 134.292969 118.304688 134.578125 118.082031 C 134.867188 117.859375 135.132812 117.613281 135.375 117.34375 C 135.617188 117.070312 135.832031 116.78125 136.023438 116.472656 C 136.210938 116.160156 136.371094 115.835938 136.5 115.496094 C 136.628906 115.15625 136.726562 114.808594 136.792969 114.449219 C 136.859375 114.09375 136.890625 113.730469 136.890625 113.367188 L 136.890625 107.417969 C 136.890625 107.054688 136.859375 106.691406 136.792969 106.335938 C 136.726562 105.976562 136.628906 105.628906 136.5 105.289062 C 136.371094 104.949219 136.210938 104.625 136.023438 104.3125 C 135.832031 104.003906 135.617188 103.710938 135.375 103.441406 C 135.132812 103.171875 134.867188 102.925781 134.578125 102.703125 C 134.292969 102.480469 133.988281 102.285156 133.664062 102.117188 C 133.339844 101.953125 133.003906 101.816406 132.65625 101.710938 C 132.308594 101.605469 131.953125 101.535156 131.59375 101.492188 Z M 65.464844 53.847656 L 107.128906 53.847656 L 107.128906 71.703125 L 65.464844 71.703125 Z M 88.632812 119.320312 L 65.464844 119.320312 L 65.464844 101.464844 L 88.632812 101.367188 C 88.269531 101.414062 87.914062 101.496094 87.5625 101.605469 C 87.210938 101.71875 86.875 101.859375 86.550781 102.035156 C 86.226562 102.207031 85.921875 102.40625 85.632812 102.636719 C 85.347656 102.863281 85.082031 103.117188 84.839844 103.390625 C 84.597656 103.667969 84.378906 103.960938 84.191406 104.277344 C 84.003906 104.59375 83.84375 104.921875 83.714844 105.265625 C 83.582031 105.609375 83.484375 105.960938 83.421875 106.324219 C 83.355469 106.683594 83.320312 107.050781 83.320312 107.417969 L 83.320312 113.367188 C 83.324219 113.734375 83.355469 114.09375 83.425781 114.453125 C 83.492188 114.808594 83.589844 115.160156 83.722656 115.5 C 83.851562 115.839844 84.011719 116.164062 84.203125 116.476562 C 84.390625 116.789062 84.605469 117.078125 84.851562 117.351562 C 85.09375 117.621094 85.359375 117.871094 85.644531 118.09375 C 85.933594 118.316406 86.238281 118.515625 86.5625 118.683594 C 86.882812 118.851562 87.21875 118.988281 87.570312 119.09375 C 87.917969 119.203125 88.273438 119.277344 88.632812 119.320312 Z M 87.753906 95.511719 L 65.464844 95.511719 L 65.464844 77.65625 L 107.128906 77.65625 L 107.128906 83.609375 C 106.765625 83.609375 106.40625 83.640625 106.046875 83.707031 C 105.691406 83.773438 105.34375 83.871094 105.003906 84 C 104.664062 84.128906 104.335938 84.289062 104.027344 84.476562 C 103.71875 84.664062 103.425781 84.882812 103.15625 85.125 C 102.882812 85.367188 102.636719 85.632812 102.414062 85.917969 C 102.191406 86.207031 102 86.511719 101.832031 86.835938 C 101.664062 87.15625 101.53125 87.492188 101.425781 87.839844 C 101.320312 88.1875 101.246094 88.542969 101.207031 88.90625 C 100.921875 88.675781 100.621094 88.476562 100.300781 88.304688 C 99.980469 88.132812 99.644531 87.992188 99.296875 87.878906 C 98.953125 87.769531 98.597656 87.691406 98.234375 87.644531 C 97.875 87.597656 97.511719 87.585938 97.148438 87.605469 C 96.785156 87.625 96.425781 87.679688 96.074219 87.765625 C 95.71875 87.851562 95.375 87.96875 95.042969 88.117188 C 94.710938 88.269531 94.394531 88.445312 94.097656 88.652344 C 93.796875 88.859375 93.519531 89.09375 93.261719 89.351562 L 89.066406 93.546875 C 88.507812 94.121094 88.070312 94.777344 87.753906 95.511719 Z M 130.9375 113.367188 L 123.125 113.367188 C 122.796875 114.84375 122.230469 116.222656 121.429688 117.503906 L 126.933594 123.011719 L 122.710938 127.238281 L 117.203125 121.730469 C 115.925781 122.523438 114.550781 123.085938 113.082031 123.414062 L 113.082031 131.222656 L 107.128906 131.222656 L 107.128906 123.414062 C 105.65625 123.082031 104.277344 122.515625 102.992188 121.714844 L 97.488281 127.222656 L 93.261719 122.996094 L 98.765625 117.488281 C 97.972656 116.210938 97.414062 114.835938 97.085938 113.367188 L 89.273438 113.367188 L 89.273438 107.417969 L 97.085938 107.417969 C 97.417969 105.941406 97.980469 104.5625 98.78125 103.28125 L 93.277344 97.773438 L 97.503906 93.546875 L 103.007812 99.054688 C 104.285156 98.261719 105.660156 97.699219 107.128906 97.371094 L 107.128906 89.558594 L 113.082031 89.558594 L 113.082031 97.371094 C 114.558594 97.703125 115.9375 98.269531 117.21875 99.070312 L 122.722656 93.5625 L 126.949219 97.789062 L 121.445312 103.292969 C 122.238281 104.574219 122.796875 105.949219 123.125 107.417969 L 130.9375 107.417969 Z M 130.9375 113.367188 " fill-opacity="1" fill-rule="nonzero"/><path fill="#f4b324" d="M 113.082031 102 C 112.125 101.636719 111.132812 101.457031 110.105469 101.464844 C 109.734375 101.460938 109.363281 101.480469 108.992188 101.523438 C 108.621094 101.566406 108.253906 101.628906 107.894531 101.71875 C 107.53125 101.804688 107.175781 101.917969 106.828125 102.046875 C 106.476562 102.179688 106.140625 102.332031 105.808594 102.507812 C 105.480469 102.679688 105.164062 102.875 104.855469 103.089844 C 104.550781 103.300781 104.261719 103.535156 103.984375 103.78125 C 103.707031 104.03125 103.445312 104.296875 103.203125 104.582031 C 102.960938 104.863281 102.734375 105.15625 102.527344 105.46875 C 102.320312 105.777344 102.132812 106.097656 101.964844 106.433594 C 101.796875 106.765625 101.652344 107.105469 101.527344 107.457031 C 101.402344 107.808594 101.300781 108.167969 101.21875 108.53125 C 101.136719 108.894531 101.082031 109.261719 101.046875 109.632812 C 101.011719 110.003906 101 110.375 101.011719 110.75 C 101.019531 111.121094 101.054688 111.492188 101.113281 111.859375 C 101.167969 112.226562 101.25 112.589844 101.351562 112.949219 C 101.453125 113.308594 101.578125 113.660156 101.722656 114 C 101.871094 114.34375 102.035156 114.675781 102.222656 115 C 102.410156 115.320312 102.617188 115.632812 102.839844 115.929688 C 103.066406 116.226562 103.308594 116.507812 103.570312 116.773438 C 103.828125 117.039062 104.105469 117.289062 104.398438 117.523438 C 104.6875 117.753906 104.992188 117.96875 105.308594 118.164062 C 105.628906 118.359375 105.957031 118.53125 106.296875 118.6875 C 106.636719 118.839844 106.984375 118.972656 107.339844 119.082031 C 107.695312 119.195312 108.054688 119.28125 108.421875 119.347656 C 108.789062 119.414062 109.160156 119.457031 109.53125 119.476562 C 109.902344 119.5 110.273438 119.496094 110.648438 119.46875 C 111.019531 119.441406 111.386719 119.394531 111.753906 119.324219 C 112.117188 119.25 112.480469 119.15625 112.832031 119.039062 C 113.1875 118.925781 113.53125 118.785156 113.871094 118.628906 C 114.207031 118.46875 114.53125 118.289062 114.847656 118.089844 C 115.160156 117.890625 115.464844 117.671875 115.75 117.433594 C 116.039062 117.199219 116.308594 116.945312 116.566406 116.671875 C 116.824219 116.402344 117.0625 116.117188 117.28125 115.816406 C 117.503906 115.515625 117.703125 115.203125 117.886719 114.878906 C 118.066406 114.554688 118.230469 114.21875 118.371094 113.871094 C 118.507812 113.527344 118.628906 113.175781 118.726562 112.816406 C 118.820312 112.457031 118.894531 112.089844 118.945312 111.722656 C 119 111.351562 119.027344 110.980469 119.03125 110.609375 C 119.039062 110.238281 119.019531 109.863281 118.980469 109.496094 C 118.9375 109.125 118.875 108.757812 118.789062 108.394531 C 118.703125 108.03125 118.59375 107.675781 118.464844 107.328125 C 118.335938 106.976562 118.183594 106.636719 118.011719 106.308594 C 117.839844 105.976562 117.644531 105.660156 117.433594 105.351562 C 117.222656 105.046875 116.992188 104.753906 116.746094 104.476562 C 116.496094 104.199219 116.230469 103.9375 115.953125 103.691406 C 115.671875 103.445312 115.375 103.21875 115.066406 103.007812 C 114.757812 102.800781 114.4375 102.613281 114.105469 102.441406 C 113.773438 102.273438 113.433594 102.125 113.082031 102 Z M 110.105469 113.367188 C 109.710938 113.367188 109.332031 113.292969 108.96875 113.140625 C 108.601562 112.992188 108.28125 112.777344 108 112.496094 C 107.722656 112.21875 107.507812 111.894531 107.355469 111.53125 C 107.207031 111.167969 107.128906 110.785156 107.128906 110.390625 C 107.128906 109.996094 107.207031 109.617188 107.355469 109.253906 C 107.507812 108.890625 107.722656 108.566406 108 108.289062 C 108.28125 108.007812 108.601562 107.792969 108.96875 107.644531 C 109.332031 107.492188 109.710938 107.417969 110.105469 107.417969 C 110.5 107.417969 110.878906 107.492188 111.246094 107.644531 C 111.609375 107.792969 111.929688 108.007812 112.210938 108.289062 C 112.488281 108.566406 112.703125 108.890625 112.855469 109.253906 C 113.007812 109.617188 113.082031 109.996094 113.082031 110.390625 C 113.082031 110.785156 113.007812 111.167969 112.855469 111.53125 C 112.703125 111.894531 112.488281 112.21875 112.210938 112.496094 C 111.929688 112.777344 111.609375 112.992188 111.246094 113.140625 C 110.878906 113.292969 110.5 113.367188 110.105469 113.367188 Z M 113.082031 102 C 112.125 101.636719 111.132812 101.457031 110.105469 101.464844 C 109.734375 101.460938 109.363281 101.480469 108.992188 101.523438 C 108.621094 101.566406 108.253906 101.628906 107.894531 101.71875 C 107.53125 101.804688 107.175781 101.917969 106.828125 102.046875 C 106.476562 102.179688 106.140625 102.332031 105.808594 102.507812 C 105.480469 102.679688 105.164062 102.875 104.855469 103.089844 C 104.550781 103.300781 104.261719 103.535156 103.984375 103.78125 C 103.707031 104.03125 103.445312 104.296875 103.203125 104.582031 C 102.960938 104.863281 102.734375 105.15625 102.527344 105.46875 C 102.320312 105.777344 102.132812 106.097656 101.964844 106.433594 C 101.796875 106.765625 101.652344 107.105469 101.527344 107.457031 C 101.402344 107.808594 101.300781 108.167969 101.21875 108.53125 C 101.136719 108.894531 101.082031 109.261719 101.046875 109.632812 C 101.011719 110.003906 101 110.375 101.011719 110.75 C 101.019531 111.121094 101.054688 111.492188 101.113281 111.859375 C 101.167969 112.226562 101.25 112.589844 101.351562 112.949219 C 101.453125 113.308594 101.578125 113.660156 101.722656 114 C 101.871094 114.34375 102.035156 114.675781 102.222656 115 C 102.410156 115.320312 102.617188 115.632812 102.839844 115.929688 C 103.066406 116.226562 103.308594 116.507812 103.570312 116.773438 C 103.828125 117.039062 104.105469 117.289062 104.398438 117.523438 C 104.6875 117.753906 104.992188 117.96875 105.308594 118.164062 C 105.628906 118.359375 105.957031 118.53125 106.296875 118.6875 C 106.636719 118.839844 106.984375 118.972656 107.339844 119.082031 C 107.695312 119.195312 108.054688 119.28125 108.421875 119.347656 C 108.789062 119.414062 109.160156 119.457031 109.53125 119.476562 C 109.902344 119.5 110.273438 119.496094 110.648438 119.46875 C 111.019531 119.441406 111.386719 119.394531 111.753906 119.324219 C 112.117188 119.25 112.480469 119.15625 112.832031 119.039062 C 113.1875 118.925781 113.53125 118.785156 113.871094 118.628906 C 114.207031 118.46875 114.53125 118.289062 114.847656 118.089844 C 115.160156 117.890625 115.464844 117.671875 115.75 117.433594 C 116.039062 117.199219 116.308594 116.945312 116.566406 116.671875 C 116.824219 116.402344 117.0625 116.117188 117.28125 115.816406 C 117.503906 115.515625 117.703125 115.203125 117.886719 114.878906 C 118.066406 114.554688 118.230469 114.21875 118.371094 113.871094 C 118.507812 113.527344 118.628906 113.175781 118.726562 112.816406 C 118.820312 112.457031 118.894531 112.089844 118.945312 111.722656 C 119 111.351562 119.027344 110.980469 119.03125 110.609375 C 119.039062 110.238281 119.019531 109.863281 118.980469 109.496094 C 118.9375 109.125 118.875 108.757812 118.789062 108.394531 C 118.703125 108.03125 118.59375 107.675781 118.464844 107.328125 C 118.335938 106.976562 118.183594 106.636719 118.011719 106.308594 C 117.839844 105.976562 117.644531 105.660156 117.433594 105.351562 C 117.222656 105.046875 116.992188 104.753906 116.746094 104.476562 C 116.496094 104.199219 116.230469 103.9375 115.953125 103.691406 C 115.671875 103.445312 115.375 103.21875 115.066406 103.007812 C 114.757812 102.800781 114.4375 102.613281 114.105469 102.441406 C 113.773438 102.273438 113.433594 102.125 113.082031 102 Z M 110.105469 113.367188 C 109.710938 113.367188 109.332031 113.292969 108.96875 113.140625 C 108.601562 112.992188 108.28125 112.777344 108 112.496094 C 107.722656 112.21875 107.507812 111.894531 107.355469 111.53125 C 107.207031 111.167969 107.128906 110.785156 107.128906 110.390625 C 107.128906 109.996094 107.207031 109.617188 107.355469 109.253906 C 107.507812 108.890625 107.722656 108.566406 108 108.289062 C 108.28125 108.007812 108.601562 107.792969 108.96875 107.644531 C 109.332031 107.492188 109.710938 107.417969 110.105469 107.417969 C 110.5 107.417969 110.878906 107.492188 111.246094 107.644531 C 111.609375 107.792969 111.929688 108.007812 112.210938 108.289062 C 112.488281 108.566406 112.703125 108.890625 112.855469 109.253906 C 113.007812 109.617188 113.082031 109.996094 113.082031 110.390625 C 113.082031 110.785156 113.007812 111.167969 112.855469 111.53125 C 112.703125 111.894531 112.488281 112.21875 112.210938 112.496094 C 111.929688 112.777344 111.609375 112.992188 111.246094 113.140625 C 110.878906 113.292969 110.5 113.367188 110.105469 113.367188 Z M 113.082031 102 C 112.125 101.636719 111.132812 101.457031 110.105469 101.464844 C 109.734375 101.460938 109.363281 101.480469 108.992188 101.523438 C 108.621094 101.566406 108.253906 101.628906 107.894531 101.71875 C 107.53125 101.804688 107.175781 101.917969 106.828125 102.046875 C 106.476562 102.179688 106.140625 102.332031 105.808594 102.507812 C 105.480469 102.679688 105.164062 102.875 104.855469 103.089844 C 104.550781 103.300781 104.261719 103.535156 103.984375 103.78125 C 103.707031 104.03125 103.445312 104.296875 103.203125 104.582031 C 102.960938 104.863281 102.734375 105.15625 102.527344 105.46875 C 102.320312 105.777344 102.132812 106.097656 101.964844 106.433594 C 101.796875 106.765625 101.652344 107.105469 101.527344 107.457031 C 101.402344 107.808594 101.300781 108.167969 101.21875 108.53125 C 101.136719 108.894531 101.082031 109.261719 101.046875 109.632812 C 101.011719 110.003906 101 110.375 101.011719 110.75 C 101.019531 111.121094 101.054688 111.492188 101.113281 111.859375 C 101.167969 112.226562 101.25 112.589844 101.351562 112.949219 C 101.453125 113.308594 101.578125 113.660156 101.722656 114 C 101.871094 114.34375 102.035156 114.675781 102.222656 115 C 102.410156 115.320312 102.617188 115.632812 102.839844 115.929688 C 103.066406 116.226562 103.308594 116.507812 103.570312 116.773438 C 103.828125 117.039062 104.105469 117.289062 104.398438 117.523438 C 104.6875 117.753906 104.992188 117.96875 105.308594 118.164062 C 105.628906 118.359375 105.957031 118.53125 106.296875 118.6875 C 106.636719 118.839844 106.984375 118.972656 107.339844 119.082031 C 107.695312 119.195312 108.054688 119.28125 108.421875 119.347656 C 108.789062 119.414062 109.160156 119.457031 109.53125 119.476562 C 109.902344 119.5 110.273438 119.496094 110.648438 119.46875 C 111.019531 119.441406 111.386719 119.394531 111.753906 119.324219 C 112.117188 119.25 112.480469 119.15625 112.832031 119.039062 C 113.1875 118.925781 113.53125 118.785156 113.871094 118.628906 C 114.207031 118.46875 114.53125 118.289062 114.847656 118.089844 C 115.160156 117.890625 115.464844 117.671875 115.75 117.433594 C 116.039062 117.199219 116.308594 116.945312 116.566406 116.671875 C 116.824219 116.402344 117.0625 116.117188 117.28125 115.816406 C 117.503906 115.515625 117.703125 115.203125 117.886719 114.878906 C 118.066406 114.554688 118.230469 114.21875 118.371094 113.871094 C 118.507812 113.527344 118.628906 113.175781 118.726562 112.816406 C 118.820312 112.457031 118.894531 112.089844 118.945312 111.722656 C 119 111.351562 119.027344 110.980469 119.03125 110.609375 C 119.039062 110.238281 119.019531 109.863281 118.980469 109.496094 C 118.9375 109.125 118.875 108.757812 118.789062 108.394531 C 118.703125 108.03125 118.59375 107.675781 118.464844 107.328125 C 118.335938 106.976562 118.183594 106.636719 118.011719 106.308594 C 117.839844 105.976562 117.644531 105.660156 117.433594 105.351562 C 117.222656 105.046875 116.992188 104.753906 116.746094 104.476562 C 116.496094 104.199219 116.230469 103.9375 115.953125 103.691406 C 115.671875 103.445312 115.375 103.21875 115.066406 103.007812 C 114.757812 102.800781 114.4375 102.613281 114.105469 102.441406 C 113.773438 102.273438 113.433594 102.125 113.082031 102 Z M 110.105469 113.367188 C 109.710938 113.367188 109.332031 113.292969 108.96875 113.140625 C 108.601562 112.992188 108.28125 112.777344 108 112.496094 C 107.722656 112.21875 107.507812 111.894531 107.355469 111.53125 C 107.207031 111.167969 107.128906 110.785156 107.128906 110.390625 C 107.128906 109.996094 107.207031 109.617188 107.355469 109.253906 C 107.507812 108.890625 107.722656 108.566406 108 108.289062 C 108.28125 108.007812 108.601562 107.792969 108.96875 107.644531 C 109.332031 107.492188 109.710938 107.417969 110.105469 107.417969 C 110.5 107.417969 110.878906 107.492188 111.246094 107.644531 C 111.609375 107.792969 111.929688 108.007812 112.210938 108.289062 C 112.488281 108.566406 112.703125 108.890625 112.855469 109.253906 C 113.007812 109.617188 113.082031 109.996094 113.082031 110.390625 C 113.082031 110.785156 113.007812 111.167969 112.855469 111.53125 C 112.703125 111.894531 112.488281 112.21875 112.210938 112.496094 C 111.929688 112.777344 111.609375 112.992188 111.246094 113.140625 C 110.878906 113.292969 110.5 113.367188 110.105469 113.367188 Z M 113.082031 102 C 112.125 101.636719 111.132812 101.457031 110.105469 101.464844 C 109.734375 101.460938 109.363281 101.480469 108.992188 101.523438 C 108.621094 101.566406 108.253906 101.628906 107.894531 101.71875 C 107.53125 101.804688 107.175781 101.917969 106.828125 102.046875 C 106.476562 102.179688 106.140625 102.332031 105.808594 102.507812 C 105.480469 102.679688 105.164062 102.875 104.855469 103.089844 C 104.550781 103.300781 104.261719 103.535156 103.984375 103.78125 C 103.707031 104.03125 103.445312 104.296875 103.203125 104.582031 C 102.960938 104.863281 102.734375 105.15625 102.527344 105.46875 C 102.320312 105.777344 102.132812 106.097656 101.964844 106.433594 C 101.796875 106.765625 101.652344 107.105469 101.527344 107.457031 C 101.402344 107.808594 101.300781 108.167969 101.21875 108.53125 C 101.136719 108.894531 101.082031 109.261719 101.046875 109.632812 C 101.011719 110.003906 101 110.375 101.011719 110.75 C 101.019531 111.121094 101.054688 111.492188 101.113281 111.859375 C 101.167969 112.226562 101.25 112.589844 101.351562 112.949219 C 101.453125 113.308594 101.578125 113.660156 101.722656 114 C 101.871094 114.34375 102.035156 114.675781 102.222656 115 C 102.410156 115.320312 102.617188 115.632812 102.839844 115.929688 C 103.066406 116.226562 103.308594 116.507812 103.570312 116.773438 C 103.828125 117.039062 104.105469 117.289062 104.398438 117.523438 C 104.6875 117.753906 104.992188 117.96875 105.308594 118.164062 C 105.628906 118.359375 105.957031 118.53125 106.296875 118.6875 C 106.636719 118.839844 106.984375 118.972656 107.339844 119.082031 C 107.695312 119.195312 108.054688 119.28125 108.421875 119.347656 C 108.789062 119.414062 109.160156 119.457031 109.53125 119.476562 C 109.902344 119.5 110.273438 119.496094 110.648438 119.46875 C 111.019531 119.441406 111.386719 119.394531 111.753906 119.324219 C 112.117188 119.25 112.480469 119.15625 112.832031 119.039062 C 113.1875 118.925781 113.53125 118.785156 113.871094 118.628906 C 114.207031 118.46875 114.53125 118.289062 114.847656 118.089844 C 115.160156 117.890625 115.464844 117.671875 115.75 117.433594 C 116.039062 117.199219 116.308594 116.945312 116.566406 116.671875 C 116.824219 116.402344 117.0625 116.117188 117.28125 115.816406 C 117.503906 115.515625 117.703125 115.203125 117.886719 114.878906 C 118.066406 114.554688 118.230469 114.21875 118.371094 113.871094 C 118.507812 113.527344 118.628906 113.175781 118.726562 112.816406 C 118.820312 112.457031 118.894531 112.089844 118.945312 111.722656 C 119 111.351562 119.027344 110.980469 119.03125 110.609375 C 119.039062 110.238281 119.019531 109.863281 118.980469 109.496094 C 118.9375 109.125 118.875 108.757812 118.789062 108.394531 C 118.703125 108.03125 118.59375 107.675781 118.464844 107.328125 C 118.335938 106.976562 118.183594 106.636719 118.011719 106.308594 C 117.839844 105.976562 117.644531 105.660156 117.433594 105.351562 C 117.222656 105.046875 116.992188 104.753906 116.746094 104.476562 C 116.496094 104.199219 116.230469 103.9375 115.953125 103.691406 C 115.671875 103.445312 115.375 103.21875 115.066406 103.007812 C 114.757812 102.800781 114.4375 102.613281 114.105469 102.441406 C 113.773438 102.273438 113.433594 102.125 113.082031 102 Z M 110.105469 113.367188 C 109.710938 113.367188 109.332031 113.292969 108.96875 113.140625 C 108.601562 112.992188 108.28125 112.777344 108 112.496094 C 107.722656 112.21875 107.507812 111.894531 107.355469 111.53125 C 107.207031 111.167969 107.128906 110.785156 107.128906 110.390625 C 107.128906 109.996094 107.207031 109.617188 107.355469 109.253906 C 107.507812 108.890625 107.722656 108.566406 108 108.289062 C 108.28125 108.007812 108.601562 107.792969 108.96875 107.644531 C 109.332031 107.492188 109.710938 107.417969 110.105469 107.417969 C 110.5 107.417969 110.878906 107.492188 111.246094 107.644531 C 111.609375 107.792969 111.929688 108.007812 112.210938 108.289062 C 112.488281 108.566406 112.703125 108.890625 112.855469 109.253906 C 113.007812 109.617188 113.082031 109.996094 113.082031 110.390625 C 113.082031 110.785156 113.007812 111.167969 112.855469 111.53125 C 112.703125 111.894531 112.488281 112.21875 112.210938 112.496094 C 111.929688 112.777344 111.609375 112.992188 111.246094 113.140625 C 110.878906 113.292969 110.5 113.367188 110.105469 113.367188 Z M 113.082031 102 C 112.125 101.636719 111.132812 101.457031 110.105469 101.464844 C 109.734375 101.460938 109.363281 101.480469 108.992188 101.523438 C 108.621094 101.566406 108.253906 101.628906 107.894531 101.71875 C 107.53125 101.804688 107.175781 101.917969 106.828125 102.046875 C 106.476562 102.179688 106.140625 102.332031 105.808594 102.507812 C 105.480469 102.679688 105.164062 102.875 104.855469 103.089844 C 104.550781 103.300781 104.261719 103.535156 103.984375 103.78125 C 103.707031 104.03125 103.445312 104.296875 103.203125 104.582031 C 102.960938 104.863281 102.734375 105.15625 102.527344 105.46875 C 102.320312 105.777344 102.132812 106.097656 101.964844 106.433594 C 101.796875 106.765625 101.652344 107.105469 101.527344 107.457031 C 101.402344 107.808594 101.300781 108.167969 101.21875 108.53125 C 101.136719 108.894531 101.082031 109.261719 101.046875 109.632812 C 101.011719 110.003906 101 110.375 101.011719 110.75 C 101.019531 111.121094 101.054688 111.492188 101.113281 111.859375 C 101.167969 112.226562 101.25 112.589844 101.351562 112.949219 C 101.453125 113.308594 101.578125 113.660156 101.722656 114 C 101.871094 114.34375 102.035156 114.675781 102.222656 115 C 102.410156 115.320312 102.617188 115.632812 102.839844 115.929688 C 103.066406 116.226562 103.308594 116.507812 103.570312 116.773438 C 103.828125 117.039062 104.105469 117.289062 104.398438 117.523438 C 104.6875 117.753906 104.992188 117.96875 105.308594 118.164062 C 105.628906 118.359375 105.957031 118.53125 106.296875 118.6875 C 106.636719 118.839844 106.984375 118.972656 107.339844 119.082031 C 107.695312 119.195312 108.054688 119.28125 108.421875 119.347656 C 108.789062 119.414062 109.160156 119.457031 109.53125 119.476562 C 109.902344 119.5 110.273438 119.496094 110.648438 119.46875 C 111.019531 119.441406 111.386719 119.394531 111.753906 119.324219 C 112.117188 119.25 112.480469 119.15625 112.832031 119.039062 C 113.1875 118.925781 113.53125 118.785156 113.871094 118.628906 C 114.207031 118.46875 114.53125 118.289062 114.847656 118.089844 C 115.160156 117.890625 115.464844 117.671875 115.75 117.433594 C 116.039062 117.199219 116.308594 116.945312 116.566406 116.671875 C 116.824219 116.402344 117.0625 116.117188 117.28125 115.816406 C 117.503906 115.515625 117.703125 115.203125 117.886719 114.878906 C 118.066406 114.554688 118.230469 114.21875 118.371094 113.871094 C 118.507812 113.527344 118.628906 113.175781 118.726562 112.816406 C 118.820312 112.457031 118.894531 112.089844 118.945312 111.722656 C 119 111.351562 119.027344 110.980469 119.03125 110.609375 C 119.039062 110.238281 119.019531 109.863281 118.980469 109.496094 C 118.9375 109.125 118.875 108.757812 118.789062 108.394531 C 118.703125 108.03125 118.59375 107.675781 118.464844 107.328125 C 118.335938 106.976562 118.183594 106.636719 118.011719 106.308594 C 117.839844 105.976562 117.644531 105.660156 117.433594 105.351562 C 117.222656 105.046875 116.992188 104.753906 116.746094 104.476562 C 116.496094 104.199219 116.230469 103.9375 115.953125 103.691406 C 115.671875 103.445312 115.375 103.21875 115.066406 103.007812 C 114.757812 102.800781 114.4375 102.613281 114.105469 102.441406 C 113.773438 102.273438 113.433594 102.125 113.082031 102 Z M 110.105469 113.367188 C 109.710938 113.367188 109.332031 113.292969 108.96875 113.140625 C 108.601562 112.992188 108.28125 112.777344 108 112.496094 C 107.722656 112.21875 107.507812 111.894531 107.355469 111.53125 C 107.207031 111.167969 107.128906 110.785156 107.128906 110.390625 C 107.128906 109.996094 107.207031 109.617188 107.355469 109.253906 C 107.507812 108.890625 107.722656 108.566406 108 108.289062 C 108.28125 108.007812 108.601562 107.792969 108.96875 107.644531 C 109.332031 107.492188 109.710938 107.417969 110.105469 107.417969 C 110.5 107.417969 110.878906 107.492188 111.246094 107.644531 C 111.609375 107.792969 111.929688 108.007812 112.210938 108.289062 C 112.488281 108.566406 112.703125 108.890625 112.855469 109.253906 C 113.007812 109.617188 113.082031 109.996094 113.082031 110.390625 C 113.082031 110.785156 113.007812 111.167969 112.855469 111.53125 C 112.703125 111.894531 112.488281 112.21875 112.210938 112.496094 C 111.929688 112.777344 111.609375 112.992188 111.246094 113.140625 C 110.878906 113.292969 110.5 113.367188 110.105469 113.367188 Z M 113.082031 102 C 112.125 101.636719 111.132812 101.457031 110.105469 101.464844 C 109.734375 101.460938 109.363281 101.480469 108.992188 101.523438 C 108.621094 101.566406 108.253906 101.628906 107.894531 101.71875 C 107.53125 101.804688 107.175781 101.917969 106.828125 102.046875 C 106.476562 102.179688 106.140625 102.332031 105.808594 102.507812 C 105.480469 102.679688 105.164062 102.875 104.855469 103.089844 C 104.550781 103.300781 104.261719 103.535156 103.984375 103.78125 C 103.707031 104.03125 103.445312 104.296875 103.203125 104.582031 C 102.960938 104.863281 102.734375 105.15625 102.527344 105.46875 C 102.320312 105.777344 102.132812 106.097656 101.964844 106.433594 C 101.796875 106.765625 101.652344 107.105469 101.527344 107.457031 C 101.402344 107.808594 101.300781 108.167969 101.21875 108.53125 C 101.136719 108.894531 101.082031 109.261719 101.046875 109.632812 C 101.011719 110.003906 101 110.375 101.011719 110.75 C 101.019531 111.121094 101.054688 111.492188 101.113281 111.859375 C 101.167969 112.226562 101.25 112.589844 101.351562 112.949219 C 101.453125 113.308594 101.578125 113.660156 101.722656 114 C 101.871094 114.34375 102.035156 114.675781 102.222656 115 C 102.410156 115.320312 102.617188 115.632812 102.839844 115.929688 C 103.066406 116.226562 103.308594 116.507812 103.570312 116.773438 C 103.828125 117.039062 104.105469 117.289062 104.398438 117.523438 C 104.6875 117.753906 104.992188 117.96875 105.308594 118.164062 C 105.628906 118.359375 105.957031 118.53125 106.296875 118.6875 C 106.636719 118.839844 106.984375 118.972656 107.339844 119.082031 C 107.695312 119.195312 108.054688 119.28125 108.421875 119.347656 C 108.789062 119.414062 109.160156 119.457031 109.53125 119.476562 C 109.902344 119.5 110.273438 119.496094 110.648438 119.46875 C 111.019531 119.441406 111.386719 119.394531 111.753906 119.324219 C 112.117188 119.25 112.480469 119.15625 112.832031 119.039062 C 113.1875 118.925781 113.53125 118.785156 113.871094 118.628906 C 114.207031 118.46875 114.53125 118.289062 114.847656 118.089844 C 115.160156 117.890625 115.464844 117.671875 115.75 117.433594 C 116.039062 117.199219 116.308594 116.945312 116.566406 116.671875 C 116.824219 116.402344 117.0625 116.117188 117.28125 115.816406 C 117.503906 115.515625 117.703125 115.203125 117.886719 114.878906 C 118.066406 114.554688 118.230469 114.21875 118.371094 113.871094 C 118.507812 113.527344 118.628906 113.175781 118.726562 112.816406 C 118.820312 112.457031 118.894531 112.089844 118.945312 111.722656 C 119 111.351562 119.027344 110.980469 119.03125 110.609375 C 119.039062 110.238281 119.019531 109.863281 118.980469 109.496094 C 118.9375 109.125 118.875 108.757812 118.789062 108.394531 C 118.703125 108.03125 118.59375 107.675781 118.464844 107.328125 C 118.335938 106.976562 118.183594 106.636719 118.011719 106.308594 C 117.839844 105.976562 117.644531 105.660156 117.433594 105.351562 C 117.222656 105.046875 116.992188 104.753906 116.746094 104.476562 C 116.496094 104.199219 116.230469 103.9375 115.953125 103.691406 C 115.671875 103.445312 115.375 103.21875 115.066406 103.007812 C 114.757812 102.800781 114.4375 102.613281 114.105469 102.441406 C 113.773438 102.273438 113.433594 102.125 113.082031 102 Z M 110.105469 113.367188 C 109.710938 113.367188 109.332031 113.292969 108.96875 113.140625 C 108.601562 112.992188 108.28125 112.777344 108 112.496094 C 107.722656 112.21875 107.507812 111.894531 107.355469 111.53125 C 107.207031 111.167969 107.128906 110.785156 107.128906 110.390625 C 107.128906 109.996094 107.207031 109.617188 107.355469 109.253906 C 107.507812 108.890625 107.722656 108.566406 108 108.289062 C 108.28125 108.007812 108.601562 107.792969 108.96875 107.644531 C 109.332031 107.492188 109.710938 107.417969 110.105469 107.417969 C 110.5 107.417969 110.878906 107.492188 111.246094 107.644531 C 111.609375 107.792969 111.929688 108.007812 112.210938 108.289062 C 112.488281 108.566406 112.703125 108.890625 112.855469 109.253906 C 113.007812 109.617188 113.082031 109.996094 113.082031 110.390625 C 113.082031 110.785156 113.007812 111.167969 112.855469 111.53125 C 112.703125 111.894531 112.488281 112.21875 112.210938 112.496094 C 111.929688 112.777344 111.609375 112.992188 111.246094 113.140625 C 110.878906 113.292969 110.5 113.367188 110.105469 113.367188 Z M 113.082031 102 C 112.125 101.636719 111.132812 101.457031 110.105469 101.464844 C 109.734375 101.460938 109.363281 101.480469 108.992188 101.523438 C 108.621094 101.566406 108.253906 101.628906 107.894531 101.71875 C 107.53125 101.804688 107.175781 101.917969 106.828125 102.046875 C 106.476562 102.179688 106.140625 102.332031 105.808594 102.507812 C 105.480469 102.679688 105.164062 102.875 104.855469 103.089844 C 104.550781 103.300781 104.261719 103.535156 103.984375 103.78125 C 103.707031 104.03125 103.445312 104.296875 103.203125 104.582031 C 102.960938 104.863281 102.734375 105.15625 102.527344 105.46875 C 102.320312 105.777344 102.132812 106.097656 101.964844 106.433594 C 101.796875 106.765625 101.652344 107.105469 101.527344 107.457031 C 101.402344 107.808594 101.300781 108.167969 101.21875 108.53125 C 101.136719 108.894531 101.082031 109.261719 101.046875 109.632812 C 101.011719 110.003906 101 110.375 101.011719 110.75 C 101.019531 111.121094 101.054688 111.492188 101.113281 111.859375 C 101.167969 112.226562 101.25 112.589844 101.351562 112.949219 C 101.453125 113.308594 101.578125 113.660156 101.722656 114 C 101.871094 114.34375 102.035156 114.675781 102.222656 115 C 102.410156 115.320312 102.617188 115.632812 102.839844 115.929688 C 103.066406 116.226562 103.308594 116.507812 103.570312 116.773438 C 103.828125 117.039062 104.105469 117.289062 104.398438 117.523438 C 104.6875 117.753906 104.992188 117.96875 105.308594 118.164062 C 105.628906 118.359375 105.957031 118.53125 106.296875 118.6875 C 106.636719 118.839844 106.984375 118.972656 107.339844 119.082031 C 107.695312 119.195312 108.054688 119.28125 108.421875 119.347656 C 108.789062 119.414062 109.160156 119.457031 109.53125 119.476562 C 109.902344 119.5 110.273438 119.496094 110.648438 119.46875 C 111.019531 119.441406 111.386719 119.394531 111.753906 119.324219 C 112.117188 119.25 112.480469 119.15625 112.832031 119.039062 C 113.1875 118.925781 113.53125 118.785156 113.871094 118.628906 C 114.207031 118.46875 114.53125 118.289062 114.847656 118.089844 C 115.160156 117.890625 115.464844 117.671875 115.75 117.433594 C 116.039062 117.199219 116.308594 116.945312 116.566406 116.671875 C 116.824219 116.402344 117.0625 116.117188 117.28125 115.816406 C 117.503906 115.515625 117.703125 115.203125 117.886719 114.878906 C 118.066406 114.554688 118.230469 114.21875 118.371094 113.871094 C 118.507812 113.527344 118.628906 113.175781 118.726562 112.816406 C 118.820312 112.457031 118.894531 112.089844 118.945312 111.722656 C 119 111.351562 119.027344 110.980469 119.03125 110.609375 C 119.039062 110.238281 119.019531 109.863281 118.980469 109.496094 C 118.9375 109.125 118.875 108.757812 118.789062 108.394531 C 118.703125 108.03125 118.59375 107.675781 118.464844 107.328125 C 118.335938 106.976562 118.183594 106.636719 118.011719 106.308594 C 117.839844 105.976562 117.644531 105.660156 117.433594 105.351562 C 117.222656 105.046875 116.992188 104.753906 116.746094 104.476562 C 116.496094 104.199219 116.230469 103.9375 115.953125 103.691406 C 115.671875 103.445312 115.375 103.21875 115.066406 103.007812 C 114.757812 102.800781 114.4375 102.613281 114.105469 102.441406 C 113.773438 102.273438 113.433594 102.125 113.082031 102 Z M 110.105469 113.367188 C 109.710938 113.367188 109.332031 113.292969 108.96875 113.140625 C 108.601562 112.992188 108.28125 112.777344 108 112.496094 C 107.722656 112.21875 107.507812 111.894531 107.355469 111.53125 C 107.207031 111.167969 107.128906 110.785156 107.128906 110.390625 C 107.128906 109.996094 107.207031 109.617188 107.355469 109.253906 C 107.507812 108.890625 107.722656 108.566406 108 108.289062 C 108.28125 108.007812 108.601562 107.792969 108.96875 107.644531 C 109.332031 107.492188 109.710938 107.417969 110.105469 107.417969 C 110.5 107.417969 110.878906 107.492188 111.246094 107.644531 C 111.609375 107.792969 111.929688 108.007812 112.210938 108.289062 C 112.488281 108.566406 112.703125 108.890625 112.855469 109.253906 C 113.007812 109.617188 113.082031 109.996094 113.082031 110.390625 C 113.082031 110.785156 113.007812 111.167969 112.855469 111.53125 C 112.703125 111.894531 112.488281 112.21875 112.210938 112.496094 C 111.929688 112.777344 111.609375 112.992188 111.246094 113.140625 C 110.878906 113.292969 110.5 113.367188 110.105469 113.367188 Z M 113.082031 102 C 112.125 101.636719 111.132812 101.457031 110.105469 101.464844 C 109.734375 101.460938 109.363281 101.480469 108.992188 101.523438 C 108.621094 101.566406 108.253906 101.628906 107.894531 101.71875 C 107.53125 101.804688 107.175781 101.917969 106.828125 102.046875 C 106.476562 102.179688 106.140625 102.332031 105.808594 102.507812 C 105.480469 102.679688 105.164062 102.875 104.855469 103.089844 C 104.550781 103.300781 104.261719 103.535156 103.984375 103.78125 C 103.707031 104.03125 103.445312 104.296875 103.203125 104.582031 C 102.960938 104.863281 102.734375 105.15625 102.527344 105.46875 C 102.320312 105.777344 102.132812 106.097656 101.964844 106.433594 C 101.796875 106.765625 101.652344 107.105469 101.527344 107.457031 C 101.402344 107.808594 101.300781 108.167969 101.21875 108.53125 C 101.136719 108.894531 101.082031 109.261719 101.046875 109.632812 C 101.011719 110.003906 101 110.375 101.011719 110.75 C 101.019531 111.121094 101.054688 111.492188 101.113281 111.859375 C 101.167969 112.226562 101.25 112.589844 101.351562 112.949219 C 101.453125 113.308594 101.578125 113.660156 101.722656 114 C 101.871094 114.34375 102.035156 114.675781 102.222656 115 C 102.410156 115.320312 102.617188 115.632812 102.839844 115.929688 C 103.066406 116.226562 103.308594 116.507812 103.570312 116.773438 C 103.828125 117.039062 104.105469 117.289062 104.398438 117.523438 C 104.6875 117.753906 104.992188 117.96875 105.308594 118.164062 C 105.628906 118.359375 105.957031 118.53125 106.296875 118.6875 C 106.636719 118.839844 106.984375 118.972656 107.339844 119.082031 C 107.695312 119.195312 108.054688 119.28125 108.421875 119.347656 C 108.789062 119.414062 109.160156 119.457031 109.53125 119.476562 C 109.902344 119.5 110.273438 119.496094 110.648438 119.46875 C 111.019531 119.441406 111.386719 119.394531 111.753906 119.324219 C 112.117188 119.25 112.480469 119.15625 112.832031 119.039062 C 113.1875 118.925781 113.53125 118.785156 113.871094 118.628906 C 114.207031 118.46875 114.53125 118.289062 114.847656 118.089844 C 115.160156 117.890625 115.464844 117.671875 115.75 117.433594 C 116.039062 117.199219 116.308594 116.945312 116.566406 116.671875 C 116.824219 116.402344 117.0625 116.117188 117.28125 115.816406 C 117.503906 115.515625 117.703125 115.203125 117.886719 114.878906 C 118.066406 114.554688 118.230469 114.21875 118.371094 113.871094 C 118.507812 113.527344 118.628906 113.175781 118.726562 112.816406 C 118.820312 112.457031 118.894531 112.089844 118.945312 111.722656 C 119 111.351562 119.027344 110.980469 119.03125 110.609375 C 119.039062 110.238281 119.019531 109.863281 118.980469 109.496094 C 118.9375 109.125 118.875 108.757812 118.789062 108.394531 C 118.703125 108.03125 118.59375 107.675781 118.464844 107.328125 C 118.335938 106.976562 118.183594 106.636719 118.011719 106.308594 C 117.839844 105.976562 117.644531 105.660156 117.433594 105.351562 C 117.222656 105.046875 116.992188 104.753906 116.746094 104.476562 C 116.496094 104.199219 116.230469 103.9375 115.953125 103.691406 C 115.671875 103.445312 115.375 103.21875 115.066406 103.007812 C 114.757812 102.800781 114.4375 102.613281 114.105469 102.441406 C 113.773438 102.273438 113.433594 102.125 113.082031 102 Z M 110.105469 113.367188 C 109.710938 113.367188 109.332031 113.292969 108.96875 113.140625 C 108.601562 112.992188 108.28125 112.777344 108 112.496094 C 107.722656 112.21875 107.507812 111.894531 107.355469 111.53125 C 107.207031 111.167969 107.128906 110.785156 107.128906 110.390625 C 107.128906 109.996094 107.207031 109.617188 107.355469 109.253906 C 107.507812 108.890625 107.722656 108.566406 108 108.289062 C 108.28125 108.007812 108.601562 107.792969 108.96875 107.644531 C 109.332031 107.492188 109.710938 107.417969 110.105469 107.417969 C 110.5 107.417969 110.878906 107.492188 111.246094 107.644531 C 111.609375 107.792969 111.929688 108.007812 112.210938 108.289062 C 112.488281 108.566406 112.703125 108.890625 112.855469 109.253906 C 113.007812 109.617188 113.082031 109.996094 113.082031 110.390625 C 113.082031 110.785156 113.007812 111.167969 112.855469 111.53125 C 112.703125 111.894531 112.488281 112.21875 112.210938 112.496094 C 111.929688 112.777344 111.609375 112.992188 111.246094 113.140625 C 110.878906 113.292969 110.5 113.367188 110.105469 113.367188 Z M 113.082031 102 C 112.125 101.636719 111.132812 101.457031 110.105469 101.464844 C 109.734375 101.460938 109.363281 101.480469 108.992188 101.523438 C 108.621094 101.566406 108.253906 101.628906 107.894531 101.71875 C 107.53125 101.804688 107.175781 101.917969 106.828125 102.046875 C 106.476562 102.179688 106.140625 102.332031 105.808594 102.507812 C 105.480469 102.679688 105.164062 102.875 104.855469 103.089844 C 104.550781 103.300781 104.261719 103.535156 103.984375 103.78125 C 103.707031 104.03125 103.445312 104.296875 103.203125 104.582031 C 102.960938 104.863281 102.734375 105.15625 102.527344 105.46875 C 102.320312 105.777344 102.132812 106.097656 101.964844 106.433594 C 101.796875 106.765625 101.652344 107.105469 101.527344 107.457031 C 101.402344 107.808594 101.300781 108.167969 101.21875 108.53125 C 101.136719 108.894531 101.082031 109.261719 101.046875 109.632812 C 101.011719 110.003906 101 110.375 101.011719 110.75 C 101.019531 111.121094 101.054688 111.492188 101.113281 111.859375 C 101.167969 112.226562 101.25 112.589844 101.351562 112.949219 C 101.453125 113.308594 101.578125 113.660156 101.722656 114 C 101.871094 114.34375 102.035156 114.675781 102.222656 115 C 102.410156 115.320312 102.617188 115.632812 102.839844 115.929688 C 103.066406 116.226562 103.308594 116.507812 103.570312 116.773438 C 103.828125 117.039062 104.105469 117.289062 104.398438 117.523438 C 104.6875 117.753906 104.992188 117.96875 105.308594 118.164062 C 105.628906 118.359375 105.957031 118.53125 106.296875 118.6875 C 106.636719 118.839844 106.984375 118.972656 107.339844 119.082031 C 107.695312 119.195312 108.054688 119.28125 108.421875 119.347656 C 108.789062 119.414062 109.160156 119.457031 109.53125 119.476562 C 109.902344 119.5 110.273438 119.496094 110.648438 119.46875 C 111.019531 119.441406 111.386719 119.394531 111.753906 119.324219 C 112.117188 119.25 112.480469 119.15625 112.832031 119.039062 C 113.1875 118.925781 113.53125 118.785156 113.871094 118.628906 C 114.207031 118.46875 114.53125 118.289062 114.847656 118.089844 C 115.160156 117.890625 115.464844 117.671875 115.75 117.433594 C 116.039062 117.199219 116.308594 116.945312 116.566406 116.671875 C 116.824219 116.402344 117.0625 116.117188 117.28125 115.816406 C 117.503906 115.515625 117.703125 115.203125 117.886719 114.878906 C 118.066406 114.554688 118.230469 114.21875 118.371094 113.871094 C 118.507812 113.527344 118.628906 113.175781 118.726562 112.816406 C 118.820312 112.457031 118.894531 112.089844 118.945312 111.722656 C 119 111.351562 119.027344 110.980469 119.03125 110.609375 C 119.039062 110.238281 119.019531 109.863281 118.980469 109.496094 C 118.9375 109.125 118.875 108.757812 118.789062 108.394531 C 118.703125 108.03125 118.59375 107.675781 118.464844 107.328125 C 118.335938 106.976562 118.183594 106.636719 118.011719 106.308594 C 117.839844 105.976562 117.644531 105.660156 117.433594 105.351562 C 117.222656 105.046875 116.992188 104.753906 116.746094 104.476562 C 116.496094 104.199219 116.230469 103.9375 115.953125 103.691406 C 115.671875 103.445312 115.375 103.21875 115.066406 103.007812 C 114.757812 102.800781 114.4375 102.613281 114.105469 102.441406 C 113.773438 102.273438 113.433594 102.125 113.082031 102 Z M 110.105469 113.367188 C 109.710938 113.367188 109.332031 113.292969 108.96875 113.140625 C 108.601562 112.992188 108.28125 112.777344 108 112.496094 C 107.722656 112.21875 107.507812 111.894531 107.355469 111.53125 C 107.207031 111.167969 107.128906 110.785156 107.128906 110.390625 C 107.128906 109.996094 107.207031 109.617188 107.355469 109.253906 C 107.507812 108.890625 107.722656 108.566406 108 108.289062 C 108.28125 108.007812 108.601562 107.792969 108.96875 107.644531 C 109.332031 107.492188 109.710938 107.417969 110.105469 107.417969 C 110.5 107.417969 110.878906 107.492188 111.246094 107.644531 C 111.609375 107.792969 111.929688 108.007812 112.210938 108.289062 C 112.488281 108.566406 112.703125 108.890625 112.855469 109.253906 C 113.007812 109.617188 113.082031 109.996094 113.082031 110.390625 C 113.082031 110.785156 113.007812 111.167969 112.855469 111.53125 C 112.703125 111.894531 112.488281 112.21875 112.210938 112.496094 C 111.929688 112.777344 111.609375 112.992188 111.246094 113.140625 C 110.878906 113.292969 110.5 113.367188 110.105469 113.367188 Z M 113.082031 102 C 112.125 101.636719 111.132812 101.457031 110.105469 101.464844 C 109.734375 101.460938 109.363281 101.480469 108.992188 101.523438 C 108.621094 101.566406 108.253906 101.628906 107.894531 101.71875 C 107.53125 101.804688 107.175781 101.917969 106.828125 102.046875 C 106.476562 102.179688 106.140625 102.332031 105.808594 102.507812 C 105.480469 102.679688 105.164062 102.875 104.855469 103.089844 C 104.550781 103.300781 104.261719 103.535156 103.984375 103.78125 C 103.707031 104.03125 103.445312 104.296875 103.203125 104.582031 C 102.960938 104.863281 102.734375 105.15625 102.527344 105.46875 C 102.320312 105.777344 102.132812 106.097656 101.964844 106.433594 C 101.796875 106.765625 101.652344 107.105469 101.527344 107.457031 C 101.402344 107.808594 101.300781 108.167969 101.21875 108.53125 C 101.136719 108.894531 101.082031 109.261719 101.046875 109.632812 C 101.011719 110.003906 101 110.375 101.011719 110.75 C 101.019531 111.121094 101.054688 111.492188 101.113281 111.859375 C 101.167969 112.226562 101.25 112.589844 101.351562 112.949219 C 101.453125 113.308594 101.578125 113.660156 101.722656 114 C 101.871094 114.34375 102.035156 114.675781 102.222656 115 C 102.410156 115.320312 102.617188 115.632812 102.839844 115.929688 C 103.066406 116.226562 103.308594 116.507812 103.570312 116.773438 C 103.828125 117.039062 104.105469 117.289062 104.398438 117.523438 C 104.6875 117.753906 104.992188 117.96875 105.308594 118.164062 C 105.628906 118.359375 105.957031 118.53125 106.296875 118.6875 C 106.636719 118.839844 106.984375 118.972656 107.339844 119.082031 C 107.695312 119.195312 108.054688 119.28125 108.421875 119.347656 C 108.789062 119.414062 109.160156 119.457031 109.53125 119.476562 C 109.902344 119.5 110.273438 119.496094 110.648438 119.46875 C 111.019531 119.441406 111.386719 119.394531 111.753906 119.324219 C 112.117188 119.25 112.480469 119.15625 112.832031 119.039062 C 113.1875 118.925781 113.53125 118.785156 113.871094 118.628906 C 114.207031 118.46875 114.53125 118.289062 114.847656 118.089844 C 115.160156 117.890625 115.464844 117.671875 115.75 117.433594 C 116.039062 117.199219 116.308594 116.945312 116.566406 116.671875 C 116.824219 116.402344 117.0625 116.117188 117.28125 115.816406 C 117.503906 115.515625 117.703125 115.203125 117.886719 114.878906 C 118.066406 114.554688 118.230469 114.21875 118.371094 113.871094 C 118.507812 113.527344 118.628906 113.175781 118.726562 112.816406 C 118.820312 112.457031 118.894531 112.089844 118.945312 111.722656 C 119 111.351562 119.027344 110.980469 119.03125 110.609375 C 119.039062 110.238281 119.019531 109.863281 118.980469 109.496094 C 118.9375 109.125 118.875 108.757812 118.789062 108.394531 C 118.703125 108.03125 118.59375 107.675781 118.464844 107.328125 C 118.335938 106.976562 118.183594 106.636719 118.011719 106.308594 C 117.839844 105.976562 117.644531 105.660156 117.433594 105.351562 C 117.222656 105.046875 116.992188 104.753906 116.746094 104.476562 C 116.496094 104.199219 116.230469 103.9375 115.953125 103.691406 C 115.671875 103.445312 115.375 103.21875 115.066406 103.007812 C 114.757812 102.800781 114.4375 102.613281 114.105469 102.441406 C 113.773438 102.273438 113.433594 102.125 113.082031 102 Z M 110.105469 113.367188 C 109.710938 113.367188 109.332031 113.292969 108.96875 113.140625 C 108.601562 112.992188 108.28125 112.777344 108 112.496094 C 107.722656 112.21875 107.507812 111.894531 107.355469 111.53125 C 107.207031 111.167969 107.128906 110.785156 107.128906 110.390625 C 107.128906 109.996094 107.207031 109.617188 107.355469 109.253906 C 107.507812 108.890625 107.722656 108.566406 108 108.289062 C 108.28125 108.007812 108.601562 107.792969 108.96875 107.644531 C 109.332031 107.492188 109.710938 107.417969 110.105469 107.417969 C 110.5 107.417969 110.878906 107.492188 111.246094 107.644531 C 111.609375 107.792969 111.929688 108.007812 112.210938 108.289062 C 112.488281 108.566406 112.703125 108.890625 112.855469 109.253906 C 113.007812 109.617188 113.082031 109.996094 113.082031 110.390625 C 113.082031 110.785156 113.007812 111.167969 112.855469 111.53125 C 112.703125 111.894531 112.488281 112.21875 112.210938 112.496094 C 111.929688 112.777344 111.609375 112.992188 111.246094 113.140625 C 110.878906 113.292969 110.5 113.367188 110.105469 113.367188 Z M 110.105469 113.367188 " fill-opacity="1" fill-rule="nonzero"/><path fill="#f4b324" d="M 113.082031 102 C 112.125 101.636719 111.132812 101.457031 110.105469 101.464844 C 109.734375 101.460938 109.363281 101.480469 108.992188 101.523438 C 108.621094 101.566406 108.253906 101.628906 107.894531 101.71875 C 107.53125 101.804688 107.175781 101.917969 106.828125 102.046875 C 106.476562 102.179688 106.140625 102.332031 105.808594 102.507812 C 105.480469 102.679688 105.164062 102.875 104.855469 103.089844 C 104.550781 103.300781 104.261719 103.535156 103.984375 103.78125 C 103.707031 104.03125 103.445312 104.296875 103.203125 104.582031 C 102.960938 104.863281 102.734375 105.15625 102.527344 105.46875 C 102.320312 105.777344 102.132812 106.097656 101.964844 106.433594 C 101.796875 106.765625 101.652344 107.105469 101.527344 107.457031 C 101.402344 107.808594 101.300781 108.167969 101.21875 108.53125 C 101.136719 108.894531 101.082031 109.261719 101.046875 109.632812 C 101.011719 110.003906 101 110.375 101.011719 110.75 C 101.019531 111.121094 101.054688 111.492188 101.113281 111.859375 C 101.167969 112.226562 101.25 112.589844 101.351562 112.949219 C 101.453125 113.308594 101.578125 113.660156 101.722656 114 C 101.871094 114.34375 102.035156 114.675781 102.222656 115 C 102.410156 115.320312 102.617188 115.632812 102.839844 115.929688 C 103.066406 116.226562 103.308594 116.507812 103.570312 116.773438 C 103.828125 117.039062 104.105469 117.289062 104.398438 117.523438 C 104.6875 117.753906 104.992188 117.96875 105.308594 118.164062 C 105.628906 118.359375 105.957031 118.53125 106.296875 118.6875 C 106.636719 118.839844 106.984375 118.972656 107.339844 119.082031 C 107.695312 119.195312 108.054688 119.28125 108.421875 119.347656 C 108.789062 119.414062 109.160156 119.457031 109.53125 119.476562 C 109.902344 119.5 110.273438 119.496094 110.648438 119.46875 C 111.019531 119.441406 111.386719 119.394531 111.753906 119.324219 C 112.117188 119.25 112.480469 119.15625 112.832031 119.039062 C 113.1875 118.925781 113.53125 118.785156 113.871094 118.628906 C 114.207031 118.46875 114.53125 118.289062 114.847656 118.089844 C 115.160156 117.890625 115.464844 117.671875 115.75 117.433594 C 116.039062 117.199219 116.308594 116.945312 116.566406 116.671875 C 116.824219 116.402344 117.0625 116.117188 117.28125 115.816406 C 117.503906 115.515625 117.703125 115.203125 117.886719 114.878906 C 118.066406 114.554688 118.230469 114.21875 118.371094 113.871094 C 118.507812 113.527344 118.628906 113.175781 118.726562 112.816406 C 118.820312 112.457031 118.894531 112.089844 118.945312 111.722656 C 119 111.351562 119.027344 110.980469 119.03125 110.609375 C 119.039062 110.238281 119.019531 109.863281 118.980469 109.496094 C 118.9375 109.125 118.875 108.757812 118.789062 108.394531 C 118.703125 108.03125 118.59375 107.675781 118.464844 107.328125 C 118.335938 106.976562 118.183594 106.636719 118.011719 106.308594 C 117.839844 105.976562 117.644531 105.660156 117.433594 105.351562 C 117.222656 105.046875 116.992188 104.753906 116.746094 104.476562 C 116.496094 104.199219 116.230469 103.9375 115.953125 103.691406 C 115.671875 103.445312 115.375 103.21875 115.066406 103.007812 C 114.757812 102.800781 114.4375 102.613281 114.105469 102.441406 C 113.773438 102.273438 113.433594 102.125 113.082031 102 Z M 110.105469 113.367188 C 109.710938 113.367188 109.332031 113.292969 108.96875 113.140625 C 108.601562 112.992188 108.28125 112.777344 108 112.496094 C 107.722656 112.21875 107.507812 111.894531 107.355469 111.53125 C 107.207031 111.167969 107.128906 110.785156 107.128906 110.390625 C 107.128906 109.996094 107.207031 109.617188 107.355469 109.253906 C 107.507812 108.890625 107.722656 108.566406 108 108.289062 C 108.28125 108.007812 108.601562 107.792969 108.96875 107.644531 C 109.332031 107.492188 109.710938 107.417969 110.105469 107.417969 C 110.5 107.417969 110.878906 107.492188 111.246094 107.644531 C 111.609375 107.792969 111.929688 108.007812 112.210938 108.289062 C 112.488281 108.566406 112.703125 108.890625 112.855469 109.253906 C 113.007812 109.617188 113.082031 109.996094 113.082031 110.390625 C 113.082031 110.785156 113.007812 111.167969 112.855469 111.53125 C 112.703125 111.894531 112.488281 112.21875 112.210938 112.496094 C 111.929688 112.777344 111.609375 112.992188 111.246094 113.140625 C 110.878906 113.292969 110.5 113.367188 110.105469 113.367188 Z M 110.105469 113.367188 " fill-opacity="1" fill-rule="nonzero"/><path fill="#f4b324" d="M 77.371094 62.777344 C 77.371094 63.171875 77.292969 63.550781 77.144531 63.914062 C 76.992188 64.277344 76.777344 64.601562 76.496094 64.878906 C 76.21875 65.160156 75.898438 65.375 75.53125 65.523438 C 75.167969 65.675781 74.789062 65.75 74.394531 65.75 C 74 65.75 73.617188 65.675781 73.253906 65.523438 C 72.890625 65.375 72.566406 65.160156 72.289062 64.878906 C 72.011719 64.601562 71.792969 64.277344 71.644531 63.914062 C 71.492188 63.550781 71.417969 63.171875 71.417969 62.777344 C 71.417969 62.382812 71.492188 62 71.644531 61.636719 C 71.792969 61.273438 72.011719 60.949219 72.289062 60.671875 C 72.566406 60.390625 72.890625 60.175781 73.253906 60.027344 C 73.617188 59.875 74 59.800781 74.394531 59.800781 C 74.789062 59.800781 75.167969 59.875 75.53125 60.027344 C 75.898438 60.175781 76.21875 60.390625 76.496094 60.671875 C 76.777344 60.949219 76.992188 61.273438 77.144531 61.636719 C 77.292969 62 77.371094 62.382812 77.371094 62.777344 Z M 77.371094 62.777344 " fill-opacity="1" fill-rule="nonzero"/><path fill="#f4b324" d="M 77.371094 86.585938 C 77.371094 86.980469 77.292969 87.359375 77.144531 87.722656 C 76.992188 88.085938 76.777344 88.410156 76.496094 88.6875 C 76.21875 88.96875 75.898438 89.183594 75.53125 89.332031 C 75.167969 89.484375 74.789062 89.558594 74.394531 89.558594 C 74 89.558594 73.617188 89.484375 73.253906 89.332031 C 72.890625 89.183594 72.566406 88.96875 72.289062 88.6875 C 72.011719 88.410156 71.792969 88.085938 71.644531 87.722656 C 71.492188 87.359375 71.417969 86.980469 71.417969 86.585938 C 71.417969 86.1875 71.492188 85.808594 71.644531 85.445312 C 71.792969 85.082031 72.011719 84.757812 72.289062 84.480469 C 72.566406 84.199219 72.890625 83.984375 73.253906 83.835938 C 73.617188 83.683594 74 83.609375 74.394531 83.609375 C 74.789062 83.609375 75.167969 83.683594 75.53125 83.835938 C 75.898438 83.984375 76.21875 84.199219 76.496094 84.480469 C 76.777344 84.757812 76.992188 85.082031 77.144531 85.445312 C 77.292969 85.808594 77.371094 86.1875 77.371094 86.585938 Z M 77.371094 86.585938 " fill-opacity="1" fill-rule="nonzero"/><path fill="#f4b324" d="M 77.371094 110.390625 C 77.371094 110.785156 77.292969 111.167969 77.144531 111.53125 C 76.992188 111.894531 76.777344 112.21875 76.496094 112.496094 C 76.21875 112.777344 75.898438 112.992188 75.53125 113.140625 C 75.167969 113.292969 74.789062 113.367188 74.394531 113.367188 C 74 113.367188 73.617188 113.292969 73.253906 113.140625 C 72.890625 112.992188 72.566406 112.777344 72.289062 112.496094 C 72.011719 112.21875 71.792969 111.894531 71.644531 111.53125 C 71.492188 111.167969 71.417969 110.785156 71.417969 110.390625 C 71.417969 109.996094 71.492188 109.617188 71.644531 109.253906 C 71.792969 108.890625 72.011719 108.566406 72.289062 108.289062 C 72.566406 108.007812 72.890625 107.792969 73.253906 107.644531 C 73.617188 107.492188 74 107.417969 74.394531 107.417969 C 74.789062 107.417969 75.167969 107.492188 75.53125 107.644531 C 75.898438 107.792969 76.21875 108.007812 76.496094 108.289062 C 76.777344 108.566406 76.992188 108.890625 77.144531 109.253906 C 77.292969 109.617188 77.371094 109.996094 77.371094 110.390625 Z M 77.371094 110.390625 " fill-opacity="1" fill-rule="nonzero"/><g clip-path="url(#d375cb428b)"><path fill="#f4b324" d="M 47.707031 27.433594 C 49.175781 25.109375 50.414062 22.664062 51.425781 20.105469 C 54.117188 13.105469 53.722656 7.367188 50.308594 3.945312 C 45.542969 -0.789062 36.449219 0.503906 26.777344 6.515625 C 17.105469 0.503906 8.011719 -0.789062 3.273438 3.949219 C -0.144531 7.371094 -0.546875 13.109375 2.15625 20.109375 C 3.167969 22.667969 4.410156 25.113281 5.878906 27.4375 C -0.136719 37.128906 -1.433594 46.214844 3.304688 50.953125 C 5.257812 52.90625 7.945312 53.839844 11.117188 53.839844 C 15.617188 53.847656 21.085938 51.90625 26.777344 48.375 C 32.46875 51.90625 37.957031 53.839844 42.46875 53.839844 C 45.632812 53.839844 48.328125 52.90625 50.28125 50.953125 C 55.015625 46.214844 53.722656 37.128906 47.707031 27.433594 Z M 42.46875 6.976562 C 44.039062 6.976562 45.277344 7.347656 46.070312 8.15625 C 47.679688 9.769531 47.597656 13.441406 45.851562 17.976562 C 45.304688 19.390625 44.664062 20.761719 43.9375 22.09375 C 42.214844 19.898438 40.363281 17.8125 38.390625 15.835938 C 36.414062 13.867188 34.332031 12.019531 32.140625 10.292969 C 36.167969 8.089844 39.796875 6.976562 42.46875 6.976562 Z M 40.515625 27.457031 C 38.597656 30.089844 36.492188 32.554688 34.191406 34.855469 C 31.886719 37.167969 29.414062 39.28125 26.777344 41.199219 C 24.140625 39.285156 21.671875 37.175781 19.371094 34.875 C 17.070312 32.574219 14.960938 30.105469 13.046875 27.476562 C 16.890625 22.164062 21.46875 17.582031 26.777344 13.734375 C 29.414062 15.644531 31.882812 17.753906 34.183594 20.058594 C 36.488281 22.359375 38.597656 24.824219 40.515625 27.457031 Z M 7.699219 17.976562 C 5.945312 13.441406 5.875 9.769531 7.484375 8.15625 C 8.277344 7.367188 9.511719 6.976562 11.085938 6.976562 C 13.753906 6.976562 17.382812 8.089844 21.410156 10.292969 C 19.21875 12.019531 17.136719 13.867188 15.164062 15.835938 C 13.1875 17.8125 11.339844 19.898438 9.617188 22.09375 C 8.890625 20.761719 8.25 19.390625 7.699219 17.976562 Z M 7.484375 46.746094 C 5.34375 44.601562 6.15625 39.210938 9.632812 32.8125 C 11.351562 35.007812 13.195312 37.089844 15.164062 39.0625 C 17.136719 41.03125 19.222656 42.875 21.417969 44.597656 C 15.023438 48.078125 9.628906 48.890625 7.484375 46.746094 Z M 46.070312 46.746094 C 43.925781 48.886719 38.53125 48.074219 32.136719 44.597656 C 34.332031 42.875 36.414062 41.03125 38.390625 39.0625 C 40.359375 37.089844 42.203125 35.007812 43.921875 32.8125 C 47.398438 39.210938 48.210938 44.601562 46.070312 46.746094 Z M 46.070312 46.746094 " fill-opacity="1" fill-rule="nonzero"/></g><path fill="#f4b324" d="M 29.753906 27.0625 C 29.753906 27.457031 29.675781 27.835938 29.527344 28.203125 C 29.375 28.566406 29.160156 28.886719 28.882812 29.167969 C 28.601562 29.445312 28.28125 29.660156 27.914062 29.8125 C 27.550781 29.964844 27.171875 30.039062 26.777344 30.039062 C 26.382812 30.039062 26.003906 29.964844 25.636719 29.8125 C 25.273438 29.660156 24.953125 29.445312 24.671875 29.167969 C 24.394531 28.886719 24.179688 28.566406 24.027344 28.203125 C 23.875 27.835938 23.800781 27.457031 23.800781 27.0625 C 23.800781 26.667969 23.875 26.289062 24.027344 25.925781 C 24.179688 25.558594 24.394531 25.238281 24.671875 24.957031 C 24.953125 24.679688 25.273438 24.464844 25.636719 24.3125 C 26.003906 24.164062 26.382812 24.085938 26.777344 24.085938 C 27.171875 24.085938 27.550781 24.164062 27.914062 24.3125 C 28.28125 24.464844 28.601562 24.679688 28.882812 24.957031 C 29.160156 25.238281 29.375 25.558594 29.527344 25.925781 C 29.675781 26.289062 29.753906 26.667969 29.753906 27.0625 Z M 29.753906 27.0625 " fill-opacity="1" fill-rule="nonzero"/></g></g></g><g fill="#07a5c3" fill-opacity="1"><g transform="translate(198.768926, 167.817445)"><g><path d="M 11.203125 0 L 2.203125 0 L 2.203125 -25.390625 L 11.28125 -25.390625 C 13.84375 -25.390625 16.046875 -24.882812 17.890625 -23.875 C 19.734375 -22.863281 21.148438 -21.410156 22.140625 -19.515625 C 23.140625 -17.628906 23.640625 -15.363281 23.640625 -12.71875 C 23.640625 -10.070312 23.140625 -7.796875 22.140625 -5.890625 C 21.140625 -3.992188 19.710938 -2.535156 17.859375 -1.515625 C 16.003906 -0.503906 13.785156 0 11.203125 0 Z M 7.578125 -4.59375 L 10.984375 -4.59375 C 13.378906 -4.59375 15.191406 -5.238281 16.421875 -6.53125 C 17.660156 -7.820312 18.28125 -9.882812 18.28125 -12.71875 C 18.28125 -15.539062 17.660156 -17.59375 16.421875 -18.875 C 15.191406 -20.15625 13.382812 -20.796875 11 -20.796875 L 7.578125 -20.796875 Z M 7.578125 -4.59375 "/></g></g></g><g fill="#07a5c3" fill-opacity="1"><g transform="translate(222.422598, 167.817445)"><g><path d="M 7.546875 0.359375 C 5.722656 0.359375 4.210938 -0.113281 3.015625 -1.0625 C 1.816406 -2.019531 1.21875 -3.4375 1.21875 -5.3125 C 1.21875 -6.738281 1.550781 -7.859375 2.21875 -8.671875 C 2.882812 -9.484375 3.757812 -10.078125 4.84375 -10.453125 C 5.9375 -10.828125 7.113281 -11.070312 8.375 -11.1875 C 10.019531 -11.351562 11.195312 -11.523438 11.90625 -11.703125 C 12.625 -11.890625 12.984375 -12.285156 12.984375 -12.890625 L 12.984375 -12.96875 C 12.984375 -13.757812 12.738281 -14.367188 12.25 -14.796875 C 11.757812 -15.222656 11.0625 -15.4375 10.15625 -15.4375 C 9.207031 -15.4375 8.453125 -15.226562 7.890625 -14.8125 C 7.328125 -14.40625 6.953125 -13.882812 6.765625 -13.25 L 1.890625 -13.640625 C 2.253906 -15.378906 3.15625 -16.753906 4.59375 -17.765625 C 6.039062 -18.785156 7.90625 -19.296875 10.1875 -19.296875 C 11.59375 -19.296875 12.910156 -19.070312 14.140625 -18.625 C 15.378906 -18.175781 16.375 -17.476562 17.125 -16.53125 C 17.882812 -15.59375 18.265625 -14.363281 18.265625 -12.84375 L 18.265625 0 L 13.25 0 L 13.25 -2.640625 L 13.109375 -2.640625 C 12.640625 -1.753906 11.941406 -1.03125 11.015625 -0.46875 C 10.097656 0.0820312 8.941406 0.359375 7.546875 0.359375 Z M 9.046875 -3.28125 C 10.210938 -3.28125 11.164062 -3.617188 11.90625 -4.296875 C 12.644531 -4.972656 13.015625 -5.8125 13.015625 -6.8125 L 13.015625 -8.828125 C 12.816406 -8.691406 12.5 -8.566406 12.0625 -8.453125 C 11.625 -8.347656 11.160156 -8.253906 10.671875 -8.171875 C 10.179688 -8.097656 9.738281 -8.03125 9.34375 -7.96875 C 8.425781 -7.84375 7.679688 -7.582031 7.109375 -7.1875 C 6.546875 -6.800781 6.265625 -6.238281 6.265625 -5.5 C 6.265625 -4.769531 6.523438 -4.21875 7.046875 -3.84375 C 7.578125 -3.46875 8.242188 -3.28125 9.046875 -3.28125 Z M 9.046875 -3.28125 "/></g></g></g><g fill="#07a5c3" fill-opacity="1"><g transform="translate(240.941634, 167.817445)"><g><path d="M 12.234375 -19.046875 L 12.234375 -15.078125 L 8.65625 -15.078125 L 8.65625 -5.859375 C 8.65625 -5.128906 8.816406 -4.632812 9.140625 -4.375 C 9.472656 -4.125 9.90625 -4 10.4375 -4 C 10.6875 -4 10.9375 -4.019531 11.1875 -4.0625 C 11.4375 -4.101562 11.625 -4.140625 11.75 -4.171875 L 12.59375 -0.234375 C 12.320312 -0.148438 11.945312 -0.0546875 11.46875 0.046875 C 10.988281 0.160156 10.40625 0.234375 9.71875 0.265625 C 7.800781 0.347656 6.257812 -0.0664062 5.09375 -0.984375 C 3.9375 -1.898438 3.363281 -3.289062 3.375 -5.15625 L 3.375 -15.078125 L 0.765625 -15.078125 L 0.765625 -19.046875 L 3.375 -19.046875 L 3.375 -23.609375 L 8.65625 -23.609375 L 8.65625 -19.046875 Z M 12.234375 -19.046875 "/></g></g></g><g fill="#07a5c3" fill-opacity="1"><g transform="translate(252.76331, 167.817445)"><g><path d="M 7.546875 0.359375 C 5.722656 0.359375 4.210938 -0.113281 3.015625 -1.0625 C 1.816406 -2.019531 1.21875 -3.4375 1.21875 -5.3125 C 1.21875 -6.738281 1.550781 -7.859375 2.21875 -8.671875 C 2.882812 -9.484375 3.757812 -10.078125 4.84375 -10.453125 C 5.9375 -10.828125 7.113281 -11.070312 8.375 -11.1875 C 10.019531 -11.351562 11.195312 -11.523438 11.90625 -11.703125 C 12.625 -11.890625 12.984375 -12.285156 12.984375 -12.890625 L 12.984375 -12.96875 C 12.984375 -13.757812 12.738281 -14.367188 12.25 -14.796875 C 11.757812 -15.222656 11.0625 -15.4375 10.15625 -15.4375 C 9.207031 -15.4375 8.453125 -15.226562 7.890625 -14.8125 C 7.328125 -14.40625 6.953125 -13.882812 6.765625 -13.25 L 1.890625 -13.640625 C 2.253906 -15.378906 3.15625 -16.753906 4.59375 -17.765625 C 6.039062 -18.785156 7.90625 -19.296875 10.1875 -19.296875 C 11.59375 -19.296875 12.910156 -19.070312 14.140625 -18.625 C 15.378906 -18.175781 16.375 -17.476562 17.125 -16.53125 C 17.882812 -15.59375 18.265625 -14.363281 18.265625 -12.84375 L 18.265625 0 L 13.25 0 L 13.25 -2.640625 L 13.109375 -2.640625 C 12.640625 -1.753906 11.941406 -1.03125 11.015625 -0.46875 C 10.097656 0.0820312 8.941406 0.359375 7.546875 0.359375 Z M 9.046875 -3.28125 C 10.210938 -3.28125 11.164062 -3.617188 11.90625 -4.296875 C 12.644531 -4.972656 13.015625 -5.8125 13.015625 -6.8125 L 13.015625 -8.828125 C 12.816406 -8.691406 12.5 -8.566406 12.0625 -8.453125 C 11.625 -8.347656 11.160156 -8.253906 10.671875 -8.171875 C 10.179688 -8.097656 9.738281 -8.03125 9.34375 -7.96875 C 8.425781 -7.84375 7.679688 -7.582031 7.109375 -7.1875 C 6.546875 -6.800781 6.265625 -6.238281 6.265625 -5.5 C 6.265625 -4.769531 6.523438 -4.21875 7.046875 -3.84375 C 7.578125 -3.46875 8.242188 -3.28125 9.046875 -3.28125 Z M 9.046875 -3.28125 "/></g></g></g><g fill="#07a5c3" fill-opacity="1"><g transform="translate(271.287041, 167.817445)"><g/></g></g><g fill="#07a5c3" fill-opacity="1"><g transform="translate(198.768926, 202.251854)"><g><path d="M 15.984375 -18.09375 C 15.890625 -19.09375 15.460938 -19.867188 14.703125 -20.421875 C 13.941406 -20.972656 12.921875 -21.25 11.640625 -21.25 C 10.328125 -21.25 9.316406 -20.976562 8.609375 -20.4375 C 7.910156 -19.90625 7.5625 -19.234375 7.5625 -18.421875 C 7.550781 -17.503906 7.941406 -16.8125 8.734375 -16.34375 C 9.535156 -15.882812 10.484375 -15.523438 11.578125 -15.265625 L 13.859375 -14.71875 C 15.335938 -14.382812 16.644531 -13.90625 17.78125 -13.28125 C 18.925781 -12.65625 19.828125 -11.847656 20.484375 -10.859375 C 21.148438 -9.867188 21.484375 -8.664062 21.484375 -7.25 C 21.472656 -4.925781 20.597656 -3.078125 18.859375 -1.703125 C 17.128906 -0.328125 14.71875 0.359375 11.625 0.359375 C 8.539062 0.359375 6.078125 -0.34375 4.234375 -1.75 C 2.398438 -3.15625 1.453125 -5.226562 1.390625 -7.96875 L 6.578125 -7.96875 C 6.671875 -6.695312 7.175781 -5.738281 8.09375 -5.09375 C 9.007812 -4.457031 10.164062 -4.140625 11.5625 -4.140625 C 12.925781 -4.140625 14.015625 -4.425781 14.828125 -5 C 15.640625 -5.582031 16.050781 -6.335938 16.0625 -7.265625 C 16.050781 -8.128906 15.671875 -8.789062 14.921875 -9.25 C 14.179688 -9.71875 13.125 -10.113281 11.75 -10.4375 L 8.984375 -11.140625 C 6.835938 -11.648438 5.144531 -12.460938 3.90625 -13.578125 C 2.664062 -14.691406 2.050781 -16.1875 2.0625 -18.0625 C 2.050781 -19.59375 2.457031 -20.9375 3.28125 -22.09375 C 4.113281 -23.25 5.257812 -24.144531 6.71875 -24.78125 C 8.175781 -25.425781 9.832031 -25.75 11.6875 -25.75 C 13.570312 -25.75 15.21875 -25.425781 16.625 -24.78125 C 18.03125 -24.132812 19.125 -23.234375 19.90625 -22.078125 C 20.695312 -20.929688 21.101562 -19.601562 21.125 -18.09375 Z M 15.984375 -18.09375 "/></g></g></g><g fill="#07a5c3" fill-opacity="1"><g transform="translate(219.892482, 202.251854)"><g><path d="M 10.71875 0.375 C 8.757812 0.375 7.078125 -0.0390625 5.671875 -0.875 C 4.273438 -1.707031 3.203125 -2.863281 2.453125 -4.34375 C 1.710938 -5.820312 1.34375 -7.523438 1.34375 -9.453125 C 1.34375 -11.398438 1.71875 -13.109375 2.46875 -14.578125 C 3.226562 -16.054688 4.304688 -17.210938 5.703125 -18.046875 C 7.097656 -18.878906 8.757812 -19.296875 10.6875 -19.296875 C 12.351562 -19.296875 13.8125 -18.992188 15.0625 -18.390625 C 16.3125 -17.785156 17.296875 -16.9375 18.015625 -15.84375 C 18.742188 -14.757812 19.144531 -13.476562 19.21875 -12 L 14.234375 -12 C 14.097656 -12.957031 13.726562 -13.722656 13.125 -14.296875 C 12.53125 -14.878906 11.75 -15.171875 10.78125 -15.171875 C 9.550781 -15.171875 8.5625 -14.679688 7.8125 -13.703125 C 7.070312 -12.722656 6.703125 -11.332031 6.703125 -9.53125 C 6.703125 -7.707031 7.070312 -6.296875 7.8125 -5.296875 C 8.550781 -4.304688 9.539062 -3.8125 10.78125 -3.8125 C 11.6875 -3.8125 12.445312 -4.082031 13.0625 -4.625 C 13.6875 -5.175781 14.078125 -5.960938 14.234375 -6.984375 L 19.21875 -6.984375 C 19.132812 -5.523438 18.738281 -4.238281 18.03125 -3.125 C 17.332031 -2.019531 16.359375 -1.160156 15.109375 -0.546875 C 13.867188 0.0664062 12.40625 0.375 10.71875 0.375 Z M 10.71875 0.375 "/></g></g></g><g fill="#07a5c3" fill-opacity="1"><g transform="translate(238.659566, 202.251854)"><g><path d="M 2.109375 0 L 2.109375 -19.046875 L 7.390625 -19.046875 L 7.390625 0 Z M 4.75 -21.5 C 3.976562 -21.5 3.3125 -21.757812 2.75 -22.28125 C 2.1875 -22.8125 1.90625 -23.445312 1.90625 -24.1875 C 1.90625 -24.914062 2.1875 -25.539062 2.75 -26.0625 C 3.3125 -26.582031 3.976562 -26.84375 4.75 -26.84375 C 5.539062 -26.84375 6.21875 -26.582031 6.78125 -26.0625 C 7.34375 -25.539062 7.625 -24.914062 7.625 -24.1875 C 7.625 -23.445312 7.34375 -22.8125 6.78125 -22.28125 C 6.21875 -21.757812 5.539062 -21.5 4.75 -21.5 Z M 4.75 -21.5 "/></g></g></g><g fill="#07a5c3" fill-opacity="1"><g transform="translate(246.413212, 202.251854)"><g><path d="M 10.796875 0.375 C 8.835938 0.375 7.148438 -0.0195312 5.734375 -0.8125 C 4.328125 -1.613281 3.242188 -2.75 2.484375 -4.21875 C 1.722656 -5.6875 1.34375 -7.425781 1.34375 -9.4375 C 1.34375 -11.394531 1.722656 -13.113281 2.484375 -14.59375 C 3.242188 -16.070312 4.316406 -17.222656 5.703125 -18.046875 C 7.085938 -18.878906 8.710938 -19.296875 10.578125 -19.296875 C 12.253906 -19.296875 13.769531 -18.9375 15.125 -18.21875 C 16.476562 -17.507812 17.550781 -16.4375 18.34375 -15 C 19.132812 -13.570312 19.53125 -11.78125 19.53125 -9.625 L 19.53125 -8.171875 L 6.5625 -8.171875 L 6.5625 -8.15625 C 6.5625 -6.738281 6.945312 -5.617188 7.71875 -4.796875 C 8.5 -3.984375 9.550781 -3.578125 10.875 -3.578125 C 11.757812 -3.578125 12.523438 -3.757812 13.171875 -4.125 C 13.816406 -4.5 14.269531 -5.050781 14.53125 -5.78125 L 19.421875 -5.453125 C 19.046875 -3.679688 18.101562 -2.265625 16.59375 -1.203125 C 15.082031 -0.148438 13.148438 0.375 10.796875 0.375 Z M 6.5625 -11.453125 L 14.5625 -11.453125 C 14.550781 -12.578125 14.1875 -13.507812 13.46875 -14.25 C 12.75 -14.988281 11.816406 -15.359375 10.671875 -15.359375 C 9.492188 -15.359375 8.523438 -14.976562 7.765625 -14.21875 C 7.015625 -13.457031 6.613281 -12.535156 6.5625 -11.453125 Z M 6.5625 -11.453125 "/></g></g></g><g fill="#07a5c3" fill-opacity="1"><g transform="translate(265.539962, 202.251854)"><g><path d="M 7.390625 -11.015625 L 7.390625 0 L 2.109375 0 L 2.109375 -19.046875 L 7.140625 -19.046875 L 7.140625 -15.6875 L 7.359375 -15.6875 C 7.796875 -16.789062 8.503906 -17.664062 9.484375 -18.3125 C 10.472656 -18.96875 11.675781 -19.296875 13.09375 -19.296875 C 15.082031 -19.296875 16.675781 -18.65625 17.875 -17.375 C 19.070312 -16.101562 19.671875 -14.351562 19.671875 -12.125 L 19.671875 0 L 14.390625 0 L 14.390625 -11.1875 C 14.390625 -12.351562 14.085938 -13.265625 13.484375 -13.921875 C 12.890625 -14.578125 12.0625 -14.90625 11 -14.90625 C 9.9375 -14.90625 9.070312 -14.5625 8.40625 -13.875 C 7.738281 -13.195312 7.398438 -12.242188 7.390625 -11.015625 Z M 7.390625 -11.015625 "/></g></g></g><g fill="#07a5c3" fill-opacity="1"><g transform="translate(285.510091, 202.251854)"><g><path d="M 10.71875 0.375 C 8.757812 0.375 7.078125 -0.0390625 5.671875 -0.875 C 4.273438 -1.707031 3.203125 -2.863281 2.453125 -4.34375 C 1.710938 -5.820312 1.34375 -7.523438 1.34375 -9.453125 C 1.34375 -11.398438 1.71875 -13.109375 2.46875 -14.578125 C 3.226562 -16.054688 4.304688 -17.210938 5.703125 -18.046875 C 7.097656 -18.878906 8.757812 -19.296875 10.6875 -19.296875 C 12.351562 -19.296875 13.8125 -18.992188 15.0625 -18.390625 C 16.3125 -17.785156 17.296875 -16.9375 18.015625 -15.84375 C 18.742188 -14.757812 19.144531 -13.476562 19.21875 -12 L 14.234375 -12 C 14.097656 -12.957031 13.726562 -13.722656 13.125 -14.296875 C 12.53125 -14.878906 11.75 -15.171875 10.78125 -15.171875 C 9.550781 -15.171875 8.5625 -14.679688 7.8125 -13.703125 C 7.070312 -12.722656 6.703125 -11.332031 6.703125 -9.53125 C 6.703125 -7.707031 7.070312 -6.296875 7.8125 -5.296875 C 8.550781 -4.304688 9.539062 -3.8125 10.78125 -3.8125 C 11.6875 -3.8125 12.445312 -4.082031 13.0625 -4.625 C 13.6875 -5.175781 14.078125 -5.960938 14.234375 -6.984375 L 19.21875 -6.984375 C 19.132812 -5.523438 18.738281 -4.238281 18.03125 -3.125 C 17.332031 -2.019531 16.359375 -1.160156 15.109375 -0.546875 C 13.867188 0.0664062 12.40625 0.375 10.71875 0.375 Z M 10.71875 0.375 "/></g></g></g><g fill="#07a5c3" fill-opacity="1"><g transform="translate(304.277175, 202.251854)"><g><path d="M 10.796875 0.375 C 8.835938 0.375 7.148438 -0.0195312 5.734375 -0.8125 C 4.328125 -1.613281 3.242188 -2.75 2.484375 -4.21875 C 1.722656 -5.6875 1.34375 -7.425781 1.34375 -9.4375 C 1.34375 -11.394531 1.722656 -13.113281 2.484375 -14.59375 C 3.242188 -16.070312 4.316406 -17.222656 5.703125 -18.046875 C 7.085938 -18.878906 8.710938 -19.296875 10.578125 -19.296875 C 12.253906 -19.296875 13.769531 -18.9375 15.125 -18.21875 C 16.476562 -17.507812 17.550781 -16.4375 18.34375 -15 C 19.132812 -13.570312 19.53125 -11.78125 19.53125 -9.625 L 19.53125 -8.171875 L 6.5625 -8.171875 L 6.5625 -8.15625 C 6.5625 -6.738281 6.945312 -5.617188 7.71875 -4.796875 C 8.5 -3.984375 9.550781 -3.578125 10.875 -3.578125 C 11.757812 -3.578125 12.523438 -3.757812 13.171875 -4.125 C 13.816406 -4.5 14.269531 -5.050781 14.53125 -5.78125 L 19.421875 -5.453125 C 19.046875 -3.679688 18.101562 -2.265625 16.59375 -1.203125 C 15.082031 -0.148438 13.148438 0.375 10.796875 0.375 Z M 6.5625 -11.453125 L 14.5625 -11.453125 C 14.550781 -12.578125 14.1875 -13.507812 13.46875 -14.25 C 12.75 -14.988281 11.816406 -15.359375 10.671875 -15.359375 C 9.492188 -15.359375 8.523438 -14.976562 7.765625 -14.21875 C 7.015625 -13.457031 6.613281 -12.535156 6.5625 -11.453125 Z M 6.5625 -11.453125 "/></g></g></g></svg>