<svg xmlns="http://www.w3.org/2000/svg" xmlns:xlink="http://www.w3.org/1999/xlink" width="500" zoomAndPan="magnify" viewBox="0 0 375 262.499992" height="350" preserveAspectRatio="xMidYMid meet" version="1.0"><defs><filter x="0%" y="0%" width="100%" height="100%" id="bed17dc706"><feColorMatrix values="0 0 0 0 1 0 0 0 0 1 0 0 0 0 1 0 0 0 1 0" color-interpolation-filters="sRGB"/></filter><g/><clipPath id="df577186a0"><path d="M 0.355469 0 L 374.640625 0 L 374.640625 262 L 0.355469 262 Z M 0.355469 0 " clip-rule="nonzero"/></clipPath><mask id="e67e6f41ed"><g filter="url(#bed17dc706)"><rect x="-37.5" width="450" fill="#000000" y="-26.249999" height="314.999991" fill-opacity="0.55"/></g></mask><clipPath id="2aa8da859e"><path d="M 0.554688 0.199219 L 169.734375 0.199219 L 169.734375 169.378906 L 0.554688 169.378906 Z M 0.554688 0.199219 " clip-rule="nonzero"/></clipPath><clipPath id="bc0bcacfea"><rect x="0" width="170" y="0" height="172"/></clipPath></defs><g clip-path="url(#df577186a0)"><path fill="#ffffff" d="M 0.355469 0 L 374.644531 0 L 374.644531 262 L 0.355469 262 Z M 0.355469 0 " fill-opacity="1" fill-rule="nonzero"/><path fill="#ffffff" d="M 0.355469 0 L 374.644531 0 L 374.644531 262 L 0.355469 262 Z M 0.355469 0 " fill-opacity="1" fill-rule="nonzero"/></g><g mask="url(#e67e6f41ed)"><g transform="matrix(1, 0, 0, 1, 26, 26)"><g clip-path="url(#bc0bcacfea)"><path fill="#f4b324" d="M 110.457031 94.457031 C 108.542969 94.457031 106.71875 95.035156 105.171875 96.09375 C 103.566406 94.90625 101.652344 94.238281 99.621094 94.238281 C 97.105469 94.238281 94.742188 95.21875 92.964844 96.996094 C 92.140625 97.820312 92.140625 99.160156 92.964844 99.984375 C 93.792969 100.8125 95.132812 100.8125 95.957031 99.984375 C 97.914062 98.03125 101.324219 98.027344 103.28125 99.984375 C 104.261719 100.964844 104.800781 102.265625 104.800781 103.648438 C 104.800781 105.03125 104.261719 106.332031 103.28125 107.3125 C 102.457031 108.136719 102.457031 109.476562 103.28125 110.300781 C 103.695312 110.714844 104.234375 110.921875 104.777344 110.921875 C 105.316406 110.921875 105.859375 110.714844 106.273438 110.300781 C 108.050781 108.523438 109.027344 106.160156 109.027344 103.648438 C 109.027344 102.132812 108.632812 100.6875 107.957031 99.375 C 109.917969 98.328125 112.511719 98.59375 114.121094 100.203125 C 114.535156 100.617188 115.074219 100.824219 115.617188 100.824219 C 116.15625 100.824219 116.699219 100.617188 117.113281 100.203125 C 117.9375 99.378906 117.9375 98.039062 117.113281 97.214844 C 115.335938 95.4375 112.972656 94.457031 110.457031 94.457031 Z M 110.457031 94.457031 " fill-opacity="1" fill-rule="nonzero"/><path fill="#f4b324" d="M 127.347656 88.367188 C 126.828125 87.828125 126.269531 87.324219 125.675781 86.859375 C 128.300781 84.984375 129.996094 81.914062 129.996094 78.539062 C 129.996094 73.917969 126.910156 69.992188 122.691406 68.714844 C 123.664062 65.390625 123.496094 61.808594 122.167969 58.390625 C 120.617188 54.398438 117.289062 51.171875 113.265625 49.761719 C 109.96875 48.605469 106.601562 48.496094 103.492188 49.382812 C 103.632812 47.730469 103.371094 46.023438 102.691406 44.367188 C 101.640625 41.816406 99.546875 39.824219 96.945312 38.902344 C 93.628906 37.722656 90.132812 38.171875 87.355469 40.128906 C 86.488281 40.742188 85.75 41.484375 85.121094 42.3125 C 84.496094 41.484375 83.753906 40.742188 82.886719 40.128906 C 80.113281 38.171875 76.617188 37.722656 73.300781 38.902344 C 70.699219 39.824219 68.605469 41.816406 67.554688 44.367188 C 66.875 46.023438 66.613281 47.730469 66.753906 49.382812 C 63.648438 48.496094 60.277344 48.605469 56.976562 49.761719 C 52.953125 51.171875 49.625 54.398438 48.074219 58.390625 C 46.746094 61.808594 46.578125 65.390625 47.550781 68.714844 C 43.332031 69.992188 40.25 73.917969 40.25 78.539062 C 40.25 81.914062 41.945312 84.984375 44.566406 86.859375 C 43.976562 87.324219 43.414062 87.828125 42.898438 88.367188 C 42.894531 88.367188 42.894531 88.367188 42.894531 88.367188 C 40.113281 91.273438 38.578125 95.09375 38.578125 99.117188 C 38.578125 105.867188 42.882812 111.722656 49.101562 113.835938 C 48.515625 116.425781 48.800781 119.113281 49.949219 121.722656 C 51.152344 124.449219 53.441406 126.675781 56.230469 127.824219 C 59.527344 129.183594 62.949219 129.164062 66.039062 127.796875 C 68.398438 130.066406 71.457031 131.269531 74.660156 131.269531 C 76.28125 131.269531 77.9375 130.960938 79.558594 130.328125 C 81.855469 129.433594 83.777344 127.816406 85.121094 125.777344 C 86.46875 127.816406 88.386719 129.433594 90.683594 130.328125 C 92.308594 130.960938 93.964844 131.269531 95.582031 131.269531 C 98.789062 131.269531 101.84375 130.066406 104.207031 127.796875 C 107.296875 129.164062 110.722656 129.183594 114.011719 127.824219 C 116.800781 126.675781 119.09375 124.449219 120.292969 121.722656 C 121.445312 119.113281 121.726562 116.425781 121.140625 113.835938 C 127.363281 111.722656 131.667969 105.867188 131.667969 99.117188 C 131.667969 95.09375 130.132812 91.273438 127.347656 88.367188 Z M 78.027344 126.390625 C 73.597656 128.113281 70.023438 126.210938 68.15625 123.855469 C 67.742188 123.335938 67.125 123.058594 66.5 123.058594 C 66.117188 123.058594 65.734375 123.160156 65.390625 123.371094 C 63.769531 124.371094 61.148438 125.277344 57.84375 123.914062 C 56.050781 123.175781 54.585938 121.753906 53.820312 120.015625 C 52.546875 117.125 53.078125 114.71875 53.746094 113.210938 C 54.007812 112.617188 53.984375 111.933594 53.679688 111.359375 C 53.371094 110.785156 52.820312 110.382812 52.175781 110.269531 C 46.746094 109.320312 42.804688 104.628906 42.804688 99.117188 C 42.804688 96.1875 43.921875 93.410156 45.949219 91.292969 C 47.105469 90.089844 48.53125 89.136719 50.082031 88.542969 C 50.976562 88.195312 51.527344 87.289062 51.421875 86.335938 C 51.316406 85.382812 50.582031 84.617188 49.628906 84.476562 C 46.644531 84.035156 44.476562 81.539062 44.476562 78.539062 C 44.476562 75.226562 47.171875 72.523438 50.488281 72.507812 C 51.21875 72.503906 51.898438 72.125 52.28125 71.5 C 52.660156 70.875 52.695312 70.097656 52.367188 69.445312 C 51.324219 67.371094 50.417969 64.039062 52.015625 59.921875 C 53.125 57.066406 55.503906 54.761719 58.378906 53.75 C 62.324219 52.367188 66.386719 53 69.519531 55.480469 C 70.375 56.160156 71.605469 56.074219 72.359375 55.289062 C 73.113281 54.5 73.144531 53.265625 72.433594 52.441406 C 70.871094 50.636719 70.515625 48.277344 71.464844 45.976562 C 72.050781 44.554688 73.265625 43.398438 74.714844 42.886719 C 76.722656 42.171875 78.808594 42.425781 80.449219 43.582031 C 82.050781 44.714844 83.007812 46.558594 83.007812 48.519531 L 83.007812 105.578125 C 81.144531 104.113281 78.828125 103.203125 76.277344 103.203125 C 70.234375 103.203125 65.320312 108.117188 65.320312 114.160156 C 65.320312 115.328125 66.265625 116.273438 67.433594 116.273438 C 68.601562 116.273438 69.546875 115.328125 69.546875 114.160156 C 69.546875 110.449219 72.566406 107.429688 76.277344 107.429688 C 79.988281 107.429688 83.007812 110.449219 83.007812 114.160156 L 83.007812 118.691406 C 83.007812 122.136719 81.003906 125.226562 78.027344 126.390625 Z M 118.066406 110.269531 C 117.425781 110.382812 116.871094 110.785156 116.566406 111.359375 C 116.257812 111.933594 116.234375 112.617188 116.5 113.210938 C 117.167969 114.71875 117.699219 117.125 116.425781 120.015625 C 115.660156 121.753906 114.191406 123.175781 112.402344 123.914062 C 109.097656 125.277344 106.476562 124.371094 104.855469 123.371094 C 103.941406 122.8125 102.753906 123.019531 102.089844 123.855469 C 100.21875 126.210938 96.648438 128.113281 92.21875 126.390625 C 89.238281 125.226562 87.234375 122.136719 87.234375 118.691406 L 87.234375 76.441406 C 89.101562 77.90625 91.417969 78.816406 93.964844 78.816406 C 100.011719 78.816406 104.925781 73.898438 104.925781 67.855469 C 104.925781 66.6875 103.980469 65.742188 102.8125 65.742188 C 101.644531 65.742188 100.699219 66.6875 100.699219 67.855469 C 100.699219 71.566406 97.679688 74.585938 93.964844 74.585938 C 90.253906 74.585938 87.234375 71.566406 87.234375 67.855469 L 87.234375 48.519531 C 87.234375 46.558594 88.191406 44.714844 89.796875 43.582031 C 90.824219 42.859375 92.027344 42.488281 93.277344 42.488281 C 94.019531 42.488281 94.78125 42.617188 95.53125 42.886719 C 96.980469 43.398438 98.195312 44.554688 98.777344 45.976562 C 99.726562 48.277344 99.375 50.636719 97.8125 52.441406 C 97.097656 53.265625 97.128906 54.5 97.882812 55.289062 C 98.636719 56.074219 99.871094 56.160156 100.722656 55.480469 C 103.859375 52.996094 107.917969 52.367188 111.867188 53.75 C 114.738281 54.761719 117.117188 57.066406 118.226562 59.921875 C 119.824219 64.039062 118.917969 67.371094 117.878906 69.445312 C 117.550781 70.097656 117.582031 70.875 117.964844 71.5 C 118.347656 72.125 119.027344 72.503906 119.757812 72.507812 C 123.070312 72.523438 125.765625 75.226562 125.765625 78.539062 C 125.765625 81.539062 123.601562 84.035156 120.613281 84.476562 C 119.664062 84.617188 118.925781 85.382812 118.820312 86.335938 C 118.714844 87.289062 119.265625 88.195312 120.164062 88.542969 C 121.710938 89.136719 123.140625 90.089844 124.296875 91.292969 C 126.320312 93.410156 127.4375 96.1875 127.4375 99.117188 C 127.4375 104.628906 123.496094 109.320312 118.066406 110.269531 Z M 118.066406 110.269531 " fill-opacity="1" fill-rule="nonzero"/><path fill="#f4b324" d="M 69.382812 84.867188 C 69.382812 86.035156 70.332031 86.984375 71.5 86.984375 C 72.667969 86.984375 73.613281 86.035156 73.613281 84.867188 C 73.613281 81.558594 71.882812 78.652344 69.292969 76.976562 C 69.300781 76.964844 69.3125 76.960938 69.324219 76.949219 C 72.992188 73.28125 72.992188 67.3125 69.324219 63.644531 C 68.5 62.816406 67.160156 62.816406 66.335938 63.644531 C 65.507812 64.46875 65.507812 65.804688 66.335938 66.632812 C 68.355469 68.652344 68.355469 71.9375 66.335938 73.960938 C 64.316406 75.980469 61.027344 75.980469 59.007812 73.960938 C 58.183594 73.132812 56.84375 73.132812 56.019531 73.960938 C 55.191406 74.785156 55.191406 76.125 56.019531 76.949219 C 57.851562 78.785156 60.261719 79.699219 62.671875 79.699219 C 63.035156 79.699219 63.394531 79.636719 63.753906 79.597656 C 63.902344 79.628906 64.042969 79.6875 64.203125 79.6875 C 67.058594 79.6875 69.382812 82.011719 69.382812 84.867188 Z M 69.382812 84.867188 " fill-opacity="1" fill-rule="nonzero"/><g clip-path="url(#2aa8da859e)"><path fill="#f4b324" d="M 167.574219 86.878906 C 168.742188 86.878906 169.6875 85.933594 169.6875 84.765625 C 169.6875 83.597656 168.742188 82.652344 167.574219 82.652344 L 148.546875 82.652344 L 148.546875 53.054688 L 159.5625 53.054688 C 160.378906 54.917969 162.234375 56.226562 164.402344 56.226562 C 167.320312 56.226562 169.6875 53.859375 169.6875 50.9375 C 169.6875 48.019531 167.320312 45.652344 164.402344 45.652344 C 162.234375 45.652344 160.378906 46.960938 159.5625 48.824219 L 148.546875 48.824219 L 148.546875 31.914062 C 148.546875 26.082031 143.804688 21.339844 137.976562 21.339844 L 121.070312 21.339844 L 121.070312 2.3125 C 121.070312 1.148438 120.125 0.199219 118.957031 0.199219 C 117.789062 0.199219 116.84375 1.148438 116.84375 2.3125 L 116.84375 21.339844 L 87.246094 21.339844 L 87.246094 2.3125 C 87.246094 1.148438 86.300781 0.199219 85.132812 0.199219 C 83.964844 0.199219 83.015625 1.148438 83.015625 2.3125 L 83.015625 21.339844 L 53.417969 21.339844 L 53.417969 10.324219 C 55.285156 9.507812 56.589844 7.652344 56.589844 5.484375 C 56.589844 2.566406 54.222656 0.199219 51.304688 0.199219 C 48.386719 0.199219 46.019531 2.566406 46.019531 5.484375 C 46.019531 7.652344 47.324219 9.507812 49.191406 10.324219 L 49.191406 21.339844 L 32.269531 21.339844 C 26.441406 21.339844 21.699219 26.082031 21.699219 31.914062 L 21.699219 48.824219 L 2.671875 48.824219 C 1.503906 48.824219 0.554688 49.773438 0.554688 50.9375 C 0.554688 52.105469 1.503906 53.054688 2.671875 53.054688 L 21.699219 53.054688 L 21.699219 82.652344 L 2.671875 82.652344 C 1.503906 82.652344 0.554688 83.597656 0.554688 84.765625 C 0.554688 85.933594 1.503906 86.878906 2.671875 86.878906 L 21.699219 86.878906 L 21.699219 116.476562 L 10.679688 116.476562 C 9.863281 114.613281 8.007812 113.304688 5.84375 113.304688 C 2.921875 113.304688 0.554688 115.671875 0.554688 118.589844 C 0.554688 121.511719 2.921875 123.878906 5.84375 123.878906 C 8.007812 123.878906 9.863281 122.570312 10.679688 120.707031 L 21.699219 120.707031 L 21.699219 137.617188 C 21.699219 143.449219 26.441406 148.191406 32.269531 148.191406 L 49.183594 148.191406 L 49.183594 159.230469 C 47.320312 160.046875 46.019531 161.902344 46.019531 164.0625 C 46.019531 166.980469 48.386719 169.347656 51.304688 169.347656 C 54.222656 169.347656 56.589844 166.980469 56.589844 164.0625 C 56.589844 161.894531 55.28125 160.03125 53.410156 159.21875 L 53.410156 148.191406 L 83.007812 148.191406 L 83.007812 167.21875 C 83.007812 168.382812 83.953125 169.332031 85.121094 169.332031 C 86.289062 169.332031 87.234375 168.382812 87.234375 167.21875 L 87.234375 148.191406 L 116.835938 148.191406 L 116.835938 167.21875 C 116.835938 168.382812 117.78125 169.332031 118.949219 169.332031 C 120.117188 169.332031 121.0625 168.382812 121.0625 167.21875 L 121.0625 148.191406 L 137.976562 148.191406 C 143.804688 148.191406 148.546875 143.449219 148.546875 137.617188 L 148.546875 120.707031 L 167.574219 120.707031 C 168.742188 120.707031 169.6875 119.757812 169.6875 118.589844 C 169.6875 117.425781 168.742188 116.476562 167.574219 116.476562 L 148.546875 116.476562 L 148.546875 86.878906 Z M 144.316406 137.617188 C 144.316406 141.117188 141.472656 143.960938 137.976562 143.960938 L 32.269531 143.960938 C 28.769531 143.960938 25.925781 141.117188 25.925781 137.617188 L 25.925781 31.914062 C 25.925781 28.414062 28.769531 25.570312 32.269531 25.570312 L 137.976562 25.570312 C 141.472656 25.570312 144.316406 28.414062 144.316406 31.914062 Z M 144.316406 137.617188 " fill-opacity="1" fill-rule="nonzero"/></g></g></g></g><g fill="#07a5c3" fill-opacity="1"><g transform="translate(155.426179, 164.436755)"><g><path d="M 2.203125 -25.390625 L 8.828125 -25.390625 L 15.828125 -8.328125 L 16.125 -8.328125 L 23.109375 -25.390625 L 29.734375 -25.390625 L 29.734375 0 L 24.53125 0 L 24.53125 -16.53125 L 24.3125 -16.53125 L 17.75 -0.125 L 14.203125 -0.125 L 7.625 -16.59375 L 7.421875 -16.59375 L 7.421875 0 L 2.203125 0 Z M 2.203125 -25.390625 "/></g></g></g><g fill="#07a5c3" fill-opacity="1"><g transform="translate(185.950848, 164.436755)"><g><path d="M 7.546875 0.359375 C 5.722656 0.359375 4.210938 -0.113281 3.015625 -1.0625 C 1.816406 -2.019531 1.21875 -3.4375 1.21875 -5.3125 C 1.21875 -6.738281 1.550781 -7.859375 2.21875 -8.671875 C 2.882812 -9.484375 3.757812 -10.078125 4.84375 -10.453125 C 5.9375 -10.828125 7.113281 -11.070312 8.375 -11.1875 C 10.019531 -11.351562 11.195312 -11.523438 11.90625 -11.703125 C 12.625 -11.890625 12.984375 -12.285156 12.984375 -12.890625 L 12.984375 -12.96875 C 12.984375 -13.757812 12.738281 -14.367188 12.25 -14.796875 C 11.757812 -15.222656 11.0625 -15.4375 10.15625 -15.4375 C 9.207031 -15.4375 8.453125 -15.226562 7.890625 -14.8125 C 7.328125 -14.40625 6.953125 -13.882812 6.765625 -13.25 L 1.890625 -13.640625 C 2.253906 -15.378906 3.15625 -16.753906 4.59375 -17.765625 C 6.039062 -18.785156 7.90625 -19.296875 10.1875 -19.296875 C 11.59375 -19.296875 12.910156 -19.070312 14.140625 -18.625 C 15.378906 -18.175781 16.375 -17.476562 17.125 -16.53125 C 17.882812 -15.59375 18.265625 -14.363281 18.265625 -12.84375 L 18.265625 0 L 13.25 0 L 13.25 -2.640625 L 13.109375 -2.640625 C 12.640625 -1.753906 11.941406 -1.03125 11.015625 -0.46875 C 10.097656 0.0820312 8.941406 0.359375 7.546875 0.359375 Z M 9.046875 -3.28125 C 10.210938 -3.28125 11.164062 -3.617188 11.90625 -4.296875 C 12.644531 -4.972656 13.015625 -5.8125 13.015625 -6.8125 L 13.015625 -8.828125 C 12.816406 -8.691406 12.5 -8.566406 12.0625 -8.453125 C 11.625 -8.347656 11.160156 -8.253906 10.671875 -8.171875 C 10.179688 -8.097656 9.738281 -8.03125 9.34375 -7.96875 C 8.425781 -7.84375 7.679688 -7.582031 7.109375 -7.1875 C 6.546875 -6.800781 6.265625 -6.238281 6.265625 -5.5 C 6.265625 -4.769531 6.523438 -4.21875 7.046875 -3.84375 C 7.578125 -3.46875 8.242188 -3.28125 9.046875 -3.28125 Z M 9.046875 -3.28125 "/></g></g></g><g fill="#07a5c3" fill-opacity="1"><g transform="translate(204.46989, 164.436755)"><g><path d="M 10.71875 0.375 C 8.757812 0.375 7.078125 -0.0390625 5.671875 -0.875 C 4.273438 -1.707031 3.203125 -2.863281 2.453125 -4.34375 C 1.710938 -5.820312 1.34375 -7.523438 1.34375 -9.453125 C 1.34375 -11.398438 1.71875 -13.109375 2.46875 -14.578125 C 3.226562 -16.054688 4.304688 -17.210938 5.703125 -18.046875 C 7.097656 -18.878906 8.757812 -19.296875 10.6875 -19.296875 C 12.351562 -19.296875 13.8125 -18.992188 15.0625 -18.390625 C 16.3125 -17.785156 17.296875 -16.9375 18.015625 -15.84375 C 18.742188 -14.757812 19.144531 -13.476562 19.21875 -12 L 14.234375 -12 C 14.097656 -12.957031 13.726562 -13.722656 13.125 -14.296875 C 12.53125 -14.878906 11.75 -15.171875 10.78125 -15.171875 C 9.550781 -15.171875 8.5625 -14.679688 7.8125 -13.703125 C 7.070312 -12.722656 6.703125 -11.332031 6.703125 -9.53125 C 6.703125 -7.707031 7.070312 -6.296875 7.8125 -5.296875 C 8.550781 -4.304688 9.539062 -3.8125 10.78125 -3.8125 C 11.6875 -3.8125 12.445312 -4.082031 13.0625 -4.625 C 13.6875 -5.175781 14.078125 -5.960938 14.234375 -6.984375 L 19.21875 -6.984375 C 19.132812 -5.523438 18.738281 -4.238281 18.03125 -3.125 C 17.332031 -2.019531 16.359375 -1.160156 15.109375 -0.546875 C 13.867188 0.0664062 12.40625 0.375 10.71875 0.375 Z M 10.71875 0.375 "/></g></g></g><g fill="#07a5c3" fill-opacity="1"><g transform="translate(223.236979, 164.436755)"><g><path d="M 7.390625 -11.015625 L 7.390625 0 L 2.109375 0 L 2.109375 -25.390625 L 7.25 -25.390625 L 7.25 -15.6875 L 7.46875 -15.6875 C 7.90625 -16.8125 8.597656 -17.691406 9.546875 -18.328125 C 10.503906 -18.972656 11.707031 -19.296875 13.15625 -19.296875 C 15.144531 -19.296875 16.738281 -18.660156 17.9375 -17.390625 C 19.144531 -16.117188 19.75 -14.363281 19.75 -12.125 L 19.75 0 L 14.453125 0 L 14.453125 -11.1875 C 14.460938 -12.363281 14.164062 -13.273438 13.5625 -13.921875 C 12.96875 -14.578125 12.132812 -14.90625 11.0625 -14.90625 C 9.988281 -14.90625 9.109375 -14.5625 8.421875 -13.875 C 7.742188 -13.195312 7.398438 -12.242188 7.390625 -11.015625 Z M 7.390625 -11.015625 "/></g></g></g><g fill="#07a5c3" fill-opacity="1"><g transform="translate(243.293924, 164.436755)"><g><path d="M 2.109375 0 L 2.109375 -19.046875 L 7.390625 -19.046875 L 7.390625 0 Z M 4.75 -21.5 C 3.976562 -21.5 3.3125 -21.757812 2.75 -22.28125 C 2.1875 -22.8125 1.90625 -23.445312 1.90625 -24.1875 C 1.90625 -24.914062 2.1875 -25.539062 2.75 -26.0625 C 3.3125 -26.582031 3.976562 -26.84375 4.75 -26.84375 C 5.539062 -26.84375 6.21875 -26.582031 6.78125 -26.0625 C 7.34375 -25.539062 7.625 -24.914062 7.625 -24.1875 C 7.625 -23.445312 7.34375 -22.8125 6.78125 -22.28125 C 6.21875 -21.757812 5.539062 -21.5 4.75 -21.5 Z M 4.75 -21.5 "/></g></g></g><g fill="#07a5c3" fill-opacity="1"><g transform="translate(251.047576, 164.436755)"><g><path d="M 7.390625 -11.015625 L 7.390625 0 L 2.109375 0 L 2.109375 -19.046875 L 7.140625 -19.046875 L 7.140625 -15.6875 L 7.359375 -15.6875 C 7.796875 -16.789062 8.503906 -17.664062 9.484375 -18.3125 C 10.472656 -18.96875 11.675781 -19.296875 13.09375 -19.296875 C 15.082031 -19.296875 16.675781 -18.65625 17.875 -17.375 C 19.070312 -16.101562 19.671875 -14.351562 19.671875 -12.125 L 19.671875 0 L 14.390625 0 L 14.390625 -11.1875 C 14.390625 -12.351562 14.085938 -13.265625 13.484375 -13.921875 C 12.890625 -14.578125 12.0625 -14.90625 11 -14.90625 C 9.9375 -14.90625 9.070312 -14.5625 8.40625 -13.875 C 7.738281 -13.195312 7.398438 -12.242188 7.390625 -11.015625 Z M 7.390625 -11.015625 "/></g></g></g><g fill="#07a5c3" fill-opacity="1"><g transform="translate(271.017711, 164.436755)"><g><path d="M 10.796875 0.375 C 8.835938 0.375 7.148438 -0.0195312 5.734375 -0.8125 C 4.328125 -1.613281 3.242188 -2.75 2.484375 -4.21875 C 1.722656 -5.6875 1.34375 -7.425781 1.34375 -9.4375 C 1.34375 -11.394531 1.722656 -13.113281 2.484375 -14.59375 C 3.242188 -16.070312 4.316406 -17.222656 5.703125 -18.046875 C 7.085938 -18.878906 8.710938 -19.296875 10.578125 -19.296875 C 12.253906 -19.296875 13.769531 -18.9375 15.125 -18.21875 C 16.476562 -17.507812 17.550781 -16.4375 18.34375 -15 C 19.132812 -13.570312 19.53125 -11.78125 19.53125 -9.625 L 19.53125 -8.171875 L 6.5625 -8.171875 L 6.5625 -8.15625 C 6.5625 -6.738281 6.945312 -5.617188 7.71875 -4.796875 C 8.5 -3.984375 9.550781 -3.578125 10.875 -3.578125 C 11.757812 -3.578125 12.523438 -3.757812 13.171875 -4.125 C 13.816406 -4.5 14.269531 -5.050781 14.53125 -5.78125 L 19.421875 -5.453125 C 19.046875 -3.679688 18.101562 -2.265625 16.59375 -1.203125 C 15.082031 -0.148438 13.148438 0.375 10.796875 0.375 Z M 6.5625 -11.453125 L 14.5625 -11.453125 C 14.550781 -12.578125 14.1875 -13.507812 13.46875 -14.25 C 12.75 -14.988281 11.816406 -15.359375 10.671875 -15.359375 C 9.492188 -15.359375 8.523438 -14.976562 7.765625 -14.21875 C 7.015625 -13.457031 6.613281 -12.535156 6.5625 -11.453125 Z M 6.5625 -11.453125 "/></g></g></g><g fill="#07a5c3" fill-opacity="1"><g transform="translate(155.426179, 198.871164)"><g><path d="M 2.203125 0 L 2.203125 -25.390625 L 7.578125 -25.390625 L 7.578125 -4.421875 L 18.46875 -4.421875 L 18.46875 0 Z M 2.203125 0 "/></g></g></g><g fill="#07a5c3" fill-opacity="1"><g transform="translate(173.498721, 198.871164)"><g><path d="M 10.796875 0.375 C 8.835938 0.375 7.148438 -0.0195312 5.734375 -0.8125 C 4.328125 -1.613281 3.242188 -2.75 2.484375 -4.21875 C 1.722656 -5.6875 1.34375 -7.425781 1.34375 -9.4375 C 1.34375 -11.394531 1.722656 -13.113281 2.484375 -14.59375 C 3.242188 -16.070312 4.316406 -17.222656 5.703125 -18.046875 C 7.085938 -18.878906 8.710938 -19.296875 10.578125 -19.296875 C 12.253906 -19.296875 13.769531 -18.9375 15.125 -18.21875 C 16.476562 -17.507812 17.550781 -16.4375 18.34375 -15 C 19.132812 -13.570312 19.53125 -11.78125 19.53125 -9.625 L 19.53125 -8.171875 L 6.5625 -8.171875 L 6.5625 -8.15625 C 6.5625 -6.738281 6.945312 -5.617188 7.71875 -4.796875 C 8.5 -3.984375 9.550781 -3.578125 10.875 -3.578125 C 11.757812 -3.578125 12.523438 -3.757812 13.171875 -4.125 C 13.816406 -4.5 14.269531 -5.050781 14.53125 -5.78125 L 19.421875 -5.453125 C 19.046875 -3.679688 18.101562 -2.265625 16.59375 -1.203125 C 15.082031 -0.148438 13.148438 0.375 10.796875 0.375 Z M 6.5625 -11.453125 L 14.5625 -11.453125 C 14.550781 -12.578125 14.1875 -13.507812 13.46875 -14.25 C 12.75 -14.988281 11.816406 -15.359375 10.671875 -15.359375 C 9.492188 -15.359375 8.523438 -14.976562 7.765625 -14.21875 C 7.015625 -13.457031 6.613281 -12.535156 6.5625 -11.453125 Z M 6.5625 -11.453125 "/></g></g></g><g fill="#07a5c3" fill-opacity="1"><g transform="translate(192.625475, 198.871164)"><g><path d="M 7.546875 0.359375 C 5.722656 0.359375 4.210938 -0.113281 3.015625 -1.0625 C 1.816406 -2.019531 1.21875 -3.4375 1.21875 -5.3125 C 1.21875 -6.738281 1.550781 -7.859375 2.21875 -8.671875 C 2.882812 -9.484375 3.757812 -10.078125 4.84375 -10.453125 C 5.9375 -10.828125 7.113281 -11.070312 8.375 -11.1875 C 10.019531 -11.351562 11.195312 -11.523438 11.90625 -11.703125 C 12.625 -11.890625 12.984375 -12.285156 12.984375 -12.890625 L 12.984375 -12.96875 C 12.984375 -13.757812 12.738281 -14.367188 12.25 -14.796875 C 11.757812 -15.222656 11.0625 -15.4375 10.15625 -15.4375 C 9.207031 -15.4375 8.453125 -15.226562 7.890625 -14.8125 C 7.328125 -14.40625 6.953125 -13.882812 6.765625 -13.25 L 1.890625 -13.640625 C 2.253906 -15.378906 3.15625 -16.753906 4.59375 -17.765625 C 6.039062 -18.785156 7.90625 -19.296875 10.1875 -19.296875 C 11.59375 -19.296875 12.910156 -19.070312 14.140625 -18.625 C 15.378906 -18.175781 16.375 -17.476562 17.125 -16.53125 C 17.882812 -15.59375 18.265625 -14.363281 18.265625 -12.84375 L 18.265625 0 L 13.25 0 L 13.25 -2.640625 L 13.109375 -2.640625 C 12.640625 -1.753906 11.941406 -1.03125 11.015625 -0.46875 C 10.097656 0.0820312 8.941406 0.359375 7.546875 0.359375 Z M 9.046875 -3.28125 C 10.210938 -3.28125 11.164062 -3.617188 11.90625 -4.296875 C 12.644531 -4.972656 13.015625 -5.8125 13.015625 -6.8125 L 13.015625 -8.828125 C 12.816406 -8.691406 12.5 -8.566406 12.0625 -8.453125 C 11.625 -8.347656 11.160156 -8.253906 10.671875 -8.171875 C 10.179688 -8.097656 9.738281 -8.03125 9.34375 -7.96875 C 8.425781 -7.84375 7.679688 -7.582031 7.109375 -7.1875 C 6.546875 -6.800781 6.265625 -6.238281 6.265625 -5.5 C 6.265625 -4.769531 6.523438 -4.21875 7.046875 -3.84375 C 7.578125 -3.46875 8.242188 -3.28125 9.046875 -3.28125 Z M 9.046875 -3.28125 "/></g></g></g><g fill="#07a5c3" fill-opacity="1"><g transform="translate(211.144514, 198.871164)"><g><path d="M 2.109375 0 L 2.109375 -19.046875 L 7.234375 -19.046875 L 7.234375 -15.71875 L 7.421875 -15.71875 C 7.773438 -16.90625 8.359375 -17.800781 9.171875 -18.40625 C 9.984375 -19.019531 10.925781 -19.328125 12 -19.328125 C 12.507812 -19.328125 12.984375 -19.265625 13.421875 -19.140625 C 13.867188 -19.015625 14.265625 -18.84375 14.609375 -18.625 L 13.015625 -14.265625 C 12.773438 -14.390625 12.503906 -14.492188 12.203125 -14.578125 C 11.910156 -14.660156 11.582031 -14.703125 11.21875 -14.703125 C 10.15625 -14.703125 9.253906 -14.335938 8.515625 -13.609375 C 7.773438 -12.890625 7.398438 -11.945312 7.390625 -10.78125 L 7.390625 0 Z M 2.109375 0 "/></g></g></g><g fill="#07a5c3" fill-opacity="1"><g transform="translate(224.367682, 198.871164)"><g><path d="M 7.390625 -11.015625 L 7.390625 0 L 2.109375 0 L 2.109375 -19.046875 L 7.140625 -19.046875 L 7.140625 -15.6875 L 7.359375 -15.6875 C 7.796875 -16.789062 8.503906 -17.664062 9.484375 -18.3125 C 10.472656 -18.96875 11.675781 -19.296875 13.09375 -19.296875 C 15.082031 -19.296875 16.675781 -18.65625 17.875 -17.375 C 19.070312 -16.101562 19.671875 -14.351562 19.671875 -12.125 L 19.671875 0 L 14.390625 0 L 14.390625 -11.1875 C 14.390625 -12.351562 14.085938 -13.265625 13.484375 -13.921875 C 12.890625 -14.578125 12.0625 -14.90625 11 -14.90625 C 9.9375 -14.90625 9.070312 -14.5625 8.40625 -13.875 C 7.738281 -13.195312 7.398438 -12.242188 7.390625 -11.015625 Z M 7.390625 -11.015625 "/></g></g></g><g fill="#07a5c3" fill-opacity="1"><g transform="translate(244.337817, 198.871164)"><g><path d="M 2.109375 0 L 2.109375 -19.046875 L 7.390625 -19.046875 L 7.390625 0 Z M 4.75 -21.5 C 3.976562 -21.5 3.3125 -21.757812 2.75 -22.28125 C 2.1875 -22.8125 1.90625 -23.445312 1.90625 -24.1875 C 1.90625 -24.914062 2.1875 -25.539062 2.75 -26.0625 C 3.3125 -26.582031 3.976562 -26.84375 4.75 -26.84375 C 5.539062 -26.84375 6.21875 -26.582031 6.78125 -26.0625 C 7.34375 -25.539062 7.625 -24.914062 7.625 -24.1875 C 7.625 -23.445312 7.34375 -22.8125 6.78125 -22.28125 C 6.21875 -21.757812 5.539062 -21.5 4.75 -21.5 Z M 4.75 -21.5 "/></g></g></g><g fill="#07a5c3" fill-opacity="1"><g transform="translate(252.091463, 198.871164)"><g><path d="M 7.390625 -11.015625 L 7.390625 0 L 2.109375 0 L 2.109375 -19.046875 L 7.140625 -19.046875 L 7.140625 -15.6875 L 7.359375 -15.6875 C 7.796875 -16.789062 8.503906 -17.664062 9.484375 -18.3125 C 10.472656 -18.96875 11.675781 -19.296875 13.09375 -19.296875 C 15.082031 -19.296875 16.675781 -18.65625 17.875 -17.375 C 19.070312 -16.101562 19.671875 -14.351562 19.671875 -12.125 L 19.671875 0 L 14.390625 0 L 14.390625 -11.1875 C 14.390625 -12.351562 14.085938 -13.265625 13.484375 -13.921875 C 12.890625 -14.578125 12.0625 -14.90625 11 -14.90625 C 9.9375 -14.90625 9.070312 -14.5625 8.40625 -13.875 C 7.738281 -13.195312 7.398438 -12.242188 7.390625 -11.015625 Z M 7.390625 -11.015625 "/></g></g></g><g fill="#07a5c3" fill-opacity="1"><g transform="translate(272.061599, 198.871164)"><g><path d="M 10.6875 7.421875 C 8.125 7.421875 6.109375 6.914062 4.640625 5.90625 C 3.179688 4.894531 2.296875 3.671875 1.984375 2.234375 L 6.875 1.578125 C 7.082031 2.085938 7.5 2.554688 8.125 2.984375 C 8.75 3.410156 9.644531 3.625 10.8125 3.625 C 11.957031 3.625 12.90625 3.347656 13.65625 2.796875 C 14.40625 2.253906 14.78125 1.359375 14.78125 0.109375 L 14.78125 -3.375 L 14.5625 -3.375 C 14.207031 -2.582031 13.59375 -1.863281 12.71875 -1.21875 C 11.84375 -0.582031 10.644531 -0.265625 9.125 -0.265625 C 7.695312 -0.265625 6.394531 -0.597656 5.21875 -1.265625 C 4.050781 -1.941406 3.125 -2.96875 2.4375 -4.34375 C 1.75 -5.71875 1.40625 -7.457031 1.40625 -9.5625 C 1.40625 -11.726562 1.753906 -13.53125 2.453125 -14.96875 C 3.160156 -16.40625 4.097656 -17.484375 5.265625 -18.203125 C 6.441406 -18.929688 7.722656 -19.296875 9.109375 -19.296875 C 10.179688 -19.296875 11.078125 -19.113281 11.796875 -18.75 C 12.515625 -18.394531 13.097656 -17.953125 13.546875 -17.421875 C 13.992188 -16.890625 14.332031 -16.363281 14.5625 -15.84375 L 14.75 -15.84375 L 14.75 -19.046875 L 20 -19.046875 L 20 0.1875 C 20 1.757812 19.597656 3.082031 18.796875 4.15625 C 18.003906 5.238281 16.910156 6.050781 15.515625 6.59375 C 14.117188 7.144531 12.507812 7.421875 10.6875 7.421875 Z M 10.796875 -4.234375 C 12.078125 -4.234375 13.066406 -4.703125 13.765625 -5.640625 C 14.460938 -6.585938 14.8125 -7.90625 14.8125 -9.59375 C 14.8125 -11.257812 14.460938 -12.59375 13.765625 -13.59375 C 13.066406 -14.59375 12.078125 -15.09375 10.796875 -15.09375 C 9.492188 -15.09375 8.5 -14.578125 7.8125 -13.546875 C 7.132812 -12.523438 6.796875 -11.207031 6.796875 -9.59375 C 6.796875 -7.945312 7.140625 -6.640625 7.828125 -5.671875 C 8.515625 -4.710938 9.503906 -4.234375 10.796875 -4.234375 Z M 10.796875 -4.234375 "/></g></g></g></svg>