<svg xmlns="http://www.w3.org/2000/svg" xmlns:xlink="http://www.w3.org/1999/xlink" width="500" zoomAndPan="magnify" viewBox="0 0 375 262.499992" height="350" preserveAspectRatio="xMidYMid meet" version="1.0"><defs><filter x="0%" y="0%" width="100%" height="100%" id="9aced09d65"><feColorMatrix values="0 0 0 0 1 0 0 0 0 1 0 0 0 0 1 0 0 0 1 0" color-interpolation-filters="sRGB"/></filter><g/><clipPath id="359b8b7c5d"><path d="M 0.355469 0 L 374.640625 0 L 374.640625 262 L 0.355469 262 Z M 0.355469 0 " clip-rule="nonzero"/></clipPath><mask id="753b8c2745"><g filter="url(#9aced09d65)"><rect x="-37.5" width="450" fill="#000000" y="-26.249999" height="314.999991" fill-opacity="0.55"/></g></mask><clipPath id="2e43abe1d4"><path d="M 0.554688 0.402344 L 165 0.402344 L 165 121.671875 L 0.554688 121.671875 Z M 0.554688 0.402344 " clip-rule="nonzero"/></clipPath><clipPath id="ef62b000ac"><rect x="0" width="196" y="0" height="123"/></clipPath></defs><g clip-path="url(#359b8b7c5d)"><path fill="#ffffff" d="M 0.355469 0 L 374.644531 0 L 374.644531 262 L 0.355469 262 Z M 0.355469 0 " fill-opacity="1" fill-rule="nonzero"/><path fill="#ffffff" d="M 0.355469 0 L 374.644531 0 L 374.644531 262 L 0.355469 262 Z M 0.355469 0 " fill-opacity="1" fill-rule="nonzero"/></g><g mask="url(#753b8c2745)"><g transform="matrix(1, 0, 0, 1, 26, 47)"><g clip-path="url(#ef62b000ac)"><path fill="#f4b324" d="M 70.429688 91.539062 C 68.761719 91.539062 67.394531 92.90625 67.394531 94.578125 C 67.394531 96.25 68.761719 97.617188 70.429688 97.617188 L 94.734375 97.617188 C 96.40625 97.617188 97.773438 96.25 97.773438 94.578125 C 97.773438 92.90625 96.40625 91.539062 94.734375 91.539062 Z M 70.429688 91.539062 " fill-opacity="1" fill-rule="nonzero"/><path fill="#f4b324" d="M 28.054688 93.667969 C 28.054688 94.007812 27.988281 94.335938 27.855469 94.652344 C 27.726562 94.96875 27.539062 95.25 27.296875 95.492188 C 27.054688 95.734375 26.773438 95.921875 26.457031 96.050781 C 26.140625 96.183594 25.8125 96.25 25.46875 96.25 C 25.128906 96.25 24.796875 96.183594 24.480469 96.050781 C 24.167969 95.921875 23.886719 95.734375 23.644531 95.492188 C 23.402344 95.25 23.214844 94.96875 23.085938 94.652344 C 22.953125 94.335938 22.886719 94.007812 22.886719 93.667969 C 22.886719 93.324219 22.953125 92.996094 23.085938 92.679688 C 23.214844 92.363281 23.402344 92.082031 23.644531 91.839844 C 23.886719 91.597656 24.167969 91.410156 24.480469 91.28125 C 24.796875 91.148438 25.128906 91.082031 25.46875 91.082031 C 25.8125 91.082031 26.140625 91.148438 26.457031 91.28125 C 26.773438 91.410156 27.054688 91.597656 27.296875 91.839844 C 27.539062 92.082031 27.726562 92.363281 27.855469 92.679688 C 27.988281 92.996094 28.054688 93.324219 28.054688 93.667969 Z M 28.054688 93.667969 " fill-opacity="1" fill-rule="nonzero"/><path fill="#f4b324" d="M 17.875 93.667969 C 17.875 94.007812 17.808594 94.335938 17.679688 94.652344 C 17.546875 94.96875 17.363281 95.25 17.121094 95.492188 C 16.878906 95.734375 16.597656 95.921875 16.28125 96.050781 C 15.964844 96.183594 15.636719 96.25 15.292969 96.25 C 14.953125 96.25 14.621094 96.183594 14.304688 96.050781 C 13.988281 95.921875 13.710938 95.734375 13.46875 95.492188 C 13.226562 95.25 13.039062 94.96875 12.90625 94.652344 C 12.777344 94.335938 12.710938 94.007812 12.710938 93.667969 C 12.710938 93.324219 12.777344 92.996094 12.90625 92.679688 C 13.039062 92.363281 13.226562 92.082031 13.46875 91.839844 C 13.710938 91.597656 13.988281 91.410156 14.304688 91.28125 C 14.621094 91.148438 14.953125 91.082031 15.292969 91.082031 C 15.636719 91.082031 15.964844 91.148438 16.28125 91.28125 C 16.597656 91.410156 16.878906 91.597656 17.121094 91.839844 C 17.363281 92.082031 17.546875 92.363281 17.679688 92.679688 C 17.808594 92.996094 17.875 93.324219 17.875 93.667969 Z M 17.875 93.667969 " fill-opacity="1" fill-rule="nonzero"/><path fill="#f4b324" d="M 68.457031 24.554688 C 67.546875 23.1875 65.570312 22.730469 64.203125 23.644531 L 36.863281 41.871094 C 35.953125 42.476562 35.496094 43.390625 35.496094 44.453125 C 35.496094 45.515625 35.953125 46.425781 36.863281 47.035156 C 36.863281 47.035156 64.203125 65.261719 64.203125 65.261719 C 65.570312 66.171875 67.546875 65.871094 68.457031 64.351562 C 69.367188 62.984375 69.0625 61.007812 67.546875 60.097656 L 44 44.453125 L 67.546875 28.808594 C 68.910156 27.894531 69.367188 25.921875 68.457031 24.554688 Z M 68.457031 24.554688 " fill-opacity="1" fill-rule="nonzero"/><path fill="#f4b324" d="M 96.707031 64.351562 C 97.621094 65.71875 99.59375 66.171875 100.960938 65.261719 L 128.300781 47.035156 C 129.214844 46.425781 129.667969 45.515625 129.667969 44.453125 C 129.667969 43.390625 129.214844 42.476562 128.300781 41.871094 L 100.960938 23.644531 C 99.59375 22.730469 97.621094 23.035156 96.707031 24.554688 C 95.796875 25.921875 96.101562 27.894531 97.621094 28.808594 L 121.164062 44.453125 L 97.621094 60.097656 C 96.253906 61.007812 95.796875 62.984375 96.707031 64.351562 Z M 96.707031 64.351562 " fill-opacity="1" fill-rule="nonzero"/><path fill="#f4b324" d="M 85.773438 20.910156 L 73.621094 66.476562 C 73.164062 68.148438 74.226562 69.820312 75.746094 70.121094 C 76.050781 70.121094 76.203125 70.273438 76.507812 70.273438 C 77.875 70.273438 79.089844 69.363281 79.394531 67.996094 L 91.542969 22.429688 C 92 20.757812 90.9375 19.085938 89.417969 18.78125 C 87.898438 18.328125 86.226562 19.238281 85.773438 20.910156 Z M 85.773438 20.910156 " fill-opacity="1" fill-rule="nonzero"/><g clip-path="url(#2e43abe1d4)"><path fill="#f4b324" d="M 70.429688 115.84375 L 61.316406 115.84375 C 59.648438 115.84375 58.28125 117.210938 58.28125 118.878906 C 58.28125 120.550781 59.648438 121.917969 61.316406 121.917969 L 103.847656 121.917969 C 105.519531 121.917969 106.886719 120.550781 106.886719 118.878906 C 106.886719 117.210938 105.519531 115.84375 103.847656 115.84375 L 94.734375 115.84375 L 94.734375 106.730469 L 155.492188 106.730469 C 159.441406 106.730469 162.78125 104.148438 163.996094 100.652344 L 160.808594 100.652344 C 159.441406 100.652344 158.226562 100.5 157.011719 100.046875 C 156.554688 100.347656 155.945312 100.652344 155.339844 100.652344 L 9.671875 100.652344 C 8.003906 100.652344 6.636719 99.285156 6.636719 97.617188 L 6.636719 88.5 L 135.136719 88.5 L 134.683594 88.046875 C 133.164062 86.527344 131.949219 84.550781 131.339844 82.425781 L 6.636719 82.425781 L 6.636719 9.515625 C 6.636719 7.847656 8.003906 6.480469 9.671875 6.480469 L 155.492188 6.480469 C 157.160156 6.480469 158.527344 7.847656 158.527344 9.515625 L 158.527344 25.011719 C 159.289062 24.859375 160.046875 24.707031 160.960938 24.707031 L 164.605469 24.707031 L 164.605469 9.515625 C 164.605469 4.503906 160.503906 0.402344 155.492188 0.402344 L 9.671875 0.402344 C 4.660156 0.402344 0.558594 4.503906 0.558594 9.515625 L 0.558594 97.617188 C 0.558594 102.628906 4.660156 106.730469 9.671875 106.730469 L 70.429688 106.730469 Z M 76.507812 106.730469 L 88.65625 106.730469 L 88.65625 115.84375 L 76.507812 115.84375 Z M 76.507812 106.730469 " fill-opacity="1" fill-rule="nonzero"/></g><path fill="#f4b324" d="M 189.058594 53.109375 C 188.753906 52.351562 188.453125 51.742188 188.148438 50.984375 C 190.121094 48.097656 189.820312 44.148438 187.238281 41.566406 L 184.199219 38.527344 C 182.832031 37.160156 180.855469 36.402344 178.882812 36.402344 C 177.363281 36.402344 175.996094 36.859375 174.78125 37.617188 C 174.175781 37.3125 173.414062 37.011719 172.65625 36.707031 C 171.894531 33.210938 168.859375 30.78125 165.363281 30.78125 L 161.109375 30.78125 C 157.464844 30.78125 154.429688 33.363281 153.820312 36.707031 C 153.0625 37.011719 152.453125 37.3125 151.695312 37.617188 C 150.480469 36.859375 149.113281 36.402344 147.59375 36.402344 C 145.617188 36.402344 143.644531 37.160156 142.277344 38.527344 L 139.238281 41.566406 C 136.65625 44.148438 136.351562 48.097656 138.328125 50.984375 C 138.023438 51.589844 137.71875 52.351562 137.414062 53.109375 C 133.921875 53.871094 131.492188 56.90625 131.492188 60.402344 L 131.492188 64.65625 C 131.492188 68.300781 134.074219 71.335938 137.414062 71.945312 C 137.71875 72.703125 138.023438 73.3125 138.328125 74.070312 C 137.566406 75.285156 137.113281 76.652344 137.113281 78.171875 C 137.113281 80.148438 137.871094 82.121094 139.238281 83.488281 L 142.277344 86.527344 C 143.644531 87.894531 145.617188 88.652344 147.59375 88.652344 C 149.113281 88.652344 150.480469 88.199219 151.695312 87.4375 C 152.300781 87.742188 153.0625 88.046875 153.820312 88.351562 C 154.578125 91.84375 157.617188 94.273438 161.109375 94.273438 L 165.363281 94.273438 C 169.007812 94.273438 172.046875 91.691406 172.65625 88.351562 C 173.414062 88.046875 174.023438 87.742188 174.78125 87.4375 C 175.996094 88.199219 177.363281 88.652344 178.882812 88.652344 C 180.855469 88.652344 182.832031 87.894531 184.199219 86.527344 L 187.238281 83.488281 C 188.605469 82.121094 189.363281 80.148438 189.363281 78.171875 C 189.363281 76.652344 188.90625 75.285156 188.148438 74.070312 C 188.453125 73.464844 188.753906 72.703125 189.058594 71.945312 C 192.554688 71.1875 194.984375 68.148438 194.984375 64.65625 L 194.984375 60.402344 C 194.984375 56.90625 192.402344 53.871094 189.058594 53.109375 Z M 188.90625 64.804688 C 188.90625 65.566406 188.300781 66.171875 187.539062 66.171875 L 184.351562 66.171875 C 183.742188 69.515625 182.527344 72.402344 180.707031 74.984375 L 182.984375 77.261719 C 183.589844 77.867188 183.589844 78.78125 182.984375 79.234375 L 179.945312 82.273438 C 179.640625 82.578125 179.339844 82.730469 178.882812 82.730469 C 178.425781 82.730469 178.125 82.578125 177.820312 82.273438 L 175.542969 79.996094 C 172.957031 81.816406 169.921875 83.183594 166.730469 83.640625 L 166.730469 86.832031 C 166.730469 87.589844 166.125 88.199219 165.363281 88.199219 L 161.109375 88.199219 C 160.351562 88.199219 159.746094 87.589844 159.746094 86.832031 L 159.746094 83.945312 C 156.402344 83.335938 153.515625 82.121094 150.933594 80.300781 L 148.351562 82.425781 C 148.046875 82.730469 147.746094 82.882812 147.289062 82.882812 C 146.832031 82.882812 146.679688 82.730469 146.378906 82.425781 L 143.339844 79.386719 C 142.730469 78.78125 142.730469 77.867188 143.339844 77.414062 L 145.617188 75.136719 C 143.796875 72.554688 142.429688 69.515625 141.972656 66.324219 L 138.78125 66.324219 C 138.023438 66.324219 137.414062 65.71875 137.414062 64.957031 L 137.414062 60.707031 C 137.414062 59.945312 138.023438 59.339844 138.78125 59.339844 L 141.820312 59.339844 C 142.429688 55.996094 143.644531 53.109375 145.464844 50.527344 L 143.339844 47.945312 C 142.730469 47.339844 142.730469 46.425781 143.339844 45.972656 L 146.378906 42.933594 C 146.679688 42.628906 146.984375 42.476562 147.441406 42.476562 C 147.898438 42.476562 148.199219 42.628906 148.503906 42.933594 L 150.78125 45.210938 C 153.363281 43.390625 156.402344 42.023438 159.59375 41.566406 L 159.59375 38.375 C 159.59375 37.617188 160.199219 37.011719 160.960938 37.011719 L 165.210938 37.011719 C 165.972656 37.011719 166.578125 37.617188 166.578125 38.375 L 166.578125 41.414062 C 169.921875 42.023438 172.808594 43.238281 175.390625 45.058594 L 177.667969 42.78125 C 177.972656 42.476562 178.273438 42.324219 178.730469 42.324219 C 179.1875 42.324219 179.492188 42.476562 179.792969 42.78125 L 182.832031 45.820312 C 183.441406 46.425781 183.441406 47.339844 182.832031 47.792969 L 180.554688 50.074219 C 182.375 52.65625 183.742188 55.691406 184.199219 58.882812 L 187.390625 58.882812 C 188.148438 58.882812 188.753906 59.488281 188.753906 60.25 L 188.753906 64.804688 Z M 188.90625 64.804688 " fill-opacity="1" fill-rule="nonzero"/><path fill="#f4b324" d="M 163.085938 50.527344 C 156.402344 50.527344 150.933594 55.996094 150.933594 62.679688 C 150.933594 69.363281 156.402344 74.832031 163.085938 74.832031 C 169.769531 74.832031 175.238281 69.363281 175.238281 62.679688 C 175.238281 55.996094 169.769531 50.527344 163.085938 50.527344 Z M 163.085938 68.753906 C 159.746094 68.753906 157.011719 66.019531 157.011719 62.679688 C 157.011719 59.339844 159.746094 56.605469 163.085938 56.605469 C 166.425781 56.605469 169.160156 59.339844 169.160156 62.679688 C 169.160156 66.019531 166.425781 68.753906 163.085938 68.753906 Z M 163.085938 68.753906 " fill-opacity="1" fill-rule="nonzero"/></g></g></g><g fill="#07a5c3" fill-opacity="1"><g transform="translate(135.155131, 164.436784)"><g><path d="M 7.921875 0 L 0.65625 -25.390625 L 6.515625 -25.390625 L 10.734375 -7.75 L 10.9375 -7.75 L 15.578125 -25.390625 L 20.59375 -25.390625 L 25.21875 -7.71875 L 25.453125 -7.71875 L 29.65625 -25.390625 L 35.515625 -25.390625 L 28.25 0 L 23.015625 0 L 18.1875 -16.609375 L 17.984375 -16.609375 L 13.15625 0 Z M 7.921875 0 "/></g></g></g><g fill="#07a5c3" fill-opacity="1"><g transform="translate(169.586587, 164.436784)"><g><path d="M 10.796875 0.375 C 8.835938 0.375 7.148438 -0.0195312 5.734375 -0.8125 C 4.328125 -1.613281 3.242188 -2.75 2.484375 -4.21875 C 1.722656 -5.6875 1.34375 -7.425781 1.34375 -9.4375 C 1.34375 -11.394531 1.722656 -13.113281 2.484375 -14.59375 C 3.242188 -16.070312 4.316406 -17.222656 5.703125 -18.046875 C 7.085938 -18.878906 8.710938 -19.296875 10.578125 -19.296875 C 12.253906 -19.296875 13.769531 -18.9375 15.125 -18.21875 C 16.476562 -17.507812 17.550781 -16.4375 18.34375 -15 C 19.132812 -13.570312 19.53125 -11.78125 19.53125 -9.625 L 19.53125 -8.171875 L 6.5625 -8.171875 L 6.5625 -8.15625 C 6.5625 -6.738281 6.945312 -5.617188 7.71875 -4.796875 C 8.5 -3.984375 9.550781 -3.578125 10.875 -3.578125 C 11.757812 -3.578125 12.523438 -3.757812 13.171875 -4.125 C 13.816406 -4.5 14.269531 -5.050781 14.53125 -5.78125 L 19.421875 -5.453125 C 19.046875 -3.679688 18.101562 -2.265625 16.59375 -1.203125 C 15.082031 -0.148438 13.148438 0.375 10.796875 0.375 Z M 6.5625 -11.453125 L 14.5625 -11.453125 C 14.550781 -12.578125 14.1875 -13.507812 13.46875 -14.25 C 12.75 -14.988281 11.816406 -15.359375 10.671875 -15.359375 C 9.492188 -15.359375 8.523438 -14.976562 7.765625 -14.21875 C 7.015625 -13.457031 6.613281 -12.535156 6.5625 -11.453125 Z M 6.5625 -11.453125 "/></g></g></g><g fill="#07a5c3" fill-opacity="1"><g transform="translate(188.713337, 164.436784)"><g><path d="M 2.203125 0 L 2.203125 -25.390625 L 7.484375 -25.390625 L 7.484375 -15.84375 L 7.65625 -15.84375 C 7.894531 -16.363281 8.234375 -16.890625 8.671875 -17.421875 C 9.109375 -17.953125 9.6875 -18.394531 10.40625 -18.75 C 11.125 -19.113281 12.015625 -19.296875 13.078125 -19.296875 C 14.472656 -19.296875 15.75 -18.929688 16.90625 -18.203125 C 18.070312 -17.484375 19.007812 -16.394531 19.71875 -14.9375 C 20.425781 -13.488281 20.78125 -11.675781 20.78125 -9.5 C 20.78125 -7.375 20.4375 -5.582031 19.75 -4.125 C 19.0625 -2.664062 18.132812 -1.5625 16.96875 -0.8125 C 15.8125 -0.0625 14.507812 0.3125 13.0625 0.3125 C 12.03125 0.3125 11.15625 0.144531 10.4375 -0.1875 C 9.726562 -0.53125 9.148438 -0.957031 8.703125 -1.46875 C 8.253906 -1.988281 7.90625 -2.515625 7.65625 -3.046875 L 7.421875 -3.046875 L 7.421875 0 Z M 7.375 -9.53125 C 7.375 -7.832031 7.722656 -6.46875 8.421875 -5.4375 C 9.117188 -4.40625 10.109375 -3.890625 11.390625 -3.890625 C 12.679688 -3.890625 13.671875 -4.410156 14.359375 -5.453125 C 15.046875 -6.503906 15.390625 -7.863281 15.390625 -9.53125 C 15.390625 -11.175781 15.046875 -12.515625 14.359375 -13.546875 C 13.679688 -14.578125 12.691406 -15.09375 11.390625 -15.09375 C 10.109375 -15.09375 9.117188 -14.585938 8.421875 -13.578125 C 7.722656 -12.578125 7.375 -11.226562 7.375 -9.53125 Z M 7.375 -9.53125 "/></g></g></g><g fill="#07a5c3" fill-opacity="1"><g transform="translate(135.155131, 198.871192)"><g><path d="M 11.203125 0 L 2.203125 0 L 2.203125 -25.390625 L 11.28125 -25.390625 C 13.84375 -25.390625 16.046875 -24.882812 17.890625 -23.875 C 19.734375 -22.863281 21.148438 -21.410156 22.140625 -19.515625 C 23.140625 -17.628906 23.640625 -15.363281 23.640625 -12.71875 C 23.640625 -10.070312 23.140625 -7.796875 22.140625 -5.890625 C 21.140625 -3.992188 19.710938 -2.535156 17.859375 -1.515625 C 16.003906 -0.503906 13.785156 0 11.203125 0 Z M 7.578125 -4.59375 L 10.984375 -4.59375 C 13.378906 -4.59375 15.191406 -5.238281 16.421875 -6.53125 C 17.660156 -7.820312 18.28125 -9.882812 18.28125 -12.71875 C 18.28125 -15.539062 17.660156 -17.59375 16.421875 -18.875 C 15.191406 -20.15625 13.382812 -20.796875 11 -20.796875 L 7.578125 -20.796875 Z M 7.578125 -4.59375 "/></g></g></g><g fill="#07a5c3" fill-opacity="1"><g transform="translate(158.808803, 198.871192)"><g><path d="M 10.796875 0.375 C 8.835938 0.375 7.148438 -0.0195312 5.734375 -0.8125 C 4.328125 -1.613281 3.242188 -2.75 2.484375 -4.21875 C 1.722656 -5.6875 1.34375 -7.425781 1.34375 -9.4375 C 1.34375 -11.394531 1.722656 -13.113281 2.484375 -14.59375 C 3.242188 -16.070312 4.316406 -17.222656 5.703125 -18.046875 C 7.085938 -18.878906 8.710938 -19.296875 10.578125 -19.296875 C 12.253906 -19.296875 13.769531 -18.9375 15.125 -18.21875 C 16.476562 -17.507812 17.550781 -16.4375 18.34375 -15 C 19.132812 -13.570312 19.53125 -11.78125 19.53125 -9.625 L 19.53125 -8.171875 L 6.5625 -8.171875 L 6.5625 -8.15625 C 6.5625 -6.738281 6.945312 -5.617188 7.71875 -4.796875 C 8.5 -3.984375 9.550781 -3.578125 10.875 -3.578125 C 11.757812 -3.578125 12.523438 -3.757812 13.171875 -4.125 C 13.816406 -4.5 14.269531 -5.050781 14.53125 -5.78125 L 19.421875 -5.453125 C 19.046875 -3.679688 18.101562 -2.265625 16.59375 -1.203125 C 15.082031 -0.148438 13.148438 0.375 10.796875 0.375 Z M 6.5625 -11.453125 L 14.5625 -11.453125 C 14.550781 -12.578125 14.1875 -13.507812 13.46875 -14.25 C 12.75 -14.988281 11.816406 -15.359375 10.671875 -15.359375 C 9.492188 -15.359375 8.523438 -14.976562 7.765625 -14.21875 C 7.015625 -13.457031 6.613281 -12.535156 6.5625 -11.453125 Z M 6.5625 -11.453125 "/></g></g></g><g fill="#07a5c3" fill-opacity="1"><g transform="translate(177.935553, 198.871192)"><g><path d="M 19.859375 -19.046875 L 13.203125 0 L 7.25 0 L 0.59375 -19.046875 L 6.171875 -19.046875 L 10.125 -5.421875 L 10.328125 -5.421875 L 14.28125 -19.046875 Z M 19.859375 -19.046875 "/></g></g></g><g fill="#07a5c3" fill-opacity="1"><g transform="translate(196.653029, 198.871192)"><g><path d="M 10.796875 0.375 C 8.835938 0.375 7.148438 -0.0195312 5.734375 -0.8125 C 4.328125 -1.613281 3.242188 -2.75 2.484375 -4.21875 C 1.722656 -5.6875 1.34375 -7.425781 1.34375 -9.4375 C 1.34375 -11.394531 1.722656 -13.113281 2.484375 -14.59375 C 3.242188 -16.070312 4.316406 -17.222656 5.703125 -18.046875 C 7.085938 -18.878906 8.710938 -19.296875 10.578125 -19.296875 C 12.253906 -19.296875 13.769531 -18.9375 15.125 -18.21875 C 16.476562 -17.507812 17.550781 -16.4375 18.34375 -15 C 19.132812 -13.570312 19.53125 -11.78125 19.53125 -9.625 L 19.53125 -8.171875 L 6.5625 -8.171875 L 6.5625 -8.15625 C 6.5625 -6.738281 6.945312 -5.617188 7.71875 -4.796875 C 8.5 -3.984375 9.550781 -3.578125 10.875 -3.578125 C 11.757812 -3.578125 12.523438 -3.757812 13.171875 -4.125 C 13.816406 -4.5 14.269531 -5.050781 14.53125 -5.78125 L 19.421875 -5.453125 C 19.046875 -3.679688 18.101562 -2.265625 16.59375 -1.203125 C 15.082031 -0.148438 13.148438 0.375 10.796875 0.375 Z M 6.5625 -11.453125 L 14.5625 -11.453125 C 14.550781 -12.578125 14.1875 -13.507812 13.46875 -14.25 C 12.75 -14.988281 11.816406 -15.359375 10.671875 -15.359375 C 9.492188 -15.359375 8.523438 -14.976562 7.765625 -14.21875 C 7.015625 -13.457031 6.613281 -12.535156 6.5625 -11.453125 Z M 6.5625 -11.453125 "/></g></g></g><g fill="#07a5c3" fill-opacity="1"><g transform="translate(215.779779, 198.871192)"><g><path d="M 7.390625 -25.390625 L 7.390625 0 L 2.109375 0 L 2.109375 -25.390625 Z M 7.390625 -25.390625 "/></g></g></g><g fill="#07a5c3" fill-opacity="1"><g transform="translate(223.533425, 198.871192)"><g><path d="M 10.71875 0.375 C 8.789062 0.375 7.125 -0.0351562 5.71875 -0.859375 C 4.320312 -1.679688 3.242188 -2.828125 2.484375 -4.296875 C 1.722656 -5.773438 1.34375 -7.492188 1.34375 -9.453125 C 1.34375 -11.421875 1.722656 -13.140625 2.484375 -14.609375 C 3.242188 -16.085938 4.320312 -17.238281 5.71875 -18.0625 C 7.125 -18.882812 8.789062 -19.296875 10.71875 -19.296875 C 12.644531 -19.296875 14.304688 -18.882812 15.703125 -18.0625 C 17.109375 -17.238281 18.191406 -16.085938 18.953125 -14.609375 C 19.710938 -13.140625 20.09375 -11.421875 20.09375 -9.453125 C 20.09375 -7.492188 19.710938 -5.773438 18.953125 -4.296875 C 18.191406 -2.828125 17.109375 -1.679688 15.703125 -0.859375 C 14.304688 -0.0351562 12.644531 0.375 10.71875 0.375 Z M 10.734375 -3.71875 C 12.046875 -3.71875 13.035156 -4.265625 13.703125 -5.359375 C 14.378906 -6.453125 14.71875 -7.828125 14.71875 -9.484375 C 14.71875 -11.148438 14.378906 -12.53125 13.703125 -13.625 C 13.035156 -14.71875 12.046875 -15.265625 10.734375 -15.265625 C 9.410156 -15.265625 8.40625 -14.71875 7.71875 -13.625 C 7.039062 -12.53125 6.703125 -11.148438 6.703125 -9.484375 C 6.703125 -7.828125 7.039062 -6.453125 7.71875 -5.359375 C 8.40625 -4.265625 9.410156 -3.71875 10.734375 -3.71875 Z M 10.734375 -3.71875 "/></g></g></g><g fill="#07a5c3" fill-opacity="1"><g transform="translate(243.218294, 198.871192)"><g><path d="M 2.109375 7.140625 L 2.109375 -19.046875 L 7.3125 -19.046875 L 7.3125 -15.84375 L 7.546875 -15.84375 C 7.785156 -16.363281 8.125 -16.890625 8.5625 -17.421875 C 9.007812 -17.953125 9.59375 -18.394531 10.3125 -18.75 C 11.03125 -19.113281 11.914062 -19.296875 12.96875 -19.296875 C 14.363281 -19.296875 15.644531 -18.929688 16.8125 -18.203125 C 17.976562 -17.484375 18.914062 -16.394531 19.625 -14.9375 C 20.332031 -13.488281 20.6875 -11.675781 20.6875 -9.5 C 20.6875 -7.375 20.34375 -5.582031 19.65625 -4.125 C 18.96875 -2.664062 18.039062 -1.5625 16.875 -0.8125 C 15.707031 -0.0625 14.398438 0.3125 12.953125 0.3125 C 11.929688 0.3125 11.0625 0.144531 10.34375 -0.1875 C 9.632812 -0.53125 9.050781 -0.957031 8.59375 -1.46875 C 8.144531 -1.988281 7.796875 -2.515625 7.546875 -3.046875 L 7.390625 -3.046875 L 7.390625 7.140625 Z M 7.28125 -9.53125 C 7.28125 -7.832031 7.628906 -6.46875 8.328125 -5.4375 C 9.023438 -4.40625 10.007812 -3.890625 11.28125 -3.890625 C 12.582031 -3.890625 13.578125 -4.410156 14.265625 -5.453125 C 14.953125 -6.503906 15.296875 -7.863281 15.296875 -9.53125 C 15.296875 -11.175781 14.953125 -12.515625 14.265625 -13.546875 C 13.585938 -14.578125 12.59375 -15.09375 11.28125 -15.09375 C 10 -15.09375 9.007812 -14.585938 8.3125 -13.578125 C 7.625 -12.578125 7.28125 -11.226562 7.28125 -9.53125 Z M 7.28125 -9.53125 "/></g></g></g><g fill="#07a5c3" fill-opacity="1"><g transform="translate(263.560488, 198.871192)"><g><path d="M 2.109375 0 L 2.109375 -19.046875 L 7.140625 -19.046875 L 7.140625 -15.6875 L 7.359375 -15.6875 C 7.765625 -16.8125 8.429688 -17.691406 9.359375 -18.328125 C 10.285156 -18.972656 11.390625 -19.296875 12.671875 -19.296875 C 13.984375 -19.296875 15.097656 -18.96875 16.015625 -18.3125 C 16.929688 -17.664062 17.539062 -16.789062 17.84375 -15.6875 L 18.046875 -15.6875 C 18.429688 -16.78125 19.132812 -17.65625 20.15625 -18.3125 C 21.175781 -18.96875 22.382812 -19.296875 23.78125 -19.296875 C 25.5625 -19.296875 27.003906 -18.726562 28.109375 -17.59375 C 29.222656 -16.46875 29.78125 -14.875 29.78125 -12.8125 L 29.78125 0 L 24.515625 0 L 24.515625 -11.765625 C 24.515625 -12.828125 24.234375 -13.617188 23.671875 -14.140625 C 23.109375 -14.671875 22.40625 -14.9375 21.5625 -14.9375 C 20.601562 -14.9375 19.851562 -14.628906 19.3125 -14.015625 C 18.78125 -13.410156 18.515625 -12.613281 18.515625 -11.625 L 18.515625 0 L 13.390625 0 L 13.390625 -11.875 C 13.390625 -12.8125 13.125 -13.554688 12.59375 -14.109375 C 12.0625 -14.660156 11.359375 -14.9375 10.484375 -14.9375 C 9.609375 -14.9375 8.875 -14.613281 8.28125 -13.96875 C 7.6875 -13.332031 7.390625 -12.488281 7.390625 -11.4375 L 7.390625 0 Z M 2.109375 0 "/></g></g></g><g fill="#07a5c3" fill-opacity="1"><g transform="translate(293.663479, 198.871192)"><g><path d="M 10.796875 0.375 C 8.835938 0.375 7.148438 -0.0195312 5.734375 -0.8125 C 4.328125 -1.613281 3.242188 -2.75 2.484375 -4.21875 C 1.722656 -5.6875 1.34375 -7.425781 1.34375 -9.4375 C 1.34375 -11.394531 1.722656 -13.113281 2.484375 -14.59375 C 3.242188 -16.070312 4.316406 -17.222656 5.703125 -18.046875 C 7.085938 -18.878906 8.710938 -19.296875 10.578125 -19.296875 C 12.253906 -19.296875 13.769531 -18.9375 15.125 -18.21875 C 16.476562 -17.507812 17.550781 -16.4375 18.34375 -15 C 19.132812 -13.570312 19.53125 -11.78125 19.53125 -9.625 L 19.53125 -8.171875 L 6.5625 -8.171875 L 6.5625 -8.15625 C 6.5625 -6.738281 6.945312 -5.617188 7.71875 -4.796875 C 8.5 -3.984375 9.550781 -3.578125 10.875 -3.578125 C 11.757812 -3.578125 12.523438 -3.757812 13.171875 -4.125 C 13.816406 -4.5 14.269531 -5.050781 14.53125 -5.78125 L 19.421875 -5.453125 C 19.046875 -3.679688 18.101562 -2.265625 16.59375 -1.203125 C 15.082031 -0.148438 13.148438 0.375 10.796875 0.375 Z M 6.5625 -11.453125 L 14.5625 -11.453125 C 14.550781 -12.578125 14.1875 -13.507812 13.46875 -14.25 C 12.75 -14.988281 11.816406 -15.359375 10.671875 -15.359375 C 9.492188 -15.359375 8.523438 -14.976562 7.765625 -14.21875 C 7.015625 -13.457031 6.613281 -12.535156 6.5625 -11.453125 Z M 6.5625 -11.453125 "/></g></g></g><g fill="#07a5c3" fill-opacity="1"><g transform="translate(312.790223, 198.871192)"><g><path d="M 7.390625 -11.015625 L 7.390625 0 L 2.109375 0 L 2.109375 -19.046875 L 7.140625 -19.046875 L 7.140625 -15.6875 L 7.359375 -15.6875 C 7.796875 -16.789062 8.503906 -17.664062 9.484375 -18.3125 C 10.472656 -18.96875 11.675781 -19.296875 13.09375 -19.296875 C 15.082031 -19.296875 16.675781 -18.65625 17.875 -17.375 C 19.070312 -16.101562 19.671875 -14.351562 19.671875 -12.125 L 19.671875 0 L 14.390625 0 L 14.390625 -11.1875 C 14.390625 -12.351562 14.085938 -13.265625 13.484375 -13.921875 C 12.890625 -14.578125 12.0625 -14.90625 11 -14.90625 C 9.9375 -14.90625 9.070312 -14.5625 8.40625 -13.875 C 7.738281 -13.195312 7.398438 -12.242188 7.390625 -11.015625 Z M 7.390625 -11.015625 "/></g></g></g><g fill="#07a5c3" fill-opacity="1"><g transform="translate(332.760347, 198.871192)"><g><path d="M 12.234375 -19.046875 L 12.234375 -15.078125 L 8.65625 -15.078125 L 8.65625 -5.859375 C 8.65625 -5.128906 8.816406 -4.632812 9.140625 -4.375 C 9.472656 -4.125 9.90625 -4 10.4375 -4 C 10.6875 -4 10.9375 -4.019531 11.1875 -4.0625 C 11.4375 -4.101562 11.625 -4.140625 11.75 -4.171875 L 12.59375 -0.234375 C 12.320312 -0.148438 11.945312 -0.0546875 11.46875 0.046875 C 10.988281 0.160156 10.40625 0.234375 9.71875 0.265625 C 7.800781 0.347656 6.257812 -0.0664062 5.09375 -0.984375 C 3.9375 -1.898438 3.363281 -3.289062 3.375 -5.15625 L 3.375 -15.078125 L 0.765625 -15.078125 L 0.765625 -19.046875 L 3.375 -19.046875 L 3.375 -23.609375 L 8.65625 -23.609375 L 8.65625 -19.046875 Z M 12.234375 -19.046875 "/></g></g></g></svg>